<svg xmlns="http://www.w3.org/2000/svg" xmlns:xlink="http://www.w3.org/1999/xlink" width="156.864" height="143.788" viewBox="0 0 156.864 143.788"><defs><radialGradient id="a" cx="1.007" cy="0.999" r="1.679" gradientTransform="translate(-0.15) scale(1.301 1)" gradientUnits="objectBoundingBox"><stop offset="0" stop-color="#fff"/><stop offset="0.995" stop-color="#000001"/></radialGradient><radialGradient id="b" cx="-0.007" cy="0.999" r="1.679" gradientTransform="matrix(-1.301, 0, 0, 1, -1.526, 0)" xlink:href="#a"/><linearGradient id="c" x1="1" y1="0.5" x2="0" y2="0.5" gradientUnits="objectBoundingBox"><stop offset="0" stop-color="#fff"/><stop offset="1"/></linearGradient></defs><g transform="translate(2.056 1.5)"><g transform="translate(0 0)"><path d="M195.712,171.744l32.321,7.631,30.436,13.136-35.116,13.74L183.082,230.2l-42.195-23.953-35.116-14.457,28.3-12.185,26.461-5.521Z" transform="translate(-105.772 -127.615)" fill="#ffe7cf"/><path d="M293.554,172.451l-18.5-26.831-15.27-30.539L242.6,157.651l28.108,5.933Z" transform="translate(-145.257 -111.263)" fill="#00b9f2"/><path d="M111.8,173.355l18.614-27.735,15.27-30.539,16.919,41.864-28.28,5.853Z" transform="translate(-107.512 -111.263)" fill="#00b9f2"/><path d="M137.967,145.62l15.27-30.539,16.919,41.864Z" transform="translate(-115.063 -111.263)" opacity="0.35" fill="url(#a)" style="mix-blend-mode:multiply;isolation:isolate"/><path d="M274.787,145.62l-15.27-30.539L242.6,156.945Z" transform="translate(-145.257 -111.263)" opacity="0.35" fill="url(#b)" style="mix-blend-mode:multiply;isolation:isolate"/><path d="M157.821,112.634l28.165,91.74,11.154,2.359L161.182,111.9Z" transform="translate(-120.792 -110.344)" fill="#0d1012" opacity="0.2" style="mix-blend-mode:multiply;isolation:isolate"/><path d="M252.409,112.634l-27.8,91.74H213.089L249.048,111.9Z" transform="translate(-136.741 -110.344)" fill="#0d1012" opacity="0.2" style="mix-blend-mode:multiply;isolation:isolate"/><path d="M159.431,109.715,197.6,212.785l38.174-103.07L197.6,136.437Z" transform="translate(-121.256 -109.715)" fill="#00b9f2"/><path d="M213.089,136.437v76.348l38.174-103.07Z" transform="translate(-136.741 -109.715)" opacity="0.2" fill="url(#c)" style="mix-blend-mode:multiply;isolation:isolate"/><path d="M182.12,212.785l-41.233-24.434-35.115-13.74s20.041-22.428,24.813-30.539,13.361-34.357,13.361-34.357l38.174,26.722,38.174-26.722s8.309,25.766,13.361,34.354c4.491,7.636,24.813,30.542,24.813,30.542l-35.115,13.74Z" transform="translate(-105.772 -109.715)" fill="none" stroke="#0d1012" stroke-linecap="round" stroke-linejoin="round" stroke-width="3"/><path d="M159.431,109.715,197.6,212.785l38.174-103.07L197.6,136.437Z" transform="translate(-121.256 -109.715)" fill="none" stroke="#0d1012" stroke-linecap="round" stroke-linejoin="round" stroke-width="3"/><path d="M160.875,174.962c-21.98,2.644-41.227,9.305-55.07,18.513" transform="translate(-105.781 -128.544)" fill="none" stroke="#0d1012" stroke-linecap="round" stroke-linejoin="round" stroke-width="3"/><path d="M298.272,193.533c-13.753-9.164-32.856-15.811-54.679-18.495" transform="translate(-145.544 -128.566)" fill="none" stroke="#0d1012" stroke-linecap="round" stroke-linejoin="round" stroke-width="3"/><path d="M152.809,188.745l22.684,17.4-7.767-17.4Z" transform="translate(-119.346 -132.521)" fill="#0d1012"/><path d="M263.9,189.04l-21.784,16.714a.165.165,0,0,1-.25-.2l7.459-16.714a.164.164,0,0,1,.15-.1H263.8A.165.165,0,0,1,263.9,189.04Z" transform="translate(-145.04 -132.521)" fill="#0d1012"/><path d="M191.626,241.539l15.27,7.635,15.27-7.635-15.27-5.726Z" transform="translate(-130.547 -146.104)" fill="#0d1012"/></g><g transform="translate(6.934 119.361)"><path d="M124.921,277.924l2.209,5.928-3.1,7.865h6.034l1.563,4.149h-9.241l-1.724,4.418h-5.146Zm.943-.431h4.365l9.455,22.791h-5.307Z" transform="translate(-115.519 -277.493)" fill="#1a1818"/><path d="M161.44,295.662v4.579a11.98,11.98,0,0,1-2.263.189,18.034,18.034,0,0,1-5.118-.943,11.456,11.456,0,0,1-4.58-3.476l4.094-1.912a6.755,6.755,0,0,0,1.806,1.131,9.644,9.644,0,0,0,3.879.916A4.219,4.219,0,0,0,161.44,295.662Zm6.169-2.02a6.149,6.149,0,0,1-1.1,3.662,6.87,6.87,0,0,1-2.99,2.345c-.351.134-.7.242-1.078.35v-6.061a1.909,1.909,0,0,0-.566-1.428,4.023,4.023,0,0,0-1.428-.889,25.232,25.232,0,0,0-2.425-.807,23.834,23.834,0,0,1-3.61-1.266,6.329,6.329,0,0,1-2.4-1.94,5.47,5.47,0,0,1-1.024-3.448,5.975,5.975,0,0,1,1.051-3.5,6.773,6.773,0,0,1,2.91-2.318,9.8,9.8,0,0,1,1.239-.43v5.818a1.936,1.936,0,0,0,1.051,1.778A17.544,17.544,0,0,0,160.5,286.8a26.942,26.942,0,0,1,3.637,1.32,6.481,6.481,0,0,1,2.451,1.993A5.717,5.717,0,0,1,167.61,293.642Zm-.7-12.77-3.448,2.425c-.324-.3-.243-.3-1.374-.835a6.968,6.968,0,0,0-3.179-.621,4.018,4.018,0,0,0-1.724.324v-4.471a13.335,13.335,0,0,1,2.129-.162,10.572,10.572,0,0,1,3.771.511A7.756,7.756,0,0,1,166.909,280.872Z" transform="translate(-125.319 -277.504)" fill="#1a1818"/><path d="M193.233,277.493v4.365H174.806v-4.365Zm-6.735,5.415v17.376h-4.984V282.908Z" transform="translate(-132.628 -277.493)" fill="#1a1818"/><path d="M214.144,294.315v5.576a12.207,12.207,0,0,1-3.69.539,10.619,10.619,0,0,1-5.173-1.186,7.963,7.963,0,0,1-3.394-3.341,10.37,10.37,0,0,1-1.185-5.144V277.531h4.9v13.228a5.341,5.341,0,0,0,1.347,3.825,4.546,4.546,0,0,0,3.529,1.4,4.422,4.422,0,0,0,3.421-1.374Zm5.982-16.784v13.228a10.669,10.669,0,0,1-1.185,5.144,7.988,7.988,0,0,1-3.341,3.341l-.432.243v-7.975c0-.242.027-.484.027-.753V277.531Z" transform="translate(-140.101 -277.504)" fill="#1a1818"/><path d="M235.514,297.419l-1.131,2.876h-2.371l-8.593-22.764h5.28Zm7.867-19.888-7.032,18.45-.054.108-.889-2.632-1.265-3.716.026-.109,4.229-12.1Z" transform="translate(-146.656 -277.504)" fill="#00b9f2"/><path d="M268.632,296.028v4.256H251.471V277.493h16.81v4.256H256.455v14.386h1.023v-.107Zm-1.562-5.065h-9.591v-4.257h9.564Z" transform="translate(-154.752 -277.493)" fill="#00b9f2"/><path d="M294.014,277.493v4.365H275.587v-4.365Zm-6.734,5.415v17.376h-4.985V282.908Z" transform="translate(-161.711 -277.493)" fill="#00b9f2"/></g></g></svg>