<svg xmlns="http://www.w3.org/2000/svg" xmlns:xlink="http://www.w3.org/1999/xlink" width="177.824" height="141.38" viewBox="0 0 177.824 141.38"><defs><radialGradient id="a" cx="1.007" cy="0.999" r="1.679" gradientTransform="translate(-0.15) scale(1.301 1)" gradientUnits="objectBoundingBox"><stop offset="0" stop-color="#fff"/><stop offset="0.995" stop-color="#000001"/></radialGradient><radialGradient id="b" cx="-0.007" cy="0.999" r="1.679" gradientTransform="matrix(-1.301, 0, 0, 1, -1.526, 0)" xlink:href="#a"/><linearGradient id="c" x1="1" y1="0.5" x2="0" y2="0.5" gradientUnits="objectBoundingBox"><stop offset="0" stop-color="#fff"/><stop offset="1"/></linearGradient></defs><g transform="translate(0 1.5)"><g transform="translate(0 117.202)"><path d="M96.815,277.707,99,283.556l-3.057,7.764h5.955l1.542,4.094H94.316l-1.7,4.36H87.536Zm.931-.425h4.307l9.332,22.492h-5.238Z" transform="translate(-87.536 -277.229)" fill="#1a1818"/><path d="M133.426,295.212v4.52a11.862,11.862,0,0,1-2.233.186,17.786,17.786,0,0,1-5.052-.931,11.293,11.293,0,0,1-4.52-3.429l4.041-1.887a6.672,6.672,0,0,0,1.781,1.116,9.506,9.506,0,0,0,3.829.9A4.168,4.168,0,0,0,133.426,295.212Zm6.089-1.994a6.069,6.069,0,0,1-1.09,3.616,6.792,6.792,0,0,1-2.951,2.313c-.346.132-.691.239-1.064.345v-5.982a1.884,1.884,0,0,0-.558-1.409,3.988,3.988,0,0,0-1.409-.878,25.047,25.047,0,0,0-2.392-.8,23.489,23.489,0,0,1-3.562-1.249,6.252,6.252,0,0,1-2.367-1.915,5.4,5.4,0,0,1-1.01-3.4,5.893,5.893,0,0,1,1.037-3.455,6.677,6.677,0,0,1,2.872-2.287,9.339,9.339,0,0,1,1.222-.425v5.743a1.912,1.912,0,0,0,1.037,1.754,17.358,17.358,0,0,0,3.217,1.276,26.563,26.563,0,0,1,3.59,1.3,6.4,6.4,0,0,1,2.419,1.967A5.642,5.642,0,0,1,139.515,293.218Zm-.691-12.6-3.4,2.392c-.319-.293-.239-.293-1.356-.824a6.9,6.9,0,0,0-3.138-.612,3.976,3.976,0,0,0-1.7.319v-4.413a13.2,13.2,0,0,1,2.1-.16,10.422,10.422,0,0,1,3.722.506A7.655,7.655,0,0,1,138.823,280.616Z" transform="translate(-97.77 -277.24)" fill="#1a1818"/><path d="M165.229,277.282v4.307H147.043v-4.307Zm-6.647,5.344v17.148h-4.919V282.626Z" transform="translate(-105.403 -277.229)" fill="#1a1818"/><path d="M186.3,293.883v5.5a12.049,12.049,0,0,1-3.643.532,10.486,10.486,0,0,1-5.1-1.17,7.859,7.859,0,0,1-3.35-3.3,10.237,10.237,0,0,1-1.17-5.078V277.319h4.839v13.055a5.271,5.271,0,0,0,1.329,3.775,4.487,4.487,0,0,0,3.483,1.383,4.368,4.368,0,0,0,3.377-1.356Zm5.9-16.564v13.055a10.523,10.523,0,0,1-1.17,5.078,7.878,7.878,0,0,1-3.3,3.3l-.425.239v-7.869c0-.239.027-.479.027-.745V277.319Z" transform="translate(-113.207 -277.24)" fill="#1a1818"/><path d="M216.581,285.1a8.06,8.06,0,0,1-2.286,6.089,9.053,9.053,0,0,1-6.434,2.153h-3.323v-4.227h3.084a4.769,4.769,0,0,0,3.191-.984,3.726,3.726,0,0,0,1.09-2.871,3.571,3.571,0,0,0-1.09-2.819,4.769,4.769,0,0,0-3.191-.957h-4.068v.4h-.026v17.893h-4.893V277.282h9.226a9.3,9.3,0,0,1,6.434,2.047A7.338,7.338,0,0,1,216.581,285.1Z" transform="translate(-120.893 -277.229)" fill="#69b130"/><path d="M229.017,286.666l.027,4.228h-.027v8.88h-4.732V277.282h4.732Zm14.251-9.384v22.492h-4.732v-8.88h-8.482v-4.228h8.482v-9.384Z" transform="translate(-128.595 -277.229)" fill="#69b130"/><path d="M260.695,277.707l2.18,5.849-3.058,7.764h5.956l1.542,4.094H258.2l-1.7,4.36h-5.077Zm.931-.425h4.308l9.332,22.492h-5.238Z" transform="translate(-136.741 -277.229)" fill="#69b130"/><path d="M299.806,292.356a12.149,12.149,0,0,1-4.387.984h-4.147v-4.227h3.669a4.692,4.692,0,0,0,3.164-.984,3.646,3.646,0,0,0,1.117-2.871,3.5,3.5,0,0,0-1.117-2.819,4.691,4.691,0,0,0-3.164-.957h-4.653v18.291H285.5V277.282h9.438a9.7,9.7,0,0,1,6.594,2.047,7.2,7.2,0,0,1,2.339,5.769,8.912,8.912,0,0,1-1.036,4.44A6.772,6.772,0,0,1,299.806,292.356Zm4.626,7.418h-5.557l-2.951-5.476a13.767,13.767,0,0,0,4.572-.825Z" transform="translate(-146.975 -277.229)" fill="#69b130"/><path d="M332.923,277.285V282.2L323.3,295.5l-1.01.027-5.317-7.284-4.414-6.116v-4.918h2.26l7.923,11.272v.08l7.923-11.274Zm-15.952,12.682v9.784h-4.414V283.879Zm11.538,0v9.784h4.413V283.879Z" transform="translate(-155.099 -277.206)" fill="#69b130"/></g><g transform="translate(12.76 0)"><path d="M194.236,171.744l31.79,7.506,29.937,12.92-34.539,13.515-39.61,23.56-41.5-23.56-34.539-14.22L133.6,179.48l26.026-5.431Z" transform="translate(-105.772 -128.339)" fill="#ffe7cf"/><path d="M292.718,171.509l-18.2-26.39L259.5,115.081l-16.9,41.872,27.647,5.835Z" transform="translate(-146.854 -111.326)" fill="#69b130"/><path d="M111.8,172.4l18.308-27.28,15.019-30.038,16.642,41.178-27.816,5.757Z" transform="translate(-107.583 -111.326)" fill="#69b130"/><path d="M137.967,145.119l15.019-30.038,16.642,41.178Z" transform="translate(-115.438 -111.326)" opacity="0.35" fill="url(#a)" style="mix-blend-mode:multiply;isolation:isolate"/><path d="M274.259,145.119,259.24,115.081,242.6,156.258Z" transform="translate(-146.854 -111.326)" opacity="0.35" fill="url(#b)" style="mix-blend-mode:multiply;isolation:isolate"/><path d="M157.821,112.622l27.7,90.235,10.971,2.321L161.127,111.9Z" transform="translate(-121.399 -110.369)" fill="#0d1012" opacity="0.2" style="mix-blend-mode:multiply;isolation:isolate"/><path d="M251.764,112.622l-27.34,90.235H213.089L248.458,111.9Z" transform="translate(-137.994 -110.369)" fill="#0d1012" opacity="0.2" style="mix-blend-mode:multiply;isolation:isolate"/><path d="M159.431,109.715l37.548,101.379,37.548-101.379L196.979,136Z" transform="translate(-121.883 -109.715)" fill="#69b130"/><path d="M213.089,136v75.1l37.548-101.379Z" transform="translate(-137.994 -109.715)" opacity="0.2" fill="url(#c)" style="mix-blend-mode:multiply;isolation:isolate"/><path d="M180.868,211.094l-40.557-24.033-34.539-13.515s19.713-22.06,24.406-30.038,13.142-33.793,13.142-33.793L180.868,136l37.547-26.283s8.173,25.343,13.142,33.79c4.418,7.51,24.406,30.041,24.406,30.041l-34.539,13.515Z" transform="translate(-105.772 -109.715)" fill="none" stroke="#0d1012" stroke-linecap="round" stroke-linejoin="round" stroke-width="3"/><path d="M159.431,109.715l37.548,101.379,37.548-101.379L196.979,136Z" transform="translate(-121.883 -109.715)" fill="none" stroke="#0d1012" stroke-linecap="round" stroke-linejoin="round" stroke-width="3"/><path d="M159.971,174.962c-21.619,2.6-40.551,9.153-54.166,18.209" transform="translate(-105.782 -129.305)" fill="none" stroke="#0d1012" stroke-linecap="round" stroke-linejoin="round" stroke-width="3"/><path d="M297.374,193.229c-13.528-9.014-32.317-15.551-53.781-18.191" transform="translate(-147.153 -129.328)" fill="none" stroke="#0d1012" stroke-linecap="round" stroke-linejoin="round" stroke-width="3"/><path d="M152.809,188.745l22.312,17.119-7.639-17.119Z" transform="translate(-119.895 -133.443)" fill="#0d1012"/><path d="M263.535,189.035l-21.427,16.44a.162.162,0,0,1-.246-.195l7.336-16.44a.161.161,0,0,1,.148-.1h14.091A.162.162,0,0,1,263.535,189.035Z" transform="translate(-146.628 -133.444)" fill="#0d1012"/><path d="M191.626,241.445l15.019,7.51,15.019-7.51-15.019-5.632Z" transform="translate(-131.549 -147.576)" fill="#0d1012"/></g></g></svg>