<svg xmlns="http://www.w3.org/2000/svg" xmlns:xlink="http://www.w3.org/1999/xlink" width="156.223" height="143.013" viewBox="0 0 156.223 143.013"><defs><radialGradient id="a" cx="1.007" cy="0.999" r="1.679" gradientTransform="translate(-0.15) scale(1.301 1)" gradientUnits="objectBoundingBox"><stop offset="0" stop-color="#fff"/><stop offset="0.995" stop-color="#000001"/></radialGradient><radialGradient id="b" cx="-0.007" cy="0.999" r="1.679" gradientTransform="matrix(-1.301, 0, 0, 1, -1.526, 0)" xlink:href="#a"/><linearGradient id="c" x1="1" y1="0.5" x2="0" y2="0.5" gradientUnits="objectBoundingBox"><stop offset="0" stop-color="#fff"/><stop offset="1"/></linearGradient></defs><g transform="translate(2.056 1.5)"><g transform="translate(5.29 118.553)"><path d="M122.633,277.565l2.208,5.922-3.1,7.859h6.03l1.561,4.146H120.1l-1.722,4.414h-5.141Zm.942-.43h4.36l9.448,22.771h-5.3Z" transform="translate(-113.239 -277.081)" fill="#1a1818"/><path d="M159.275,295.287v4.576a11.948,11.948,0,0,1-2.261.189,18.04,18.04,0,0,1-5.115-.942,11.447,11.447,0,0,1-4.576-3.473l4.091-1.911a6.754,6.754,0,0,0,1.8,1.131,9.623,9.623,0,0,0,3.876.915A4.222,4.222,0,0,0,159.275,295.287Zm6.164-2.018a6.148,6.148,0,0,1-1.1,3.661,6.873,6.873,0,0,1-2.988,2.341c-.349.135-.7.242-1.076.349v-6.056a1.906,1.906,0,0,0-.565-1.427,4.038,4.038,0,0,0-1.427-.888,25.2,25.2,0,0,0-2.422-.808,23.628,23.628,0,0,1-3.607-1.265,6.322,6.322,0,0,1-2.4-1.938,5.466,5.466,0,0,1-1.023-3.445,5.967,5.967,0,0,1,1.05-3.5,6.761,6.761,0,0,1,2.907-2.314,9.5,9.5,0,0,1,1.238-.431v5.814a1.936,1.936,0,0,0,1.05,1.777,17.576,17.576,0,0,0,3.257,1.291,26.948,26.948,0,0,1,3.634,1.319,6.475,6.475,0,0,1,2.45,1.992A5.712,5.712,0,0,1,165.439,293.268Zm-.7-12.758-3.445,2.422c-.323-.3-.243-.3-1.373-.835a6.98,6.98,0,0,0-3.177-.619,4.015,4.015,0,0,0-1.722.323v-4.468a13.373,13.373,0,0,1,2.127-.162,10.529,10.529,0,0,1,3.768.512A7.744,7.744,0,0,1,164.74,280.51Z" transform="translate(-123.177 -277.092)" fill="#1a1818"/><path d="M191.158,277.135v4.36H172.746v-4.36Zm-6.729,5.41v17.361h-4.98V282.545Z" transform="translate(-130.589 -277.081)" fill="#1a1818"/><path d="M212.169,293.941v5.572a12.217,12.217,0,0,1-3.687.538,10.617,10.617,0,0,1-5.168-1.185,7.957,7.957,0,0,1-3.391-3.337,10.367,10.367,0,0,1-1.185-5.142V277.172h4.9v13.216a5.341,5.341,0,0,0,1.345,3.823,4.545,4.545,0,0,0,3.527,1.4,4.42,4.42,0,0,0,3.418-1.372Zm5.976-16.769v13.216a10.657,10.657,0,0,1-1.185,5.142,7.984,7.984,0,0,1-3.337,3.337l-.431.242v-7.967c0-.242.027-.485.027-.755V277.172Z" transform="translate(-138.167 -277.092)" fill="#1a1818"/><path d="M245.155,277.139v4.98l-9.744,13.458-1.022.027-5.383-7.375-4.469-6.191v-4.979h2.289l8.021,11.412v.081l8.021-11.413Zm-16.15,12.84v9.9h-4.469V283.815Zm11.681,0v9.9h4.468V283.815Z" transform="translate(-145.689 -277.059)" fill="#e14b4b"/><path d="M272.791,295.653v4.253H255.645V277.135h16.8v4.253H260.625v14.374h1.022v-.108Zm-1.561-5.06h-9.583v-4.253H271.2Z" transform="translate(-154.759 -277.081)" fill="#e14b4b"/><path d="M286.884,281.468l-.054,14.1v4.333h-4.979V277.135h5.033Zm15.935,7.053a11.566,11.566,0,0,1-1.507,5.894,10.569,10.569,0,0,1-4.172,4.038,12.579,12.579,0,0,1-6.11,1.453h-3.122v-4.333h3.445a6.194,6.194,0,0,0,3.284-.888,6.345,6.345,0,0,0,2.287-2.476,8.045,8.045,0,0,0,.808-3.661,7.728,7.728,0,0,0-.862-3.661,6.149,6.149,0,0,0-2.368-2.531,6.505,6.505,0,0,0-3.392-.888h-3.2v-4.333h3.311a12.216,12.216,0,0,1,6,1.454,10.252,10.252,0,0,1,4.119,4.037A11.828,11.828,0,0,1,302.819,288.52Z" transform="translate(-162.4 -277.081)" fill="#e14b4b"/></g><g transform="translate(0 0)"><path d="M195.335,171.744l32.185,7.6,30.308,13.08L222.86,206.107l-40.1,23.852L140.74,206.107l-34.968-14.4,28.178-12.134,26.35-5.5Z" transform="translate(-105.772 -127.8)" fill="#ffe7cf"/><path d="M293.34,172.21l-18.427-26.718-15.206-30.411L242.6,157.473l27.99,5.908Z" transform="translate(-145.665 -111.279)" fill="#e14b4b"/><path d="M111.8,173.111l18.536-27.619,15.206-30.411,16.848,41.689L134.231,162.6Z" transform="translate(-107.53 -111.279)" fill="#e14b4b"/><path d="M137.967,145.492l15.206-30.411,16.848,41.689Z" transform="translate(-115.159 -111.279)" opacity="0.35" fill="url(#a)" style="mix-blend-mode:multiply;isolation:isolate"/><path d="M274.652,145.492l-15.206-30.411L242.6,156.77Z" transform="translate(-145.665 -111.279)" opacity="0.35" fill="url(#b)" style="mix-blend-mode:multiply;isolation:isolate"/><path d="M157.821,112.631l28.047,91.355,11.107,2.35L161.168,111.9Z" transform="translate(-120.947 -110.351)" fill="#0d1012" opacity="0.2" style="mix-blend-mode:multiply;isolation:isolate"/><path d="M252.244,112.631l-27.68,91.355H213.089L248.9,111.9Z" transform="translate(-137.061 -110.351)" fill="#0d1012" opacity="0.2" style="mix-blend-mode:multiply;isolation:isolate"/><path d="M159.431,109.715l38.014,102.638,38.014-102.638-38.014,26.61Z" transform="translate(-121.417 -109.715)" fill="#e14b4b"/><path d="M213.089,136.325v76.028L251.1,109.715Z" transform="translate(-137.061 -109.715)" opacity="0.2" fill="url(#c)" style="mix-blend-mode:multiply;isolation:isolate"/><path d="M181.8,212.353l-41.06-24.331-34.968-13.683s19.957-22.334,24.709-30.411,13.305-34.213,13.305-34.213l38.014,26.61,38.013-26.61s8.275,25.658,13.305,34.21c4.472,7.6,24.709,30.414,24.709,30.414L222.86,188.022Z" transform="translate(-105.772 -109.715)" fill="none" stroke="#0d1012" stroke-linecap="round" stroke-linejoin="round" stroke-width="3"/><path d="M159.431,109.715l38.014,102.638,38.014-102.638-38.014,26.61Z" transform="translate(-121.417 -109.715)" fill="none" stroke="#0d1012" stroke-linecap="round" stroke-linejoin="round" stroke-width="3"/><path d="M160.644,174.962c-21.888,2.633-41.054,9.266-54.839,18.435" transform="translate(-105.781 -128.738)" fill="none" stroke="#0d1012" stroke-linecap="round" stroke-linejoin="round" stroke-width="3"/><path d="M298.042,193.455c-13.7-9.125-32.718-15.744-54.449-18.417" transform="translate(-145.955 -128.76)" fill="none" stroke="#0d1012" stroke-linecap="round" stroke-linejoin="round" stroke-width="3"/><path d="M152.809,188.745,175.4,206.077l-7.734-17.332Z" transform="translate(-119.486 -132.757)" fill="#0d1012"/><path d="M263.8,189.039l-21.693,16.644a.164.164,0,0,1-.249-.2l7.427-16.644a.163.163,0,0,1,.149-.1H263.7A.164.164,0,0,1,263.8,189.039Z" transform="translate(-145.446 -132.757)" fill="#0d1012"/><path d="M191.626,241.515l15.206,7.6,15.206-7.6-15.206-5.7Z" transform="translate(-130.803 -146.48)" fill="#0d1012"/></g></g></svg>