<svg id="Calque_1" data-name="Calque 1" xmlns="http://www.w3.org/2000/svg" xmlns:xlink="http://www.w3.org/1999/xlink" viewBox="0 0 223.79 204.51"><defs><style>.cls-1{fill:#f47931;}.cls-2{fill:#ffecd9;}.cls-3,.cls-4{opacity:0.35;}.cls-3,.cls-4,.cls-5,.cls-6{isolation:isolate;}.cls-3{fill:url(#Безымянный_градиент);}.cls-4{fill:url(#Безымянный_градиент_2);}.cls-5,.cls-8{fill:#0e1216;}.cls-5,.cls-6{opacity:0.2;}.cls-6{fill:url(#Безымянный_градиент_3);}.cls-7{fill:none;stroke:#0e1216;stroke-linecap:round;stroke-linejoin:round;stroke-width:3px;}</style><radialGradient id="Безымянный_градиент" cx="82.09" cy="146.97" r="94.71" gradientTransform="matrix(1, 0, 0, -1, 0, 213.62)" gradientUnits="userSpaceOnUse"><stop offset="0" stop-color="#fff"/><stop offset="0.99"/></radialGradient><radialGradient id="Безымянный_градиент_2" cx="-586.87" cy="146.96" r="95.45" gradientTransform="translate(-446.03 213.62) rotate(180)" xlink:href="#Безымянный_градиент"/><linearGradient id="Безымянный_градиент_3" x1="165.31" y1="138.66" x2="111.65" y2="138.66" gradientTransform="matrix(1, 0, 0, -1, 0, 213.62)" gradientUnits="userSpaceOnUse"><stop offset="0" stop-color="#fff"/><stop offset="1"/></linearGradient></defs><path d="M136.3,197.07a17.28,17.28,0,0,1-5.66,4.1,15.16,15.16,0,0,1-6.54,1.52,15.6,15.6,0,0,1-8-2.13,15,15,0,0,1-5.7-5.81,16.54,16.54,0,0,1-2-8.21,16,16,0,0,1,2.09-8.17,15,15,0,0,1,5-5.24v11.63c0,.61,0,1.1,0,1.67a10.3,10.3,0,0,0,1.1,5,9.38,9.38,0,0,0,3.3,3.57,8.76,8.76,0,0,0,4.67,1.29,8.93,8.93,0,0,0,4.1-1,12.3,12.3,0,0,0,3.72-2.7Zm0-21.31-4,5a12.47,12.47,0,0,0-3.61-3,9.16,9.16,0,0,0-4.22-1.06,8.76,8.76,0,0,0-4.67,1.29,9.32,9.32,0,0,0-3,3v-8.63a16,16,0,0,1,7.6-1.79,15.73,15.73,0,0,1,6.46,1.41A17,17,0,0,1,136.27,175.76Z"/><path class="cls-1" d="M13.26,171.16l3.12,8.36L12,190.61h8.51l2.2,5.85h-13l-2.43,6.23H0Zm1.33-.61h6.16l13.34,32.14H26.61Z"/><path class="cls-1" d="M51,196.16v6.46a16.94,16.94,0,0,1-3.19.27,25.5,25.5,0,0,1-7.22-1.33,16.2,16.2,0,0,1-6.46-4.9l5.77-2.7a9.56,9.56,0,0,0,2.55,1.6,13.66,13.66,0,0,0,5.47,1.29A5.93,5.93,0,0,0,51,196.16Zm8.7-2.85a8.68,8.68,0,0,1-1.56,5.17,9.81,9.81,0,0,1-4.22,3.31c-.49.19-1,.34-1.52.49v-8.55a2.68,2.68,0,0,0-.8-2,5.67,5.67,0,0,0-2-1.25q-1.26-.51-3.42-1.14A33.21,33.21,0,0,1,41,187.54a8.91,8.91,0,0,1-3.38-2.74,7.72,7.72,0,0,1-1.44-4.86A8.43,8.43,0,0,1,37.7,175a9.57,9.57,0,0,1,4.1-3.27,12.92,12.92,0,0,1,1.75-.61v8.21A2.73,2.73,0,0,0,45,181.84a24.58,24.58,0,0,0,4.6,1.82,38,38,0,0,1,5.13,1.86,9.2,9.2,0,0,1,3.46,2.81A8.07,8.07,0,0,1,59.66,193.31Zm-1-18-4.86,3.42c-.46-.42-.34-.42-1.94-1.18a9.8,9.8,0,0,0-4.48-.87,5.54,5.54,0,0,0-2.43.46v-6.31a19.12,19.12,0,0,1,3-.23,15,15,0,0,1,5.32.72A10.94,10.94,0,0,1,58.67,175.3Z"/><path class="cls-1" d="M85.5,170.55v6.15h-26v-6.15ZM76,178.19V202.7H69V178.19Z"/><path class="cls-1" d="M104.46,194.26v7.87a17.38,17.38,0,0,1-5.21.76A15,15,0,0,1,92,201.22a11.23,11.23,0,0,1-4.79-4.71,14.64,14.64,0,0,1-1.67-7.26V170.59h6.92v18.66a7.56,7.56,0,0,0,1.9,5.4,6.43,6.43,0,0,0,5,2,6.27,6.27,0,0,0,4.83-1.94Zm8.43-23.67v18.66a15.09,15.09,0,0,1-1.67,7.26,11.26,11.26,0,0,1-4.71,4.71l-.61.34V190.31c0-.34,0-.68,0-1.06V170.59Z"/><path d="M160.43,192.17V201a17.28,17.28,0,0,1-16.11-.27,15.33,15.33,0,0,1-5.85-5.81,16.17,16.17,0,0,1-2.17-8.28,15.92,15.92,0,0,1,2.17-8.21,15.64,15.64,0,0,1,4.86-5.21v14.55h0a9.83,9.83,0,0,0,1.25,3.91,9.62,9.62,0,0,0,3.42,3.65,8.7,8.7,0,0,0,4.64,1.33,8.59,8.59,0,0,0,4.64-1.29A9.58,9.58,0,0,0,160.43,192.17Zm8.48-5.51a16.26,16.26,0,0,1-2.13,8.24,15.62,15.62,0,0,1-4.94,5.28V187.87a12,12,0,0,0,0-1.22,10.3,10.3,0,0,0-1.21-5,9.84,9.84,0,0,0-3.34-3.61,8.59,8.59,0,0,0-4.64-1.29A8.86,8.86,0,0,0,148,178a9.83,9.83,0,0,0-3.31,3.38v-9a17.41,17.41,0,0,1,16.18.19,15.43,15.43,0,0,1,5.89,5.81A16.55,16.55,0,0,1,168.91,186.66Z"/><path d="M189.35,192.1c-2,1.22-6.27,1.41-6.27,1.41h-5.93v-6h5.24a6.65,6.65,0,0,0,4.52-1.41,5.23,5.23,0,0,0,1.6-4.1,5,5,0,0,0-1.6-4,6.69,6.69,0,0,0-4.52-1.37h-6.65V202.7H168.9V170.56h13.49c4.07,0,7.22,1,9.42,2.92s3.34,4.67,3.34,8.25a12.68,12.68,0,0,1-1.48,6.34A9.65,9.65,0,0,1,189.35,192.1ZM196,202.7H188l-4.22-7.83a19.73,19.73,0,0,0,6.54-1.18Z"/><path d="M221.61,181.72c0,3.72-1.1,6.61-3.27,8.7s-5.24,3.08-9.2,3.08h-4.75v-6h4.41a6.76,6.76,0,0,0,4.56-1.41,5.31,5.31,0,0,0,1.56-4.1,5.08,5.08,0,0,0-1.56-4,6.8,6.8,0,0,0-4.56-1.37H203v.57h0v25.57h-7V170.55h13.18c4,0,7,1,9.2,2.92S221.61,178.15,221.61,181.72Z"/><polygon class="cls-2" points="130.75 64.55 176.19 75.28 218.97 93.74 169.61 113.06 113 146.73 53.69 113.06 4.33 92.74 44.11 75.61 81.3 67.85 130.75 64.55"/><polygon class="cls-1" points="212.78 88.53 184.76 50.95 165.31 7.89 141.16 67.73 180.67 76.07 212.78 88.53"/><polygon class="cls-1" points="9.29 88.53 38.01 51.36 57.99 4.71 81.77 66.74 42.02 74.96 9.29 88.53"/><polygon class="cls-3" points="38.74 51.6 58.5 3.9 81.77 66.74 38.74 51.6"/><polygon class="cls-4" points="184.76 50.95 164.94 7.89 141.16 66.74 184.76 50.95"/><polygon class="cls-5" points="56.38 5.74 95.97 134.7 111.65 138.01 61.11 4.71 56.38 5.74"/><polygon class="cls-5" points="166.92 5.74 127.85 134.7 111.65 134.7 162.19 4.71 166.92 5.74"/><polygon class="cls-1" points="57.99 2.52 111.65 147.4 165.31 2.52 111.65 40.09 57.99 2.52"/><polygon class="cls-6" points="111.65 40.09 111.65 147.4 165.31 2.52 111.65 40.09"/><path class="cls-7" d="M111.65,147.4l-58-34.35L4.33,93.74S32.5,62.22,39.21,50.81,58,2.52,58,2.52l53.66,37.56L165.31,2.52S177,38.74,184.09,50.81C190.4,61.54,219,93.74,219,93.74l-49.36,19.31Z"/><polygon class="cls-7" points="57.99 2.52 111.65 147.4 165.31 2.52 111.65 40.09 57.99 2.52"/><path class="cls-7" d="M81.77,67.77c-30.9,3.72-57.95,13.08-77.41,26"/><path class="cls-7" d="M219,93.85c-19.33-12.88-46.18-22.22-76.86-26"/><polygon class="cls-8" points="51.37 81.55 83.25 106.02 72.34 81.55 51.37 81.55"/><path class="cls-8" d="M171.4,82l-30.62,23.49a.23.23,0,0,1-.35-.28l10.48-23.49a.24.24,0,0,1,.21-.14h20.14A.23.23,0,0,1,171.4,82Z"/><polygon class="cls-8" points="92.19 136.67 111.65 147.4 131.11 136.67 111.65 128.62 92.19 136.67"/></svg>