<svg xmlns="http://www.w3.org/2000/svg" width="583.5" height="1136.317" viewBox="0 0 583.5 1136.317"><g transform="translate(-1029 -2704.956)"><path d="M537.24,301.511a19.341,19.341,0,1,0,19.341-19.341A19.33,19.33,0,0,0,537.24,301.511Z" transform="translate(698.077 3300.375)" fill="none" stroke="rgba(96,118,250,0.56)" stroke-linecap="round" stroke-miterlimit="10" stroke-width="5" opacity="0.2"/><path d="M537.24,301.511a19.341,19.341,0,1,0,19.341-19.341A19.33,19.33,0,0,0,537.24,301.511Z" transform="translate(652.76 2981.375)" fill="none" stroke="rgba(96,118,250,0.56)" stroke-linecap="round" stroke-miterlimit="10" stroke-width="4" opacity="0.2"/><path d="M537.24,301.511a19.341,19.341,0,1,0,19.341-19.341A19.33,19.33,0,0,0,537.24,301.511Z" transform="translate(974.077 2962.375)" fill="none" stroke="rgba(96,118,250,0.56)" stroke-linecap="round" stroke-miterlimit="10" stroke-width="5" opacity="0.2"/><path d="M537.24,311.556a29.386,29.386,0,1,0,29.386-29.386A29.369,29.369,0,0,0,537.24,311.556Z" transform="translate(632.988 2426.286)" fill="none" stroke="rgba(96,118,250,0.4)" stroke-linecap="round" stroke-miterlimit="10" stroke-width="7" opacity="0.2"/><path d="M537.24,294.784c0,6.972,6.038,12.614,13.5,12.614s13.5-5.642,13.5-12.614-6.038-12.614-13.5-12.614S537.24,287.812,537.24,294.784Z" transform="translate(493.76 3338.83)" fill="none" stroke="rgba(96,118,250,0.56)" stroke-linecap="round" stroke-miterlimit="10" stroke-width="4" opacity="0.2"/><path d="M537.24,294.784c0,6.972,6.038,12.614,13.5,12.614s13.5-5.642,13.5-12.614-6.038-12.614-13.5-12.614S537.24,287.812,537.24,294.784Z" transform="translate(844.76 3351.33)" fill="none" stroke="rgba(96,118,250,0.56)" stroke-linecap="round" stroke-miterlimit="10" stroke-width="4" opacity="0.2"/><path d="M537.24,301.556a19.386,19.386,0,1,0,19.386-19.386A19.375,19.375,0,0,0,537.24,301.556Z" transform="translate(827.76 2608.286)" fill="none" stroke="rgba(96,118,250,0.56)" stroke-linecap="round" stroke-miterlimit="10" stroke-width="4" opacity="0.2"/><path d="M537.24,292.17a10,10,0,1,0,10-10A9.994,9.994,0,0,0,537.24,292.17Z" transform="translate(792.76 2871.375)" fill="none" stroke="rgba(96,118,250,0.56)" stroke-linecap="round" stroke-miterlimit="10" stroke-width="3" opacity="0.2"/><path d="M537.24,292.17a10,10,0,1,0,10-10A9.994,9.994,0,0,0,537.24,292.17Z" transform="translate(1053.76 2754.375)" fill="none" stroke="rgba(96,118,250,0.56)" stroke-linecap="round" stroke-miterlimit="10" stroke-width="3" opacity="0.2"/><path d="M537.24,292.17a10,10,0,1,0,10-10A9.994,9.994,0,0,0,537.24,292.17Z" transform="translate(552.76 2683.33)" fill="none" stroke="rgba(96,118,250,0.56)" stroke-linecap="round" stroke-miterlimit="10" stroke-width="3" opacity="0.2"/><path d="M537.24,292.17a10,10,0,1,0,10-10A9.994,9.994,0,0,0,537.24,292.17Z" transform="translate(1012.76 2523.33)" fill="none" stroke="rgba(96,118,250,0.56)" stroke-linecap="round" stroke-miterlimit="10" stroke-width="3" opacity="0.2"/><path d="M537.24,292.17a10,10,0,1,0,10-10A9.994,9.994,0,0,0,537.24,292.17Z" transform="translate(716.76 3504.33)" fill="none" stroke="rgba(96,118,250,0.56)" stroke-linecap="round" stroke-miterlimit="10" stroke-width="3" opacity="0.5"/><path d="M537.24,289.489a7.852,7.852,0,1,0,7.834-7.319A7.585,7.585,0,0,0,537.24,289.489Z" transform="translate(613.093 3012.375)" fill="none" stroke="rgba(96,118,250,0.56)" stroke-linecap="round" stroke-miterlimit="10" stroke-width="4" opacity="0.2"/><path d="M537.24,298.784a16.614,16.614,0,1,0,16.614-16.614A16.6,16.6,0,0,0,537.24,298.784Z" transform="translate(540.76 3524.375)" fill="none" stroke="rgba(96,118,250,0.56)" stroke-linecap="round" stroke-miterlimit="10" stroke-width="3" opacity="0.2"/></g></svg>