<svg xmlns="http://www.w3.org/2000/svg" width="362.236" height="772.738" viewBox="0 0 362.236 772.738"><g transform="translate(-806.081 -6992.404)"><path d="M537.24,292.056a9.886,9.886,0,1,0,9.886-9.886A9.88,9.88,0,0,0,537.24,292.056Z" transform="translate(367.76 7127.286)" fill="none" stroke="rgba(96,118,250,0.56)" stroke-linecap="round" stroke-miterlimit="10" stroke-width="4" opacity="0.2"/><path d="M537.24,298.128A15.958,15.958,0,1,0,553.2,282.17,15.949,15.949,0,0,0,537.24,298.128Z" transform="matrix(0.174, 0.985, -0.985, 0.174, 1345.051, 6995.217)" fill="none" stroke="rgba(96,118,250,0.56)" stroke-linecap="round" stroke-miterlimit="10" stroke-width="4" opacity="0.2"/><path d="M0,17.862A17.862,17.862,0,1,0,17.862,0,17.852,17.852,0,0,0,0,17.862Z" transform="matrix(0.883, -0.469, 0.469, 0.883, 880.221, 7011.88)" fill="none" stroke="rgba(96,118,250,0.56)" stroke-linecap="round" stroke-miterlimit="10" stroke-width="4" opacity="0.2"/><path d="M537.24,294.784c0,6.972,6.038,12.614,13.5,12.614s13.5-5.642,13.5-12.614-6.038-12.614-13.5-12.614S537.24,287.812,537.24,294.784Z" transform="translate(1623.418 7521.604) rotate(131)" fill="none" stroke="rgba(96,118,250,0.56)" stroke-linecap="round" stroke-miterlimit="10" stroke-width="4" opacity="0.2"/><path d="M537.24,298.784a16.614,16.614,0,1,0,16.614-16.614A16.6,16.6,0,0,0,537.24,298.784Z" transform="matrix(0.999, -0.035, 0.035, 0.999, 260.872, 6973.1)" fill="none" stroke="rgba(96,118,250,0.56)" stroke-linecap="round" stroke-miterlimit="10" stroke-width="3" opacity="0.2"/><path d="M537.24,308.665a26.495,26.495,0,1,0,26.495-26.495A26.48,26.48,0,0,0,537.24,308.665Z" transform="matrix(0.208, 0.978, -0.978, 0.208, 1166.137, 6494.096)" fill="none" stroke="rgba(96,118,250,0.56)" stroke-linecap="round" stroke-miterlimit="10" stroke-width="3" opacity="0.2"/><path d="M537.24,288.056a5.886,5.886,0,1,0,5.886-5.886A5.882,5.882,0,0,0,537.24,288.056Z" transform="matrix(0.999, -0.035, 0.035, 0.999, 511.239, 7041.056)" fill="none" stroke="rgba(96,118,250,0.56)" stroke-linecap="round" stroke-miterlimit="10" stroke-width="3" opacity="0.2"/></g></svg>