<svg xmlns="http://www.w3.org/2000/svg" width="616" height="1302.455" viewBox="0 0 616 1302.455"><g transform="translate(-1075.5 -1038.045)"><path d="M537.24,305.4a23.228,23.228,0,1,0,23.228-23.228A23.215,23.215,0,0,0,537.24,305.4Z" transform="translate(1106.305 2010.375)" fill="none" stroke="rgba(96,118,250,0.56)" stroke-linecap="round" stroke-miterlimit="10" stroke-width="3" opacity="0.19"/><path d="M537.24,319.011a36.841,36.841,0,1,0,36.841-36.841A36.82,36.82,0,0,0,537.24,319.011Z" transform="translate(541.76 1140.375)" fill="none" stroke="rgba(96,118,250,0.56)" stroke-linecap="round" stroke-miterlimit="10" stroke-width="7" opacity="0.19"/><path d="M537.24,300.591a18.421,18.421,0,1,0,18.42-18.421A18.41,18.41,0,0,0,537.24,300.591Z" transform="translate(935.919 826.83)" fill="none" stroke="rgba(96,118,250,0.56)" stroke-linecap="round" stroke-miterlimit="10" stroke-width="7" opacity="0.19"/><path d="M537.24,305.67a23.5,23.5,0,1,0,23.5-23.5A23.487,23.487,0,0,0,537.24,305.67Z" transform="translate(1029.76 1278.375)" fill="none" stroke="rgba(96,118,250,0.56)" stroke-linecap="round" stroke-miterlimit="10" stroke-width="4" opacity="0.19"/><path d="M537.24,306.011a23.841,23.841,0,1,0,23.841-23.841A23.828,23.828,0,0,0,537.24,306.011Z" transform="translate(576.76 1489.375)" fill="none" stroke="rgba(96,118,250,0.56)" stroke-linecap="round" stroke-miterlimit="10" stroke-width="3" opacity="0.19"/><path d="M537.24,301.511a19.341,19.341,0,1,0,19.341-19.341A19.33,19.33,0,0,0,537.24,301.511Z" transform="translate(610.077 757.375)" fill="none" stroke="rgba(96,118,250,0.56)" stroke-linecap="round" stroke-miterlimit="10" stroke-width="3" opacity="0.19"/><path d="M537.24,301.511a19.341,19.341,0,1,0,19.341-19.341A19.33,19.33,0,0,0,537.24,301.511Z" transform="translate(836.76 1583.375)" fill="none" stroke="rgba(96,118,250,0.56)" stroke-linecap="round" stroke-miterlimit="10" stroke-width="5" opacity="0.19"/><path d="M537.24,296.673a14.5,14.5,0,1,0,14.5-14.5A14.494,14.494,0,0,0,537.24,296.673Z" transform="translate(746.077 919.825)" fill="none" stroke="rgba(96,118,250,0.56)" stroke-linecap="round" stroke-miterlimit="10" stroke-width="3" opacity="0.19"/><path d="M537.24,292.17a10,10,0,1,0,10-10A9.994,9.994,0,0,0,537.24,292.17Z" transform="translate(772.76 1751.375)" fill="none" stroke="rgba(96,118,250,0.56)" stroke-linecap="round" stroke-miterlimit="10" stroke-width="3" opacity="0.5"/><path d="M537.24,295.4a13.228,13.228,0,1,0,13.228-13.228A13.22,13.22,0,0,0,537.24,295.4Z" transform="translate(866.305 1901.375)" fill="none" stroke="rgba(96,118,250,0.56)" stroke-linecap="round" stroke-miterlimit="10" stroke-width="3" opacity="0.19"/></g></svg>