<svg xmlns="http://www.w3.org/2000/svg" width="196" height="196" viewBox="0 0 196 196"><g transform="translate(-863 -3327)"><circle cx="98" cy="98" r="98" transform="translate(863 3327)" fill="#67e69a"/><path d="M0,75.741,11.582,19.612,29.4,37.431V12.93L42.331,0l33.4,33.4L79.293,8.921,134.94,64.568a98.136,98.136,0,0,1-68.617,77.5Z" transform="translate(920.606 3376.519)" fill="#42d298"/><g transform="translate(908.406 3375.245)"><g transform="translate(0 0)"><path d="M186.828,101.433a11.953,11.953,0,0,0-8.938-4.02H172.3v8.316h5.588a3.629,3.629,0,0,1,3.6,4.064l-3.577,29.657a3.632,3.632,0,0,1-3.6,3.195H148.8a3.632,3.632,0,0,1-3.6-3.195l-3.577-29.657a3.629,3.629,0,0,1,3.6-4.064h5.588V97.413h-5.588a11.945,11.945,0,0,0-11.859,13.376l3.577,29.657A11.954,11.954,0,0,0,148.8,150.961h8.6v12.974a20.446,20.446,0,0,1-40.893,0V131.756h-8.316v32.179a28.763,28.763,0,0,0,57.525,0V150.96h8.6a11.954,11.954,0,0,0,11.859-10.515l3.577-29.657A11.954,11.954,0,0,0,186.828,101.433Z" transform="translate(-96.314 -92.528)" fill="#fff"/><g transform="translate(48.171)"><path d="M249.633,83.811h9.26v17.131h-9.26Z" transform="translate(-249.633 -83.811)" fill="#f36c6c"/></g><g transform="translate(75.894)"><path d="M345.439,83.811h9.26v17.131h-9.26Z" transform="translate(-345.439 -83.811)" fill="#f36c6c"/></g><circle cx="13.654" cy="13.654" r="13.654" transform="translate(0 16.685)" fill="#f36c6c"/></g></g></g></svg>