<svg xmlns="http://www.w3.org/2000/svg" xmlns:xlink="http://www.w3.org/1999/xlink" width="196" height="196.32" viewBox="0 0 196 196.32"><defs><linearGradient id="a" x1="0.5" x2="0.5" y2="1.683" gradientUnits="objectBoundingBox"><stop offset="0" stop-color="#81d3e4"/><stop offset="1" stop-color="#6076fa"/></linearGradient></defs><g transform="translate(-429 -3327)"><ellipse cx="98" cy="98" rx="98" ry="98" transform="translate(429 3327)" fill="#f36c6c"/><g transform="translate(480 3365.994)"><path d="M38.622,151.869,0,113.247,55.4,0,70.59,15.19H95.334l48.9,48.9a98.3,98.3,0,0,1-97.766,88.09Q42.5,152.177,38.622,151.869Z" transform="translate(0.05 5.149)" fill="#e14b4b"/><g transform="translate(0 0)"><path d="M3.157,0H16.575a3.157,3.157,0,0,1,3.157,3.157V19.733H0V3.157A3.157,3.157,0,0,1,3.157,0Z" transform="translate(36.487)" fill="#fff"/><path d="M8,0H84a8,8,0,0,1,8,8V98a0,0,0,0,1,0,0H0a0,0,0,0,1,0,0V8A8,8,0,0,1,8,0Z" transform="translate(0 19.005)" fill="url(#a)"/><path d="M90.475,135.034Z" transform="translate(2.052 -18.645)" fill="#9bc9ff"/><g transform="translate(40.353 4.013)"><path d="M37.027,5H33.013V9.013H29v4.013h4.013V17.04h4.013V13.027H41.04V9.013H37.027Z" transform="translate(-29 -5)" fill="#f36c6c"/></g><path d="M32,47H48.054V75.094H32Z" transform="translate(14.373 41.295)" fill="#fff"/><path d="M24,47H40.054V75.094H24Z" transform="translate(6.319 41.295)" fill="#fff"/><path d="M31,62.254Z" transform="translate(13.366 38.081)" fill="#6d6e71"/><path d="M31,72.8Z" transform="translate(13.366 45.599)" fill="#6d6e71"/><rect width="44" height="8" rx="4" transform="translate(24 81.005)" fill="#6076fa"/><rect width="60" height="3" rx="1.5" transform="translate(16 114.005)" fill="#6076fa"/><rect width="11" height="3" rx="1.5" transform="translate(48 104.005) rotate(90)" fill="#6076fa"/><rect width="15" height="3" rx="1.5" transform="translate(48 85.005) rotate(90)" fill="#6076fa"/><rect width="13" height="9" rx="4" transform="translate(8 29.005)" fill="#fcfcfe"/><rect width="13" height="9" rx="4" transform="translate(29 29.005)" fill="#fcfcfe"/><rect width="12" height="9" rx="4" transform="translate(50 29.005)" fill="#fcfcfe"/><rect width="13" height="9" rx="4" transform="translate(69 29.005)" fill="#fcfcfe"/><rect width="13" height="8" rx="4" transform="translate(8 46.005)" fill="#fcfcfe"/><rect width="13" height="8" rx="4" transform="translate(29 46.005)" fill="#fcfcfe"/><rect width="12" height="8" rx="4" transform="translate(50 46.005)" fill="#fcfcfe"/><rect width="13" height="8" rx="4" transform="translate(69 46.005)" fill="#fcfcfe"/><rect width="13" height="9" rx="4" transform="translate(8 61.005)" fill="#fcfcfe"/><rect width="13" height="9" rx="4" transform="translate(29 61.005)" fill="#fcfcfe"/><rect width="12" height="9" rx="4" transform="translate(50 61.005)" fill="#fcfcfe"/><rect width="13" height="9" rx="4" transform="translate(69 61.005)" fill="#fcfcfe"/></g></g></g></svg>