<svg xmlns="http://www.w3.org/2000/svg" width="997.938" height="904.717" viewBox="0 0 997.938 904.717">
  <g id="Group_6326" data-name="Group 6326" transform="translate(-858.062 -57.879)">
    <g id="Group_6100" data-name="Group 6100" transform="translate(1597.487 890.083)">
      <g id="Group_6119" data-name="Group 6119">
        <circle id="Ellipse_2432" data-name="Ellipse 2432" cx="25.637" cy="25.637" r="25.637" transform="translate(0 36.257) rotate(-45)" fill="#fff"/>
        <g id="Group_6095" data-name="Group 6095" transform="translate(18.845 18.912)">
          <path id="Subtraction_6" data-name="Subtraction 6" d="M14,27.994A14,14,0,0,1,4.1,4.1,14,14,0,0,1,23.894,23.894,13.9,13.9,0,0,1,14,27.994ZM14,7.068A6.928,6.928,0,1,0,20.924,14,6.936,6.936,0,0,0,14,7.068Z" transform="translate(3.418 3.352)" fill="#5bccef"/>
          <path id="Path_3847" data-name="Path 3847" d="M119.043,224.024l-1.22-4.975a.824.824,0,0,0-.807-.629h-4.027a.834.834,0,0,0-.807.629l-1.22,4.975,4.046-.2Z" transform="translate(-97.592 -218.42)" fill="#5bccef"/>
          <path id="Path_3848" data-name="Path 3848" d="M108.855,224.859l-4.384-2.657a.837.837,0,0,0-1.023.122l-1.258,1.258-.338.338-1.258,1.258a.837.837,0,0,0-.122,1.023l2.657,4.384,2.713-3Z" transform="translate(-96.942 -218.644)" fill="#5bccef"/>
          <path id="Path_3849" data-name="Path 3849" d="M102.324,232.69l-4.975,1.22a.824.824,0,0,0-.629.807v4.027a.834.834,0,0,0,.629.807l4.975,1.22-.2-4.046Z" transform="translate(-96.72 -219.294)" fill="#5bccef"/>
          <path id="Path_3850" data-name="Path 3850" d="M103.159,242.86l-2.657,4.384a.837.837,0,0,0,.122,1.023l1.258,1.258.338.338,1.258,1.258a.837.837,0,0,0,1.023.122l4.384-2.657-3-2.713Z" transform="translate(-96.944 -219.917)" fill="#5bccef"/>
          <path id="Path_3851" data-name="Path 3851" d="M110.99,249.58l1.22,4.975a.824.824,0,0,0,.807.629h4.027a.834.834,0,0,0,.807-.629l1.22-4.975-4.046.2Z" transform="translate(-97.594 -220.328)" fill="#5bccef"/>
          <path id="Path_3852" data-name="Path 3852" d="M121.16,248.546l4.384,2.657a.837.837,0,0,0,1.023-.122l1.258-1.258.338-.338,1.258-1.258a.837.837,0,0,0,.122-1.023l-2.657-4.384-2.713,3Z" transform="translate(-98.217 -219.914)" fill="#5bccef"/>
          <path id="Path_3853" data-name="Path 3853" d="M127.88,240.743l4.975-1.22a.824.824,0,0,0,.629-.807v-4.027a.834.834,0,0,0-.629-.807l-4.975-1.22.2,4.046Z" transform="translate(-98.628 -219.292)" fill="#5bccef"/>
          <path id="Path_3854" data-name="Path 3854" d="M126.846,230.555l2.657-4.384a.837.837,0,0,0-.122-1.023l-1.258-1.258-.338-.338-1.258-1.258a.837.837,0,0,0-1.023-.122l-4.384,2.657,3,2.713Z" transform="translate(-98.214 -218.642)" fill="#5bccef"/>
        </g>
      </g>
    </g>
    <circle id="Ellipse_2432-2" data-name="Ellipse 2432" cx="25.637" cy="25.637" r="25.637" transform="translate(1783.487 587.339) rotate(-45)" fill="#fff"/>
    <g id="Group_6102" data-name="Group 6102" transform="translate(858.062 143.399)">
      <g id="Group_3601" data-name="Group 3601">
        <g id="Group_3594" data-name="Group 3594">
          <g id="Group_3593" data-name="Group 3593">
            <path id="Path_2841" data-name="Path 2841" d="M662.023,650.092a45.969,45.969,0,0,0-53.127,10,46.736,46.736,0,0,0-8.1,11.864,45.976,45.976,0,0,0,21.866,61.224c.953.433,1.862.866,2.815,1.212a45.448,45.448,0,0,0,13.119,3.031,45.964,45.964,0,0,0,23.424-87.333ZM673.5,706.38A34.36,34.36,0,0,1,629.766,723.7c-.693-.26-1.429-.606-2.122-.909A34.466,34.466,0,1,1,673.5,706.38Z" transform="translate(-596.37 -645.657)" fill="#fff"/>
          </g>
        </g>
        <g id="Group_3596" data-name="Group 3596" transform="translate(0.043 14.437)">
          <g id="Group_3595" data-name="Group 3595">
            <path id="Path_2842" data-name="Path 2842" d="M611.9,726.541l-10.175,5.326A45.991,45.991,0,0,1,609,679l8.357,7.88a34.505,34.505,0,0,0-5.456,39.661Z" transform="translate(-596.469 -679)" fill="#60cbfa"/>
          </g>
        </g>
        <g id="Group_3598" data-name="Group 3598" transform="translate(5.296 61.978)">
          <g id="Group_3597" data-name="Group 3597">
            <path id="Path_2843" data-name="Path 2843" d="M636.657,804.864l-4.2,10.695c-.953-.39-1.905-.779-2.815-1.212a45.638,45.638,0,0,1-21.043-20.22l10.175-5.326a34.207,34.207,0,0,0,15.8,15.154C635.272,804.257,635.965,804.6,636.657,804.864Z" transform="translate(-608.6 -788.8)" fill="#e14b4b"/>
          </g>
        </g>
      </g>
    </g>
    <g id="Group_6099" data-name="Group 6099" transform="translate(1721.419 210.768)">
      <ellipse id="Ellipse_2431" data-name="Ellipse 2431" cx="25.637" cy="25.637" rx="25.637" ry="25.637" transform="translate(0 49.937) rotate(-76.874)" fill="#fff"/>
      <rect id="Rectangle_707" data-name="Rectangle 707" width="5.144" height="8.777" transform="translate(19.26 33.753)" fill="#81d3e4"/>
      <rect id="Rectangle_708" data-name="Rectangle 708" width="5.144" height="17.555" transform="translate(28.215 24.976)" fill="#67e69a"/>
      <rect id="Rectangle_709" data-name="Rectangle 709" width="5.144" height="22.69" transform="translate(37.171 19.832)" fill="#67e69a"/>
    </g>
    <g id="Group_6261" data-name="Group 6261" transform="translate(1016.419 284.768)">
      <ellipse id="Ellipse_2431-2" data-name="Ellipse 2431" cx="25.637" cy="25.637" rx="25.637" ry="25.637" transform="translate(0 49.937) rotate(-76.874)" fill="#fff"/>
      <rect id="Rectangle_707-2" data-name="Rectangle 707" width="5.144" height="8.777" transform="translate(19.26 33.753)" fill="#e14b4b"/>
      <rect id="Rectangle_708-2" data-name="Rectangle 708" width="5.144" height="17.555" transform="translate(28.215 24.976)" fill="#e14b4b"/>
      <rect id="Rectangle_709-2" data-name="Rectangle 709" width="5.144" height="22.69" transform="translate(37.171 19.832)" fill="#e14b4b"/>
    </g>
    <g id="Group_6101" data-name="Group 6101" transform="translate(1439.403 118.603)">
      <line id="Line_65" data-name="Line 65" x2="59.743" transform="translate(14.711 29.26)" fill="none" stroke="#fff" stroke-linecap="round" stroke-miterlimit="10" stroke-width="3"/>
      <path id="Union_8" data-name="Union 8" d="M60.528,50.5H4.478L0,0H89.6L84.544,50.5H72.11L70.624,63.676Z" fill="#fff"/>
      <path id="Path_3842" data-name="Path 3842" d="M89.18,288.88c-.516.169-63.15,0-63.15,0" transform="translate(-12.999 -277.09)" fill="#3badee" stroke="#3badee" stroke-linecap="round" stroke-miterlimit="10" stroke-width="3"/>
      <line id="Line_66" data-name="Line 66" x1="61.526" transform="translate(13.791 20.671)" fill="none" stroke="#3badee" stroke-linecap="round" stroke-miterlimit="10" stroke-width="3"/>
      <line id="Line_67" data-name="Line 67" x1="60.606" transform="translate(14.711 29.645)" fill="none" stroke="#3badee" stroke-linecap="round" stroke-miterlimit="10" stroke-width="3"/>
      <line id="Line_68" data-name="Line 68" x1="31.214" transform="translate(15.481 37.85)" fill="none" stroke="#3badee" stroke-linecap="round" stroke-miterlimit="10" stroke-width="3"/>
    </g>
    <g id="Group_6104" data-name="Group 6104" transform="translate(1112.5 57.879)">
      <circle id="Ellipse_2432-3" data-name="Ellipse 2432" cx="25.986" cy="25.986" r="25.986" transform="translate(0 36.75) rotate(-45)" fill="#fff"/>
      <g id="Group_6093" data-name="Group 6093" transform="translate(19.102 19.17)">
        <path id="Subtraction_3" data-name="Subtraction 3" d="M14.188,28.375A14.188,14.188,0,0,1,4.156,4.156,14.187,14.187,0,0,1,24.219,24.22,14.093,14.093,0,0,1,14.188,28.375Zm0-21.21a7.022,7.022,0,1,0,7.023,7.023A7.03,7.03,0,0,0,14.188,7.165Z" transform="translate(3.463 3.397)" fill="#42d298"/>
        <path id="Path_3847-2" data-name="Path 3847" d="M119.153,224.1l-1.237-5.043a.835.835,0,0,0-.818-.638h-4.082a.846.846,0,0,0-.818.638L110.96,224.1l4.1-.2Z" transform="translate(-97.41 -218.42)" fill="#42d298"/>
        <path id="Path_3848-2" data-name="Path 3848" d="M108.971,224.9l-4.444-2.693a.849.849,0,0,0-1.037.124l-1.275,1.275-.343.343L100.6,225.22a.849.849,0,0,0-.124,1.037l2.693,4.444,2.75-3.045Z" transform="translate(-96.896 -218.597)" fill="#42d298"/>
        <path id="Path_3849-2" data-name="Path 3849" d="M102.4,232.69l-5.043,1.237a.835.835,0,0,0-.638.818v4.082a.846.846,0,0,0,.638.818l5.043,1.237-.2-4.1Z" transform="translate(-96.72 -219.112)" fill="#42d298"/>
        <path id="Path_3850-2" data-name="Path 3850" d="M103.2,242.86,100.5,247.3a.849.849,0,0,0,.124,1.037l1.275,1.275.343.343,1.275,1.275a.849.849,0,0,0,1.037.124L109,248.664l-3.045-2.75Z" transform="translate(-96.897 -219.605)" fill="#42d298"/>
        <path id="Path_3851-2" data-name="Path 3851" d="M110.99,249.58l1.237,5.043a.835.835,0,0,0,.818.638h4.082a.846.846,0,0,0,.818-.638l1.237-5.043-4.1.2Z" transform="translate(-97.412 -219.93)" fill="#42d298"/>
        <path id="Path_3852-2" data-name="Path 3852" d="M121.16,248.624l4.444,2.693a.849.849,0,0,0,1.037-.124l1.275-1.275.343-.343,1.275-1.275a.849.849,0,0,0,.124-1.037l-2.693-4.444-2.75,3.045Z" transform="translate(-97.905 -219.603)" fill="#42d298"/>
        <path id="Path_3853-2" data-name="Path 3853" d="M127.88,240.853l5.043-1.237a.835.835,0,0,0,.638-.818v-4.082a.846.846,0,0,0-.638-.818l-5.043-1.237.2,4.1Z" transform="translate(-98.23 -219.11)" fill="#42d298"/>
        <path id="Path_3854-2" data-name="Path 3854" d="M126.924,230.671l2.693-4.444a.849.849,0,0,0-.124-1.037l-1.275-1.275-.343-.343L126.6,222.3a.849.849,0,0,0-1.037-.124l-4.444,2.693,3.045,2.75Z" transform="translate(-97.903 -218.596)" fill="#42d298"/>
      </g>
    </g>
  </g>
</svg>
