<svg xmlns="http://www.w3.org/2000/svg" xmlns:xlink="http://www.w3.org/1999/xlink" width="905.287" height="643.186" viewBox="0 0 905.287 643.186">
  <defs>
    <filter id="Path_2744" x="485.486" y="226.641" width="233.409" height="345.075" filterUnits="userSpaceOnUse">
      <feOffset dy="3" input="SourceAlpha"/>
      <feGaussianBlur stdDeviation="3" result="blur"/>
      <feFlood flood-opacity="0.161"/>
      <feComposite operator="in" in2="blur"/>
      <feComposite in="SourceGraphic"/>
    </filter>
    <linearGradient id="linear-gradient" x1="0.5" x2="0.5" y2="1" gradientUnits="objectBoundingBox">
      <stop offset="0" stop-color="#38a0db"/>
      <stop offset="1" stop-color="#6a9ca7"/>
    </linearGradient>
    <linearGradient id="linear-gradient-3" x1="0.5" x2="0.5" y2="1" gradientUnits="objectBoundingBox">
      <stop offset="0" stop-color="#37c3e1"/>
      <stop offset="1" stop-color="#81d3e4"/>
    </linearGradient>
    <linearGradient id="linear-gradient-4" x1="0.5" x2="0.5" y2="1" gradientUnits="objectBoundingBox">
      <stop offset="0" stop-color="#65c3d6"/>
      <stop offset="1" stop-color="#81d3e4"/>
    </linearGradient>
    <linearGradient id="linear-gradient-5" x1="0.5" x2="0.5" y2="1" gradientUnits="objectBoundingBox">
      <stop offset="0" stop-color="#81d3e4"/>
      <stop offset="1" stop-color="#81d3e4"/>
    </linearGradient>
  </defs>
  <g id="Group_6327" data-name="Group 6327" transform="translate(-842 -197)">
    <ellipse id="Ellipse_2451" data-name="Ellipse 2451" cx="452.644" cy="9.169" rx="452.644" ry="9.169" transform="translate(842 821.848)" fill="rgba(82,150,164,0.3)"/>
    <g id="Group_3604" data-name="Group 3604" transform="translate(883.835 197)">
      <g id="Group_3465" data-name="Group 3465" transform="translate(404.633 224.891)">
        <rect id="Rectangle_610" data-name="Rectangle 610" width="2.901" height="303.174" fill="#f3f3f3"/>
      </g>
      <rect id="Rectangle_611" data-name="Rectangle 611" width="31.131" height="7.924" transform="translate(406.062 187.525)" fill="#fff"/>
      <rect id="Rectangle_612" data-name="Rectangle 612" width="24.94" height="7.924" transform="translate(406.062 202.116)" fill="#fff"/>
      <rect id="Rectangle_613" data-name="Rectangle 613" width="32.69" height="10.521" transform="translate(407.49 545.99)" fill="#fff"/>
      <g id="Group_3475" data-name="Group 3475" transform="translate(483.105)">
        <g id="Group_3468" data-name="Group 3468" transform="translate(0 71.139)">
          <g id="Group_3467" data-name="Group 3467">
            <g id="Group_3466" data-name="Group 3466">
              <path id="Path_2736" data-name="Path 2736" d="M1742,431.6s76.9,91.143,28.1,150.158c-48.754,59.016-62.176,1.169-62.176,1.169s-29.183,5.412,21.346-68.411C1753.124,479.7,1742,431.6,1742,431.6Z" transform="translate(-1699.537 -431.6)" fill="#5bccef"/>
            </g>
          </g>
        </g>
        <g id="Group_3471" data-name="Group 3471" transform="translate(54.847)">
          <g id="Group_3470" data-name="Group 3470">
            <g id="Group_3469" data-name="Group 3469">
              <path id="Path_2737" data-name="Path 2737" d="M1982.339,267.3s57.11,84.3-42.3,181.376c-99.412,97.118-92.051,155.008-92.051,155.008S1746.321,404.685,1982.339,267.3Z" transform="translate(-1826.211 -267.3)" fill="#67e69a"/>
            </g>
          </g>
        </g>
        <g id="Group_3474" data-name="Group 3474" transform="translate(42.501 103.31)">
          <g id="Group_3473" data-name="Group 3473">
            <g id="Group_3472" data-name="Group 3472">
              <path id="Path_2738" data-name="Path 2738" d="M1813.242,702.387c-41.7,3.767,6.668-109.025,71.875-138.468,65.164-29.443,120.326-26.931,158.428-58.02C2043.545,505.857,2018.692,683.812,1813.242,702.387Z" transform="translate(-1797.696 -505.9)" fill="#42d298"/>
            </g>
          </g>
        </g>
      </g>
      <g id="Group_3477" data-name="Group 3477" transform="translate(322.929 224.891)">
        <rect id="Rectangle_615" data-name="Rectangle 615" width="2.901" height="303.174" fill="#f3f3f3"/>
      </g>
      <g id="Group_3478" data-name="Group 3478" transform="translate(528.422 224.891)">
        <rect id="Rectangle_616" data-name="Rectangle 616" width="2.901" height="303.174" fill="#f3f3f3"/>
      </g>
      <rect id="Rectangle_619" data-name="Rectangle 619" width="57.76" height="7.924" transform="translate(322.193 187.525)" fill="#fff"/>
      <rect id="Rectangle_620" data-name="Rectangle 620" width="36.933" height="7.924" transform="translate(322.193 202.116)" fill="#fff"/>
      <rect id="Rectangle_621" data-name="Rectangle 621" width="35.808" height="7.924" transform="translate(531.28 187.525)" fill="#fff"/>
      <rect id="Rectangle_622" data-name="Rectangle 622" width="41.74" height="7.924" transform="translate(531.28 202.116)" fill="#fff"/>
      <rect id="Rectangle_625" data-name="Rectangle 625" width="32.69" height="10.521" transform="translate(324.401 545.99)" fill="#fff"/>
      <rect id="Rectangle_626" data-name="Rectangle 626" width="32.69" height="10.521" transform="translate(531.28 545.99)" fill="#fff"/>
      <g id="Group_3489" data-name="Group 3489" transform="translate(237.631 94.477)">
        <path id="Path_2740" data-name="Path 2740" d="M1158.536,963.079H1467.6a25.926,25.926,0,0,0,25.935-25.936V511.436A25.926,25.926,0,0,0,1467.6,485.5H1158.536a25.925,25.925,0,0,0-25.935,25.936V937.1A25.962,25.962,0,0,0,1158.536,963.079Z" transform="translate(-1132.6 -485.5)" fill="#5bccef"/>
      </g>
      <path id="Path_2741" data-name="Path 2741" d="M1500.086,355.1H1199.25a17.453,17.453,0,0,0-17.45,17.449V865.066h318.242V355.1Z" transform="translate(-922.866 -317.084)" fill="#fff"/>
      <rect id="Rectangle_635" data-name="Rectangle 635" width="93.827" height="11.864" transform="translate(453.733 137.385)" fill="#5bccef"/>
      <rect id="Rectangle_636" data-name="Rectangle 636" width="86.12" height="11.864" transform="translate(453.733 187.135)" fill="#5bccef"/>
      <rect id="Rectangle_637" data-name="Rectangle 637" width="74.516" height="11.864" transform="translate(453.733 162.282)" fill="#5bccef"/>
      <g id="Group_3490" data-name="Group 3490" transform="translate(279.111 65.683)">
        <path id="Path_2742" data-name="Path 2742" d="M1302.353,566.82a73.365,73.365,0,0,1-30.568-6.581,73.91,73.91,0,1,1,61.05,0A72.831,72.831,0,0,1,1302.353,566.82Zm0-143.923a70.025,70.025,0,0,0-28.923,133.792,70.2,70.2,0,0,0,57.847,0A70.025,70.025,0,0,0,1302.353,422.9Z" transform="translate(-1228.4 -419)" fill="#42d298"/>
      </g>
      <g id="Group_3494" data-name="Group 3494" transform="translate(279.154 243.249)">
        <g id="Group_3491" data-name="Group 3491">
          <rect id="Rectangle_638" data-name="Rectangle 638" width="107.813" height="10.565" fill="#67e69a"/>
        </g>
        <g id="Group_3492" data-name="Group 3492" transform="translate(0 28.49)">
          <rect id="Rectangle_639" data-name="Rectangle 639" width="107.813" height="10.565" fill="#e0e0e0"/>
        </g>
        <g id="Group_3493" data-name="Group 3493" transform="translate(0 56.937)">
          <rect id="Rectangle_640" data-name="Rectangle 640" width="107.813" height="10.565" fill="#e0e0e0"/>
        </g>
      </g>
      <g id="Group_3498" data-name="Group 3498" transform="translate(408.963 243.249)">
        <g id="Group_3495" data-name="Group 3495">
          <rect id="Rectangle_641" data-name="Rectangle 641" width="18.012" height="10.565" fill="#67e69a"/>
        </g>
        <g id="Group_3496" data-name="Group 3496" transform="translate(0 28.49)">
          <rect id="Rectangle_642" data-name="Rectangle 642" width="18.012" height="10.565" fill="#e0e0e0"/>
        </g>
        <g id="Group_3497" data-name="Group 3497" transform="translate(0 56.937)">
          <rect id="Rectangle_643" data-name="Rectangle 643" width="18.012" height="10.565" fill="#e0e0e0"/>
        </g>
      </g>
      <g transform="matrix(1, 0, 0, 1, -41.84, 0)" filter="url(#Path_2744)">
        <path id="Path_2744-2" data-name="Path 2744" d="M1812.265,1131.675H1661.544a32.347,32.347,0,0,1-32.344-32.344V836.944a32.347,32.347,0,0,1,32.344-32.344h150.721a32.347,32.347,0,0,1,32.344,32.344v262.387A32.347,32.347,0,0,1,1812.265,1131.675Z" transform="translate(-1134.71 -571.96)" fill="#fff"/>
      </g>
      <g id="Group_3504" data-name="Group 3504" transform="translate(574.406 257.869)">
        <g id="Group_3500" data-name="Group 3500" transform="translate(0.043)">
          <path id="Path_2745" data-name="Path 2745" d="M1978.956,886.262a35.3,35.3,0,0,0-34.249-23.381,36.753,36.753,0,0,0-10.825,2.035,35.224,35.224,0,0,0-21.3,45.073c.26.736.563,1.472.866,2.208a35.69,35.69,0,0,0,5.455,8.79,35.259,35.259,0,0,0,60.055-34.725Zm-24.334,36.76a26.44,26.44,0,0,1-29.053-7.75,27.639,27.639,0,0,1-4.113-6.581c-.217-.519-.433-1.082-.65-1.645a26.426,26.426,0,1,1,33.816,15.977Z" transform="translate(-1910.503 -862.866)" fill="#e0e0e0"/>
        </g>
        <g id="Group_3501" data-name="Group 3501" transform="translate(1.601 0.015)">
          <path id="Path_2746" data-name="Path 2746" d="M1922.543,890.265l-8.443-2.641a35.228,35.228,0,0,1,21.779-22.688A34.16,34.16,0,0,1,1946.7,862.9l.26,8.833a25.545,25.545,0,0,0-8.1,1.559A26.2,26.2,0,0,0,1922.543,890.265Z" transform="translate(-1914.1 -862.9)" fill="#e14b4b"/>
        </g>
        <g id="Group_3502" data-name="Group 3502" transform="translate(0 24.738)">
          <path id="Path_2747" data-name="Path 2747" d="M1921.442,941.086l-8.1,3.508c-.3-.736-.606-1.472-.866-2.208A35.129,35.129,0,0,1,1912,920l8.443,2.641a26.305,26.305,0,0,0,.346,16.8C1920.967,939.96,1921.226,940.523,1921.442,941.086Z" transform="translate(-1910.402 -920)" fill="#46bbed"/>
        </g>
        <g id="Group_3503" data-name="Group 3503" transform="translate(2.943 45.824)">
          <path id="Path_2748" data-name="Path 2748" d="M1922.656,981a34.442,34.442,0,0,1-5.456-8.789l8.1-3.507a26.36,26.36,0,0,0,4.113,6.581Z" transform="translate(-1917.2 -968.7)" fill="#46bbed"/>
        </g>
      </g>
      <g id="Group_3505" data-name="Group 3505" transform="translate(590.382 485.849)">
        <rect id="Rectangle_644" data-name="Rectangle 644" width="19.008" height="62.306" fill="#46bbed"/>
      </g>
      <g id="Group_3506" data-name="Group 3506" transform="translate(562.108 503.342)">
        <rect id="Rectangle_645" data-name="Rectangle 645" width="19.008" height="44.857" fill="#46bbed"/>
      </g>
      <g id="Group_3507" data-name="Group 3507" transform="translate(617.79 456.969)">
        <rect id="Rectangle_646" data-name="Rectangle 646" width="19.008" height="91.229" fill="#46bbed"/>
      </g>
      <g id="Group_3508" data-name="Group 3508" transform="translate(479.799 353.92)">
        <path id="Path_2749" data-name="Path 2749" d="M1693.546,1210.221l-1.646-1.256,30.958-40.311,38.233,2.078,28.837-45.9,31.045-3.2,18.661-36.933,1.862.953-19.181,37.929-31.175,3.2-28.967,46.07-38.319-2.078Z" transform="translate(-1691.9 -1084.7)" fill="#42d298"/>
      </g>
      <g id="Group_3538" data-name="Group 3538" transform="translate(283.634 242.305)">
        <path id="Path_2753" data-name="Path 2753" d="M1363.241,1305.5a104.724,104.724,0,0,0-47.542,0l12.557-64.3C1328.213,1241.2,1359.561,1274.409,1363.241,1305.5Z" transform="translate(-1282.424 -1061.824)" fill="#b3b7c4"/>
        <g id="Group_3511" data-name="Group 3511" transform="translate(143.557 132.83)">
          <g id="Group_3510" data-name="Group 3510">
            <g id="Group_3509" data-name="Group 3509">
              <path id="Path_2754" data-name="Path 2754" d="M1575.51,1133.7s4.806,3.42,6.235,3.031c1.429-.433,3.811.26,5.152.13s4.893-1.818,6.278-1.472c.563.129,3.81,2.424,5.023,2.6s3.68.217,3.55,1.256-2.381,1.6-2.381,1.6,1.083.217,1.212,1.169c.26,1.862-.693,2.511-.693,2.511s1,.952.909,1.732a2.938,2.938,0,0,1-1.169,2.338,2.977,2.977,0,0,1,.043,2.078,2.587,2.587,0,0,1-2.035,1.645s-.217,1.949-1.3,2.252a10.469,10.469,0,0,1-2.9-.13c-.866,0-8.573-2.684-13.162-6.668a44.6,44.6,0,0,0-9.872-6.322Z" transform="translate(-1570.4 -1133.7)" fill="#eea987"/>
            </g>
          </g>
        </g>
        <g id="Group_3512" data-name="Group 3512" transform="translate(32.11 0.051)">
          <path id="Path_2755" data-name="Path 2755" d="M1330.972,828.32s-7.187-4.59-13.639,3.593-4.157,16.064-2.771,23.381c1.343,7.274,7.88,23.944,5.109,31.3s.779,11.171.779,11.171,22.255,5.715,19.658-27.754C1337.467,836.547,1330.972,828.32,1330.972,828.32Z" transform="translate(-1313.006 -827.037)" fill="#f8bb66"/>
        </g>
        <g id="Group_3513" data-name="Group 3513" transform="translate(53.469 64.403)">
          <path id="Path_2756" data-name="Path 2756" d="M1368.511,975.809s8.487-1.169,14.159,3.117c5.672,4.244,9.569,12.254,11.3,14.765s22.039,24.94,23.078,25.329,13.639,7.361,22.169,13.033c8.53,5.629,21.909,12.426,21.909,12.426l-7.274,8.919s-35.851-12.816-43.3-19.787c-7.967-7.4-44.814-44.208-44.814-44.208S1356.475,981.914,1368.511,975.809Z" transform="translate(-1362.335 -975.664)" fill="#dbdff0"/>
        </g>
        <g id="Group_3514" data-name="Group 3514" transform="translate(103.527 356.781)">
          <path id="Path_2757" data-name="Path 2757" d="M1495.722,1670.487s9.179,12.34,7.924,14.289-10.911,2.251-16.756,0c-5.888-2.252-6.018-16.713-8.66-22.905-1.126-2.6,1.256-10.261,4.589-10.825a13.986,13.986,0,0,1,6.972,1.083S1486.327,1660.832,1495.722,1670.487Z" transform="translate(-1477.947 -1650.929)" fill="#1d3b54"/>
        </g>
        <g id="Group_3516" data-name="Group 3516" transform="translate(106.234 356.579)">
          <g id="Group_3515" data-name="Group 3515">
            <path id="Path_2758" data-name="Path 2758" d="M1493.38,1651.734a56.364,56.364,0,0,1,2.641,10.261c.606,4.157,6.538,12.99,6.235,14.115-.26,1.125-7.837,2.121-10.911-.736-3.074-2.9-5.066-11.258-5.715-16.281a42.106,42.106,0,0,0-1.429-6.971S1490.435,1648.66,1493.38,1651.734Z" transform="translate(-1484.2 -1650.462)" fill="#eea886"/>
          </g>
        </g>
        <g id="Group_3517" data-name="Group 3517" transform="translate(103.506 366.641)">
          <path id="Path_2759" data-name="Path 2759" d="M1477.9,1673.7v12.9h1.689v-10Z" transform="translate(-1477.9 -1673.7)" fill="#1d3b54"/>
        </g>
        <g id="Group_3518" data-name="Group 3518" transform="translate(23.382 356.745)">
          <path id="Path_2760" data-name="Path 2760" d="M1310.969,1670.613s8.833,12.123,7.577,14.072-10.911,2.251-16.756,0c-5.888-2.251-6.018-16.713-8.659-22.9-1.126-2.6,1.256-10.262,4.589-10.824s7.274,1.212,7.274,1.212S1301.573,1661,1310.969,1670.613Z" transform="translate(-1292.848 -1650.845)" fill="#1d3b54"/>
        </g>
        <g id="Group_3520" data-name="Group 3520" transform="translate(27.516 356.297)">
          <g id="Group_3519" data-name="Group 3519">
            <path id="Path_2761" data-name="Path 2761" d="M1310.408,1651.581a81.855,81.855,0,0,0,1.818,9.785c1.126,4.07,7.144,13.293,6.841,14.375s-7.837,2.122-10.911-.736c-3.074-2.9-5.455-11.214-5.715-16.28a27.789,27.789,0,0,1,.693-8.357S1307.464,1648.506,1310.408,1651.581Z" transform="translate(-1302.397 -1649.81)" fill="#eea886"/>
          </g>
        </g>
        <g id="Group_3521" data-name="Group 3521" transform="translate(23.404 366.641)">
          <path id="Path_2762" data-name="Path 2762" d="M1292.9,1673.7v12.9h1.689v-10Z" transform="translate(-1292.9 -1673.7)" fill="#1d3b54"/>
        </g>
        <g id="Group_3523" data-name="Group 3523" transform="translate(15.416 129.709)">
          <g id="Group_3522" data-name="Group 3522">
            <path id="Path_2763" data-name="Path 2763" d="M1338.727,1153.947s7.88,36.586,9.655,45.809,6.885,53.82,7.4,61.44c.563,7.577,8.226,36.154,7.837,38.882-.346,2.728,11.777,56.461,11.777,56.461s-12.513,3.421-14.635,1.126c-1.775-1.948-19.787-51.135-19.787-64.644,0-18.748-14.115-42.562-15.934-46.762-16.583-38.925-13.033-51.439-15.241-53.95-2.165-2.511-2.338,1.559-3.637,7.144-1.255,5.586-3.984,53.993-5.586,60.141-1.645,6.148-.346,26.932-1.255,37.41s-1.948,57.413-1.948,57.413-9.05,2.079-13.379.087c-1.256-.563-4.373-52.3-4.547-64.774s-.39-29.659-.736-35.028c-3.334-51.655-8.27-58.972,1.385-95.6C1298.762,1088.869,1338.727,1153.947,1338.727,1153.947Z" transform="translate(-1274.45 -1126.491)" fill="#2682b7"/>
          </g>
        </g>
        <g id="Group_3524" data-name="Group 3524" transform="translate(18.473 59.256)">
          <path id="Path_2764" data-name="Path 2764" d="M1322.337,964.219s8.227,3.9,11.041,4.46c2.858.563,13.9,14.938,15.847,20.177s0,13.119-3.984,22.342-.216,12.3-2.035,21.562-.086,30.872.26,36.025-41.956,11.647-58.236-4.719c0,0,8.833-16.583,10.176-18.835,1.385-2.3.216-14.722-1.04-17.882-1.255-3.2-9.612-30.352-9.612-30.352s-6.841-20.87-.65-25.633c5.369-4.156,19.96-5.629,22.6-6.538C1309.347,963.786,1317.011,963.4,1322.337,964.219Z" transform="translate(-1281.511 -963.775)" fill="#42d298"/>
        </g>
        <g id="Group_3525" data-name="Group 3525" transform="translate(61.707 56.755)">
          <path id="Path_2765" data-name="Path 2765" d="M1381.6,979.216l4.979-5.845L1382.245,958A103.549,103.549,0,0,0,1381.6,979.216Z" transform="translate(-1381.363 -958)" fill="#d6c5be"/>
        </g>
        <g id="Group_3526" data-name="Group 3526" transform="translate(43.711 38.972)">
          <path id="Path_2766" data-name="Path 2766" d="M1359.328,928.173s-1.646,15.068-1.3,19.96c0,0-8.53,8.53-18.228-9.959,0,0,4.07-7.62,1-18.055S1359.328,928.173,1359.328,928.173Z" transform="translate(-1339.8 -916.927)" fill="#eea886"/>
        </g>
        <g id="Group_3527" data-name="Group 3527" transform="translate(52.111 70.178)">
          <path id="Path_2767" data-name="Path 2767" d="M1369.029,989v7.794l-9.829-7.317Z" transform="translate(-1359.2 -989)" fill="#eea886"/>
        </g>
        <g id="Group_3528" data-name="Group 3528" transform="translate(39.685 59.267)">
          <path id="Path_2768" data-name="Path 2768" d="M1352.755,982.5l-4.07-5.023L1334.96,963.8l-4.46,4.243Z" transform="translate(-1330.5 -963.8)" fill="#d6c5be"/>
        </g>
        <g id="Group_3529" data-name="Group 3529" transform="translate(62.589 56.755)">
          <path id="Path_2769" data-name="Path 2769" d="M1387.73,973.371l6.278,1.732L1383.4,958Z" transform="translate(-1383.4 -958)" fill="#fae6de"/>
        </g>
        <g id="Group_3530" data-name="Group 3530" transform="translate(40.377 58.357)">
          <path id="Path_2770" data-name="Path 2770" d="M1349.593,976.292l-5.759,7.49-11.734-20,4.113-2.078Z" transform="translate(-1332.1 -961.7)" fill="#fae6de"/>
        </g>
        <g id="Group_3531" data-name="Group 3531" transform="translate(46.915 46.97)">
          <path id="Path_2771" data-name="Path 2771" d="M1363.177,941.938l-.3,3.031s-6.8,1.256-15.673-9.569C1347.243,935.4,1353.522,943.107,1363.177,941.938Z" transform="translate(-1347.2 -935.4)" fill="#a77860"/>
        </g>
        <g id="Group_3532" data-name="Group 3532" transform="translate(39.375 1.084)">
          <path id="Path_2772" data-name="Path 2772" d="M1351.57,882.064c2.684-.086,10.132-.953,13.812-18.142,4.5-21-5.456-31.867-13.942-33.9s-16.323.953-20.7,11.907c0,0-3.161,8.573,1.992,23.771C1337.888,880.981,1348.712,882.194,1351.57,882.064Z" transform="translate(-1329.784 -829.424)" fill="#eea987"/>
        </g>
        <g id="Group_3533" data-name="Group 3533" transform="translate(37.041 0)">
          <path id="Path_2773" data-name="Path 2773" d="M1341.717,842.239s11.431.693,22.039,16.67c0,0,4.979-19.181-8.01-27.927s-22.083-1.212-25.243,2.6c0,0-4.546,1.039-4.677,9.656s-5.931,21.649,6.8,27.8c0,0-1.212-9.829-.086-12.08C1333.62,856.657,1337.473,858.173,1341.717,842.239Z" transform="translate(-1324.396 -826.92)" fill="#f8bb66"/>
        </g>
        <g id="Group_3534" data-name="Group 3534" transform="translate(42.455 26.753)">
          <path id="Path_2774" data-name="Path 2774" d="M1340.19,890.133c-.563-1.472-2.165-2.078-2.987-.476-.866,1.6.173,7.794,2.468,8.486C1341.966,898.792,1341.36,893.164,1340.19,890.133Z" transform="translate(-1336.9 -888.707)" fill="#eea987"/>
        </g>
        <path id="Path_2775" data-name="Path 2775" d="M1294.62,966.5s12.9,15.414,14.246,47.844-10.175,136.043-9.439,148.642L1266,1146.837s.173-52.261,11.388-85.168c13.119-38.579-1.819-50.356-3.161-74.083,0,0,.606-17.362,10.305-18.964C1293.625,967.149,1294.62,966.5,1294.62,966.5Z" transform="translate(-1254.243 -906.064)" fill="#dbdff0"/>
        <path id="Path_2776" data-name="Path 2776" d="M1392,971.8s5.24.606,6.885,2.554,12.037,13.9,12.773,17.406,3.161,6.148-1.818,22.515c-4.46,14.678-3.334,31.131-2.424,37.713s16.929,95.516,16.063,97.811-7.534,7.707-7.534,7.707-14.332-87.766-14.2-102.4C1401.959,1040.514,1407.674,996.87,1392,971.8Z" transform="translate(-1325.687 -909.07)" fill="#dbdff0"/>
        <g id="Group_3535" data-name="Group 3535" transform="translate(127.883 101.612)">
          <path id="Path_2777" data-name="Path 2777" d="M1582.348,1069.047l-11.171,57.587-36.977-7.188,9.742-57.846Z" transform="translate(-1534.2 -1061.6)" fill="#616161"/>
          <path id="Path_2778" data-name="Path 2778" d="M1582.979,1076.625l-9.959,51.135-32.82-6.408,8.66-51.352Z" transform="translate(-1537.602 -1066.363)" fill="#e0cec7"/>
          <path id="Path_2779" data-name="Path 2779" d="M1596.869,1075.548l.736-3.55-13.292-2.6-1.212,3.507Z" transform="translate(-1561.927 -1066.023)" fill="#616161"/>
        </g>
        <g id="Group_3537" data-name="Group 3537" transform="translate(160.208 138.197)">
          <g id="Group_3536" data-name="Group 3536">
            <path id="Path_2780" data-name="Path 2780" d="M1620.523,1147.4s-6.625-2.165-8.573-.909.389,2.165.389,2.165-2.295-.953-3.2.779,1.905,2.641,1.905,2.641a1.891,1.891,0,0,0-2.165,1.775c-.26,2.035,2.252,2.251,2.252,2.251s-2.9,1.126-1.083,2.988c3.074,3.118,8.184,2.641,8.184,2.641s1.255-.3,1.342-2.295a2.751,2.751,0,0,0,2.079-3.81s2.468-2.684.043-4.113C1621.649,1151.553,1624.246,1148.479,1620.523,1147.4Z" transform="translate(-1608.857 -1146.095)" fill="#db9c7c"/>
          </g>
        </g>
        <path id="Path_2781" data-name="Path 2781" d="M1252.1,1225.4s-1.342,6.235,1.386,10.435c1.039,1.6.043,13.769-.044,15.328-.086,1.256-1.212,2.381-1.688,2.078-.476-.26-.563-7.014-1.3-9.179-.606-1.819-1.126-2.511-1.472-1.948s.779,10.348,1.429,13.6-.173,10.088-1.862,8.962-7.318-16.28-6.885-21.3a67.843,67.843,0,0,1,2.338-11.388Z" transform="translate(-1240.433 -1052.865)" fill="#eea886"/>
        <path id="Path_2782" data-name="Path 2782" d="M1277.275,968.567s-13.336-.823-20.047,6.971-6.322,17.06-8.054,21.086c-1.688,4.027-5.585,21.3-6.451,24.117s-1.689,18.532-2.9,31.218-.953,36.327-.953,36.327l12.773-2.295s.52-22.558.823-35.634c.346-13.076,10.954-36.154,14.981-46.286S1287.45,974.932,1277.275,968.567Z" transform="translate(-1238.846 -907.222)" fill="#dbdff0"/>
      </g>
      <g id="Group_3557" data-name="Group 3557" transform="translate(644.885 241.813)">
        <path id="Path_2787" data-name="Path 2787" d="M2196.741,1331.6a104.723,104.723,0,0,0-47.542,0l12.557-64.3C2161.713,1267.3,2193.062,1300.51,2196.741,1331.6Z" transform="translate(-2116.284 -1076.13)" fill="#b3b7c4"/>
        <g id="Group_3539" data-name="Group 3539" transform="translate(5.908 356.995)">
          <path id="Path_2788" data-name="Path 2788" d="M2103.657,1658.821s-9.742,16.54-13.855,19.224c-5.586,3.68-2.079,7.361.563,7.361s16.193.953,19.181-2.425,4.459-13.552,7.23-16.193,5.326-12.47-1.342-15.8C2108.117,1647.391,2103.657,1658.821,2103.657,1658.821Z" transform="translate(-2086.825 -1650.285)" fill="#2d2d30"/>
        </g>
        <g id="Group_3540" data-name="Group 3540" transform="translate(13.519 356.872)">
          <path id="Path_2789" data-name="Path 2789" d="M2117.3,1650s-10.608,20.74-12.513,23.641,3.637,2.857,7.058,1.515,12.383-15.111,13.336-17.8c.952-2.641.26-6.495.26-6.495Z" transform="translate(-2104.403 -1650)" fill="#eea886"/>
        </g>
        <g id="Group_3541" data-name="Group 3541" transform="translate(34.345 368.692)">
          <path id="Path_2790" data-name="Path 2790" d="M2156.44,1677.3l-2.554,19.831-1.386.086.433-14.288Z" transform="translate(-2152.5 -1677.3)" fill="#2d2d30"/>
        </g>
        <g id="Group_3542" data-name="Group 3542" transform="translate(100.015 337.55)">
          <path id="Path_2791" data-name="Path 2791" d="M2310.548,1617.249s-2.339,19.052-5.023,23.165c-3.68,5.585,1.039,7.577,3.464,6.538s15.24-5.586,16.626-9.872-1.3-14.2.174-17.752-.087-13.552-7.534-13.942C2310.071,1604.953,2310.548,1617.249,2310.548,1617.249Z" transform="translate(-2304.17 -1605.374)" fill="#2d2d30"/>
        </g>
        <g id="Group_3543" data-name="Group 3543" transform="translate(104.178 337.604)">
          <path id="Path_2792" data-name="Path 2792" d="M2315.87,1607.925s-1.428,23.251-2.035,26.672c-.606,3.377,4.459,1.169,7.058-1.429,2.6-2.641,5.282-18.792,5.109-21.606s-2.339-6.062-2.339-6.062Z" transform="translate(-2313.785 -1605.5)" fill="#eea886"/>
        </g>
        <g id="Group_3544" data-name="Group 3544" transform="translate(120.898 346.09)">
          <path id="Path_2793" data-name="Path 2793" d="M2353.4,1625.1l5.542,19.224-1.212.606-5.326-13.25Z" transform="translate(-2352.4 -1625.1)" fill="#2d2d30"/>
        </g>
        <g id="Group_3545" data-name="Group 3545" transform="translate(0 68.939)">
          <path id="Path_2794" data-name="Path 2794" d="M2087.26,1230a60.2,60.2,0,0,0-.086,7.447c.13,1.861-2.987,12.989-3.507,14.375-.433,1.169-1,.217-1.169-.693-.087-.52.39-4.547.3-6.8-.043-1.862-.39-2.685-.866-2.208a39.392,39.392,0,0,0-3.508,10.565c-.3,3.2-3.116,9.959-4.416,8.486s-1.083-15.241.693-19.917a64.237,64.237,0,0,1,5.325-10.045Z" transform="translate(-2073.179 -1123.919)" fill="#eea886"/>
          <path id="Path_2795" data-name="Path 2795" d="M2096.852,1093.765c.52-1.472,13.292-21.952,16.323-28.49s5.76-12.513,7.188-15.068c.087-.173.26-.476.476-.866,1-1.905,3.161-6.149,5.369-10.089.174-.26.3-.562.477-.823l.389-1.559c1.516-2.728.65-4.546.953-6.841a7.364,7.364,0,0,1,.692-2.251c0-.043.044-.043.044-.087a52.728,52.728,0,0,0,3.81-8.833c1.515-6.235,8.876-33.859,8.876-33.859s-11.864,4.2-13.725,8.443c-2.815,6.452-6.106,16.15-7.014,19.138s-9.266,27.884-11,32.906A68.593,68.593,0,0,1,2104.3,1058c-1.9,3.248-15.8,32.517-16.8,35.158C2087.457,1093.2,2096.333,1095.237,2096.852,1093.765Z" transform="translate(-2081.299 -985)" fill="#dbdff0"/>
        </g>
        <g id="Group_3546" data-name="Group 3546" transform="translate(24.711 161.287)">
          <path id="Path_2796" data-name="Path 2796" d="M2171.189,1241.763c-.476,2.338-3.594,12.167-7.058,23.078h0c-3.161,9.959-6.668,20.783-8.747,27.711-.778,2.6-1.385,4.633-1.688,5.846-1.992,8.183.26,21.043,1,31.824.736,10.737-3.378,65.25-3.378,65.25-2.728,1.256-20.264-1-20.264-1,1.992-3.81,2.641-72.394,1.516-76.551-1.083-4.2-1.819-15.847-.736-20.393a16.726,16.726,0,0,0,.346-3.637c.086-5.759-1.082-15.241-1.818-25.676-.909-13.119,4.2-45.723,4.936-48.667.087-.26.173-.649.3-1.126,1.342-4.589,5.672-17.579,5.672-17.579,8.746-2.6,15.371-3.074,20.307-2.078a15.057,15.057,0,0,1,11.907,10.218C2177.771,1220.85,2171.839,1238.689,2171.189,1241.763Z" transform="translate(-2130.251 -1198.285)" fill="url(#linear-gradient)"/>
        </g>
        <g id="Group_3547" data-name="Group 3547" transform="translate(55.517 152.176)">
          <path id="Path_2797" data-name="Path 2797" d="M2262.321,1362.628l-14.073,11.387c-1.515-7.274-33.772-64.9-35.981-70.576-2.208-5.629-4.546-16.583-4.546-20.61,0-.736-.043-1.905-.173-3.507-.39-6.062-1.515-17.536-3.118-26.455-.3-1.645-.606-3.247-.953-4.676-1.775-7.707-2.079-33.989-2.079-49.446,0-6.885.044-11.6.044-11.6s.173-.13.433-.346c3.333-2.511,24.637-17.839,32.085-3.507a43.206,43.206,0,0,1,4.026,12.08c2.382,12.99.042,27.624-1.862,40.96-1.646,11.387-4.806,27.494-5.716,39.488-.518,6.581-.3,11.907,1.169,14.5,4.2,7.274,8.271,13.466,16.757,39.185C2251.107,1337.861,2262.321,1362.628,2262.321,1362.628Z" transform="translate(-2201.4 -1177.243)" fill="url(#linear-gradient)"/>
        </g>
        <g id="Group_3548" data-name="Group 3548" transform="translate(50.023 0)">
          <path id="Path_2798" data-name="Path 2798" d="M2189.052,855.233s-4.633-30.006,20.22-29.443,24.507,15.371,24.074,30.092-9.958,13.6.779,34.076-9.309,20.48-9.309,20.48l-15.544-21.346Z" transform="translate(-2188.711 -825.782)" fill="#2d3133"/>
        </g>
        <g id="Group_3549" data-name="Group 3549" transform="translate(50.311 2.52)">
          <path id="Path_2799" data-name="Path 2799" d="M2206.922,831.948s-16.8,2.641-17.492,26.542c-.65,23.9,4.547,29.01,19.267,24.03s19.355-30.005,19.7-33.859C2228.7,844.808,2229.568,829.091,2206.922,831.948Z" transform="translate(-2189.377 -831.603)" fill="#eea886"/>
        </g>
        <g id="Group_3550" data-name="Group 3550" transform="translate(30.058 60.928)">
          <path id="Path_2800" data-name="Path 2800" d="M2209.929,991.57c.087,8.227-9.4,27.884-10.868,33.989-1.472,6.062-3.767,8.01-1.819,15.8s7.967,34.076,7.708,36.371-36.8,13.9-62.35,9.222c0,0,9.958-37.106,10.7-41.393s-.866-20.177-1.256-24.68c-.346-4.5-4.892-14.159-4.763-18.661.173-4.589,2.425-8.573,5.586-13.466.995-1.515,1.991-3.074,3.03-4.59,3.334-4.893,6.667-9.352,8.314-10.868a34.742,34.742,0,0,1,3.333-2.684h0a15.227,15.227,0,0,1,3.464-1.819l14.461-2.295s9.007,3.247,14.2,4.46C2199.667,971,2209.756,972.475,2209.929,991.57Z" transform="translate(-2142.6 -966.5)" fill="#e14b4b"/>
        </g>
        <g id="Group_3551" data-name="Group 3551" transform="translate(38.848 65.085)">
          <path id="Path_2801" data-name="Path 2801" d="M2179.05,976.1l-8.4,13.206-7.75,12.167c0-.087.52-1.905,1.386-7.274.173-1,.346-2.165.519-3.421a5.312,5.312,0,0,1,.259-1.125h0c3.378-7.621,13.6-13.379,13.986-13.552Z" transform="translate(-2162.9 -976.1)" fill="#e55353"/>
        </g>
        <g id="Group_3552" data-name="Group 3552" transform="translate(57.485 42.344)">
          <path id="Path_2802" data-name="Path 2802" d="M2227.532,923.934c-1.473,2.771-2.987,19.831-2.987,19.831s-20.567,7.794-18.445,3.377a16.5,16.5,0,0,0,1.255-6.8c0-1.775-.129-3.29-.216-4.156-.044-.433-.087-.693-.087-.693S2229,921.163,2227.532,923.934Z" transform="translate(-2205.946 -923.579)" fill="#eea886"/>
        </g>
        <g id="Group_3553" data-name="Group 3553" transform="translate(50.322 2.08)">
          <path id="Path_2803" data-name="Path 2803" d="M2200.052,848.518s8.616,14.072,16.5,19.571c7.837,5.542,3.854,9.958,3.854,9.958s20.479-43.168,1-46.156-31.434-3.2-32,26.022C2189.444,857.957,2198.276,848.3,2200.052,848.518Z" transform="translate(-2189.401 -830.587)" fill="#2d3133"/>
        </g>
        <g id="Group_3554" data-name="Group 3554" transform="translate(58.635 53.178)">
          <path id="Path_2804" data-name="Path 2804" d="M2220.334,948.6c-3.161,4.676-11.518,5.932-11.518,5.932h0c0-1.775-.129-3.29-.216-4.156C2213.969,951.371,2220.334,948.6,2220.334,948.6Z" transform="translate(-2208.6 -948.6)" fill="#a77860"/>
        </g>
        <path id="Path_2805" data-name="Path 2805" d="M2167.123,989.509h0a17.929,17.929,0,0,0-.822,4.633l3.031-4.59s5.412-7.75,7.274-9.785a28.97,28.97,0,0,1,4.417-3.767S2170.327,981.152,2167.123,989.509Z" transform="translate(-2125.98 -910.958)" fill="#dbdff0"/>
        <path id="Path_2806" data-name="Path 2806" d="M2254.916,1121.6a112.967,112.967,0,0,1-11.735,3.334c-5.628,1.213.174,7.967.174,7.967s9.786-.909,14.5-1.342C2260.111,1131.342,2254.916,1121.6,2254.916,1121.6Z" transform="translate(-2168.18 -993.516)" fill="#eea886"/>
        <path id="Path_2807" data-name="Path 2807" d="M2256.558,1001.644s13.206-5.2,17.1-5.5c0,0-2.642-21.216-15.631-18.965C2245.084,979.476,2256.558,1001.644,2256.558,1001.644Z" transform="translate(-2174.499 -911.533)" fill="#e55353"/>
        <path id="Path_2808" data-name="Path 2808" d="M2198.916,968.8s-9.7,14.895-6.408,16.193,21.043-1.732,28.577-15.89C2221.085,969.1,2209.784,963.3,2198.916,968.8Z" transform="translate(-2140.455 -905.533)" fill="#eea886"/>
        <path id="Path_2809" data-name="Path 2809" d="M2233.6,968.8s-10.262,17.06-11.647,49.49c-1.342,32.43,10.175,136.043,9.439,148.643l31.045-13.422s-11.691-84.692-15.587-100.885,8.4-37.41,9.742-61.137c0,0-.867-16.28-10.306-18.964C2236.9,969.882,2233.6,968.8,2233.6,968.8Z" transform="translate(-2157.478 -906.876)" fill="rgba(219,223,240,0.96)"/>
        <g id="Group_3555" data-name="Group 3555" transform="translate(55.319 65.704)">
          <path id="Path_2810" data-name="Path 2810" d="M2242.49,990.9s-2.338-15.674-13.812-13.076c-11.041,2.468-.692,23.035.131,25.459s8.963,22.3,9.7,24.9c2.252,8.226.13,8.443-3.247,10.348-9.959,5.715-30.4,5.369-32.777,6.928-2.338,1.559-2.208,6.495,1.732,6.668,5.152.216,34.638-2.555,38.751-2.944,3.984-.39,11.907-.736,9.829-14.895C2251.409,1024.711,2242.49,990.9,2242.49,990.9Z" transform="translate(-2200.942 -977.529)" fill="#eea886"/>
        </g>
        <path id="Path_2811" data-name="Path 2811" d="M2159.929,971.9s-10.911,18.142-11.517,39.618-20.567,113.052-18.488,159.944l-4.677-4.5a7.149,7.149,0,0,1-2.165-5.586c.822-13.466,4.373-64.9,13.163-93.091,10.175-32.6,1.645-54.253-.087-60.055s3.767-13.552,5.586-16.323C2143.605,989.089,2147.979,976.316,2159.929,971.9Z" transform="translate(-2101.467 -908.633)" fill="#dbdff0"/>
        <g id="Group_3556" data-name="Group 3556" transform="translate(43.61 102.018)">
          <path id="Path_2812" data-name="Path 2812" d="M2212.565,1061.4l9.179,57.933-37.15,5.889-10.7-57.673Z" transform="translate(-2173.9 -1061.4)" fill="#616161"/>
          <path id="Path_2813" data-name="Path 2813" d="M2214.436,1069.7l8.183,51.439-33.036,5.239-9.483-51.222Z" transform="translate(-2177.416 -1066.106)" fill="#e0cec7"/>
          <path id="Path_2814" data-name="Path 2814" d="M2218,1071.637l-.563-3.637-13.335,2.121.043,3.724Z" transform="translate(-2191.024 -1065.142)" fill="#616161"/>
        </g>
        <path id="Path_2815" data-name="Path 2815" d="M2203.373,1121.844s-6.148,1.039-6.711.953-2.988-4.07-5.8-4.763-6.322-1.255-7.188-1.818c-.866-.52-1.083,2.208,1.6,3.333s3.378,2.641-1.688,3.637c-2.814.563-13.25-.606-12.384,1.169.519,1.038,10.608,1.775,10.608,1.775s-10.868-.044-11.258.606c-.736,1.3,10.175,1.775,10.652,1.732,0,0-9.353.52-9.439,1.385-.087,1.04,9.353.607,9.266.78,0,0-7.447.52-7.36,1.126.086.823,6.625.953,7.923.779,1.256-.129,14.072-1.6,16.237-2.035s5.759-.693,5.759-.693Z" transform="translate(-2128.372 -990.426)" fill="#eea886"/>
        <path id="Path_2816" data-name="Path 2816" d="M2262.827,992.032s10.565,39.921,9.656,49.75-38.882,11.647-38.882,11.647v-10.348s19.874-4.417,23.6-8.963c1.948-2.381-11.041-32.733-11.041-32.733s-11.6-18.965-.606-23.814C2256.592,972.765,2261.354,986.274,2262.827,992.032Z" transform="translate(-2164.141 -911.273)" fill="#dbdff0"/>
      </g>
      <g id="Group_3591" data-name="Group 3591" transform="translate(12.729 254.748)">
        <g id="Group_3559" data-name="Group 3559" transform="translate(65.666 87.568)">
          <g id="Group_3558" data-name="Group 3558">
            <path id="Path_2817" data-name="Path 2817" d="M795.431,1146.315a40.543,40.543,0,0,1-12.167,3.68s-5.586-8.227-8.876-14.375c-7.794-14.678-10.132-21.519-9.439-27.148,1.212-10.132,21.086-50.572,21.086-50.572l22.082,8.53-16.93,30.049c-1.559,3.075-3.594,8.1-5.716,12.167-2.771,5.326.563,17.536,2.511,22.645C787.984,1131.291,791.577,1141.162,795.431,1146.315Z" transform="translate(-764.834 -1057.9)" fill="#eea886"/>
          </g>
        </g>
        <g id="Group_3561" data-name="Group 3561" transform="translate(0 333.697)">
          <g id="Group_3560" data-name="Group 3560">
            <path id="Path_2818" data-name="Path 2818" d="M640.377,1635.379s-.649,3.68,1.862,8.573,13.9,17.362,13.119,22.472-13.9,4.5-22.125-4.5-20.48-18.358-20.047-20.523,12.816-13.422,17.1-14.895C634.618,1624.987,640.377,1635.379,640.377,1635.379Z" transform="translate(-613.174 -1626.351)" fill="#353a3d"/>
          </g>
        </g>
        <g id="Group_3563" data-name="Group 3563" transform="translate(16.681 328.436)">
          <g id="Group_3562" data-name="Group 3562">
            <path id="Path_2819" data-name="Path 2819" d="M666.768,1623.682l-4.633,4.979-10.435-8.876,4.806-5.585Z" transform="translate(-651.7 -1614.2)" fill="#eea886"/>
          </g>
        </g>
        <g id="Group_3564" data-name="Group 3564" transform="translate(17.417 255.824)">
          <path id="Path_2820" data-name="Path 2820" d="M653.4,1519.111c5.109-5.758,46.2-47.8,46.2-47.8,20.956-24.16,29.14-24.81,29.14-24.81s5.282.13,12.47,1.083c1.039.13,4.417.086,5.456.3,13.336,2.165,13.726.65,8.833,11.561-8.01,17.969-88.458,69.84-88.458,69.84Z" transform="translate(-653.4 -1446.5)" fill="#81d3e4"/>
        </g>
        <g id="Group_3566" data-name="Group 3566" transform="translate(190.623 350.164)">
          <g id="Group_3565" data-name="Group 3565">
            <path id="Path_2821" data-name="Path 2821" d="M1067.922,1664.564a57.275,57.275,0,0,0,12.383,3.68c5.8.78,19.787-1.515,23.771,2.3s-4.589,14.851-17.493,16.5-29.4,4.373-31,2.641-2.944-17.146-1.6-21.823C1055.366,1663.221,1067.922,1664.564,1067.922,1664.564Z" transform="translate(-1053.431 -1664.383)" fill="#353a3d"/>
          </g>
        </g>
        <g id="Group_3568" data-name="Group 3568" transform="translate(189.095 343.503)">
          <g id="Group_3567" data-name="Group 3567">
            <path id="Path_2822" data-name="Path 2822" d="M1063.149,1649l2.771,6.841-13.9,3.334-2.121-7.318Z" transform="translate(-1049.9 -1649)" fill="#eea886"/>
          </g>
        </g>
        <g id="Group_3569" data-name="Group 3569" transform="translate(148.132 252.653)">
          <path id="Path_2823" data-name="Path 2823" d="M988.637,1443.732s-5.672-21.606,7.62,29.27c0,0,14.029,54.3,15.544,57.37.347.736-17.579,4.027-17.882,3.9-3.117-1.255-31.045-70.792-37.972-83.652C949.841,1439.316,988.637,1443.732,988.637,1443.732Z" transform="translate(-955.295 -1439.174)" fill="#81d3e4"/>
        </g>
        <g id="Group_3571" data-name="Group 3571" transform="translate(112.494 188.856)">
          <g id="Group_3570" data-name="Group 3570">
            <path id="Path_2824" data-name="Path 2824" d="M941.967,1360.186l-27.927,16.064s-11-13.509-18.272-19.008c-.736-.563-1.516-1.126-2.252-1.732-1.083-.823-2.165-1.646-3.2-2.468-.78-.606-1.559-1.212-2.338-1.862-5.326-4.244-10.3-8.53-13.033-11.69-7.924-9.136,9.4-66.853,31.261-41.09C906.2,1298.356,935.515,1325.893,941.967,1360.186Z" transform="translate(-872.986 -1291.831)" fill="url(#linear-gradient-3)"/>
          </g>
        </g>
        <g id="Group_3573" data-name="Group 3573" transform="translate(82.595 188.539)">
          <g id="Group_3572" data-name="Group 3572">
            <path id="Path_2825" data-name="Path 2825" d="M865.316,1291.1s-13.769,63.215-27.321,84.691c0,0-23.035-7.75-33.6-11.907,0,0-1.039-45.68,0-57.63C805.348,1295.17,865.316,1291.1,865.316,1291.1Z" transform="translate(-803.934 -1291.1)" fill="url(#linear-gradient-4)"/>
          </g>
        </g>
        <g id="Group_3575" data-name="Group 3575" transform="translate(80.282 61.069)">
          <g id="Group_3574" data-name="Group 3574">
            <path id="Path_2826" data-name="Path 2826" d="M798.595,1146.339s5.8-56.807,1-83.219c-3.2-17.579,1.429-46.069,11.95-61.483a33.533,33.533,0,0,1,3.983-4.936s21.259,5.629,23.381,7.1a44.176,44.176,0,0,1,5.5,5.8h0c6.062,7.4,14.981,20.87,15.847,33.9.649,9.482,1.169,18.185,1.732,27.191.173,2.728.346,5.5.563,8.313.476,6.754,1.039,13.855,1.689,21.649.39,4.33,3.291,18.142,5.239,30.828Z" transform="translate(-798.591 -996.7)" fill="url(#linear-gradient-5)"/>
          </g>
        </g>
        <path id="Path_2827" data-name="Path 2827" d="M913.242,1392.121c-1.082-.823-2.165-1.646-3.2-2.468-.779-.606-1.559-1.213-2.338-1.862,1.126-3.55,7.188-19.787,9.569-31.391C917.226,1356.4,919,1374.455,913.242,1392.121Z" transform="translate(-780.176 -1139.587)" fill="#6076fa"/>
        <path id="Path_2828" data-name="Path 2828" d="M927.292,1150.724s-12.383,18.792-14.591-27.624l14.029,19.311C926.9,1145.139,927.118,1147.91,927.292,1150.724Z" transform="translate(-783.011 -1007.302)" fill="#1d6f7d"/>
        <g id="Group_3577" data-name="Group 3577" transform="translate(96.671 40.034)">
          <g id="Group_3576" data-name="Group 3576">
            <path id="Path_2829" data-name="Path 2829" d="M836.987,969.153s2.208-12.3-.346-19.441c-2.6-7.144,21.173,12.037,21.173,12.037s0,1,.043,2.468c.043,1.169.087,2.641.216,4.156a30.6,30.6,0,0,0,1.342,7.923C860.93,980.367,836.987,969.153,836.987,969.153Z" transform="translate(-836.442 -948.118)" fill="#eea886"/>
          </g>
        </g>
        <g id="Group_3578" data-name="Group 3578" transform="translate(94.927 6.429)">
          <path id="Path_2830" data-name="Path 2830" d="M869.039,882.107s5.023,9.439,2.468,10.868c-2.078,1.212,2.381,10.435,2.944,11.95s-3.767,2.555-4.719,3.551c-.91.953-3.767,12.859-7.318,13.206-3.594.346-19.7-5.369-24.031-9.958-4.373-4.59-7.837-25.243-4.849-33.946S860.206,865.654,869.039,882.107Z" transform="translate(-832.415 -870.505)" fill="#eea886"/>
        </g>
        <g id="Group_3579" data-name="Group 3579" transform="translate(90.367 0)">
          <path id="Path_2831" data-name="Path 2831" d="M864.063,875.723s5.239-10.088-4.113-17.709c-9.352-7.577-26.758,5.5-28.707,5.975s-13.552,4.2-7.75,21.433c5.282,15.63,5.975,17.406,5.975,17.406s3.2-10.392,5.239-11.864c3.2-2.295,10.132-1.689,10.132-1.689s-3.247-8.833,1.948-10.045C851.983,878.1,858.824,873.731,864.063,875.723Z" transform="translate(-821.883 -855.657)" fill="#3b3b40"/>
        </g>
        <g id="Group_3580" data-name="Group 3580" transform="translate(100.047 24.282)">
          <path id="Path_2832" data-name="Path 2832" d="M852.06,916.052c-.433-1.212-1.905-6.408-6.365-3.377s2.684,12.86,3.464,12.989S855.827,926.227,852.06,916.052Z" transform="translate(-844.24 -911.739)" fill="#eea886"/>
        </g>
        <path id="Path_2833" data-name="Path 2833" d="M868.382,981.959C861.022,979.967,854.7,972,854.7,972c1.992,1.949,13.466,5.8,13.466,5.8C868.209,978.971,868.252,980.4,868.382,981.959Z" transform="translate(-750.124 -921.625)" fill="#a77860"/>
        <g id="Group_3581" data-name="Group 3581" transform="translate(148.827 119.175)">
          <path id="Path_2834" data-name="Path 2834" d="M1008.468,1138.867l-11.994,61.7L956.9,1192.86l10.435-61.96Z" transform="translate(-956.9 -1130.9)" fill="#616161"/>
          <path id="Path_2835" data-name="Path 2835" d="M1009.166,1147l-10.608,54.772-35.158-6.841,9.266-55.032Z" transform="translate(-960.586 -1136.003)" fill="#e0cec7"/>
          <path id="Path_2836" data-name="Path 2836" d="M1024.065,1145.881l.736-3.854-14.2-2.728-1.3,3.723Z" transform="translate(-986.612 -1135.663)" fill="#616161"/>
        </g>
        <g id="Group_3586" data-name="Group 3586" transform="translate(173.247 150.819)">
          <g id="Group_3585" data-name="Group 3585">
            <g id="Group_3584" data-name="Group 3584">
              <g id="Group_3583" data-name="Group 3583">
                <g id="Group_3582" data-name="Group 3582">
                  <path id="Path_2837" data-name="Path 2837" d="M1035.815,1223.6a8.658,8.658,0,0,1-2.641.692s-1.645-.217-2.858-.3a7.787,7.787,0,0,0-.909-.043,16.053,16.053,0,0,1-5.023-.043c-2.165-.476-11.084-4.936-11.084-4.936l1.039-5.5.26-5.282s12.946-4.416,15.025-4.2a2.927,2.927,0,0,1,.606.086c1.732.346,2.9,1.342,3.811,1.646.347.086,3.507,1.385,3.853,2.381a3.421,3.421,0,0,1-.433,3.248s.736,2.684-.043,4.416a4.883,4.883,0,0,1-.823,4.33S1037.071,1222.695,1035.815,1223.6Z" transform="translate(-1013.3 -1203.983)" fill="#eea886"/>
                </g>
              </g>
            </g>
          </g>
        </g>
        <g id="Group_3588" data-name="Group 3588" transform="translate(100.939 96.097)">
          <g id="Group_3587" data-name="Group 3587">
            <path id="Path_2838" data-name="Path 2838" d="M922.895,1135.316a40.838,40.838,0,0,1-4.287,11.994s-9.915-.39-16.8-1.429c-16.41-2.468-23.294-4.676-27.451-8.573-7.4-6.971-28.057-47.065-28.057-47.065l20-12.643,14.072,31.478c1.515,3.117,4.33,7.707,6.365,11.82,2.641,5.412,14.418,10,19.7,11.474C906.4,1132.329,916.486,1135.316,922.895,1135.316Z" transform="translate(-846.3 -1077.6)" fill="#eea886"/>
          </g>
        </g>
        <g id="Group_3590" data-name="Group 3590" transform="translate(96.511 84.35)">
          <g id="Group_3589" data-name="Group 3589">
            <path id="Path_2839" data-name="Path 2839" d="M870.464,1079.319l-22.731,11.82s-4.5-8.7-5.845-11.561c-3.767-8.14-9.655-20.437-2.295-25.632,15.89-11.214,22.732,7.4,26.628,17.579A54.138,54.138,0,0,0,870.464,1079.319Z" transform="translate(-836.073 -1050.469)" fill="#78cddf"/>
          </g>
        </g>
      </g>
      <g id="Group_3592" data-name="Group 3592" transform="translate(312.538 99.11)">
        <path id="Union_10" data-name="Union 10" d="M30.873,81.011V50.1H0V30.873H30.873V0H50.139V30.873H81.011V50.1H50.139V81.011Z" fill="#67e69a"/>
      </g>
      <g id="Group_3488" data-name="Group 3488" transform="translate(467.784 263.937)">
        <g id="Group_3480" data-name="Group 3480" transform="translate(0 30.093)">
          <rect id="Rectangle_627" data-name="Rectangle 627" width="9.872" height="42.649" fill="#e0e0e0"/>
        </g>
        <g id="Group_3481" data-name="Group 3481" transform="translate(24.55 12.773)">
          <rect id="Rectangle_628" data-name="Rectangle 628" width="9.872" height="59.969" fill="#e0e0e0"/>
        </g>
        <g id="Group_3482" data-name="Group 3482" transform="translate(49.058 3.724)">
          <rect id="Rectangle_629" data-name="Rectangle 629" width="9.872" height="68.975" fill="#e0e0e0"/>
        </g>
        <g id="Group_3483" data-name="Group 3483" transform="translate(73.565)">
          <rect id="Rectangle_630" data-name="Rectangle 630" width="9.872" height="72.742" fill="#e0e0e0"/>
        </g>
        <g id="Group_3484" data-name="Group 3484" transform="translate(0 45.983)">
          <rect id="Rectangle_631" data-name="Rectangle 631" width="9.872" height="26.759" fill="#e14b4b"/>
        </g>
        <g id="Group_3485" data-name="Group 3485" transform="translate(24.55 35.115)">
          <rect id="Rectangle_632" data-name="Rectangle 632" width="9.872" height="37.627" fill="#e14b4b"/>
        </g>
        <g id="Group_3486" data-name="Group 3486" transform="translate(49.058 29.443)">
          <rect id="Rectangle_633" data-name="Rectangle 633" width="9.872" height="43.299" fill="#e14b4b"/>
        </g>
        <g id="Group_3487" data-name="Group 3487" transform="translate(73.565 27.105)">
          <rect id="Rectangle_634" data-name="Rectangle 634" width="9.872" height="45.637" fill="#e14b4b"/>
        </g>
      </g>
    </g>
  </g>
</svg>
