<svg xmlns="http://www.w3.org/2000/svg" width="446.999" height="1706.456" viewBox="0 0 446.999 1706.456"><g transform="translate(-686.501 -3987)"><path d="M537.24,294.784c0,6.972,6.038,12.614,13.5,12.614s13.5-5.642,13.5-12.614-6.038-12.614-13.5-12.614S537.24,287.812,537.24,294.784Z" transform="translate(395.76 4943.83)" fill="none" stroke="rgba(96,118,250,0.56)" stroke-linecap="round" stroke-miterlimit="10" stroke-width="4" opacity="0.2"/><path d="M537.24,298.784A16.6,16.6,0,0,0,553.854,315.4a16.775,16.775,0,0,0,9.69-3.112,16.616,16.616,0,1,0-26.3-13.5Z" transform="matrix(0.996, 0.087, -0.087, 0.996, 406.296, 4580.24)" fill="none" stroke="rgba(96,118,250,0.56)" stroke-linecap="round" stroke-miterlimit="10" stroke-width="3" opacity="0.2"/><path d="M537.24,298.784a16.614,16.614,0,1,0,16.614-16.614A16.6,16.6,0,0,0,537.24,298.784Z" transform="translate(206.533 4016.375)" fill="none" stroke="rgba(96,118,250,0.56)" stroke-linecap="round" stroke-miterlimit="10" stroke-width="3" opacity="0.2"/><path d="M537.24,293.67a11.5,11.5,0,1,0,11.5-11.5A11.494,11.494,0,0,0,537.24,293.67Z" transform="translate(150.761 4248.375)" fill="none" stroke="rgba(96,118,250,0.56)" stroke-linecap="round" stroke-miterlimit="10" stroke-width="3" opacity="0.2"/><path d="M537.24,298.784a16.614,16.614,0,1,0,16.614-16.614A16.6,16.6,0,0,0,537.24,298.784Z" transform="translate(444.76 4347.375)" fill="none" stroke="rgba(96,118,250,0.56)" stroke-linecap="round" stroke-miterlimit="10" stroke-width="3" opacity="0.2"/><path d="M537.24,292.17a10,10,0,1,0,10-10A9.994,9.994,0,0,0,537.24,292.17Z" transform="translate(442.76 3811.33)" fill="none" stroke="rgba(96,118,250,0.56)" stroke-linecap="round" stroke-miterlimit="10" stroke-width="3" opacity="0.2"/><path d="M537.24,292.17a10,10,0,1,0,10-10A9.994,9.994,0,0,0,537.24,292.17Z" transform="translate(540.76 3706.33)" fill="none" stroke="rgba(96,118,250,0.56)" stroke-linecap="round" stroke-miterlimit="10" stroke-width="3" opacity="0.2"/><path d="M537.24,293.67a11.5,11.5,0,1,0,11.5-11.5A11.494,11.494,0,0,0,537.24,293.67Z" transform="translate(571.76 4179.375)" fill="none" stroke="rgba(96,118,250,0.56)" stroke-linecap="round" stroke-miterlimit="10" stroke-width="3" opacity="0.2"/><path d="M537.24,294.784c0,6.972,6.038,12.614,13.5,12.614s13.5-5.642,13.5-12.614-6.038-12.614-13.5-12.614S537.24,287.812,537.24,294.784Z" transform="translate(246.76 4721.83)" fill="none" stroke="rgba(96,118,250,0.56)" stroke-linecap="round" stroke-miterlimit="10" stroke-width="4" opacity="0.2"/><path d="M537.24,298.784A16.6,16.6,0,0,0,553.854,315.4a16.775,16.775,0,0,0,9.69-3.112,16.616,16.616,0,1,0-26.3-13.5Z" transform="matrix(0.996, 0.087, -0.087, 0.996, 434.295, 5111.24)" fill="none" stroke="rgba(96,118,250,0.56)" stroke-linecap="round" stroke-miterlimit="10" stroke-width="3" opacity="0.2"/><path d="M537.24,300.6a18.432,18.432,0,1,0,18.432-18.432A18.422,18.422,0,0,0,537.24,300.6Z" transform="translate(483.896 5372.421)" fill="none" stroke="rgba(96,118,250,0.56)" stroke-linecap="round" stroke-miterlimit="10" stroke-width="4" opacity="0.2"/></g></svg>