<svg xmlns="http://www.w3.org/2000/svg" width="196" height="196" viewBox="0 0 196 196"><g transform="translate(-1307 -3327)"><circle cx="98" cy="98" r="98" transform="translate(1307 3327)" fill="#5bccef"/><path d="M0,26.307,31.008,0l77.055,77.055a97.944,97.944,0,0,1-21.658,35.657Z" transform="translate(1389.65 3379.78)" fill="#4daecc"/><g transform="translate(1356.891 3365.309)"><path d="M0,51.972,30.33.338,57.019,27.027h9.8L65.037,0H95.922l42.134,43.722a98.036,98.036,0,0,1-87.309,59Z" transform="translate(0 54.937)" fill="#4daecc"/><g transform="translate(0 0)"><path d="M58.982,55.909V47H48.291v3.341a5.357,5.357,0,0,1-10.691,0V47H26.909v8.909l-3.564-.557a5.022,5.022,0,1,0,0,10.023l3.564-.557v8.909H58.982V64.818l3.564.557a5.022,5.022,0,1,0,0-10.023Z" transform="translate(5.164 33.182)" fill="#fff"/><path d="M37.073,49.818v8.909H26.382V55.386a5.187,5.187,0,0,0-5.345-5.011,5.186,5.186,0,0,0-5.345,5.011v3.341H5V32H37.073v8.909l3.564-.557a5.022,5.022,0,1,1,0,10.023Z" transform="translate(-5 21.455)" fill="#fff"/><path d="M37.073,59.575V50.666H26.382V47.325a5.187,5.187,0,0,0-5.345-5.011,5.186,5.186,0,0,0-5.345,5.011v3.341H5V77.393H37.073V68.484l-3.564.557a5.022,5.022,0,1,1,0-10.023Z" transform="translate(-5 29.516)" fill="#f36c6c"/><path d="M41,59.575V50.666H51.691V47.325a5.357,5.357,0,0,1,10.691,0v3.341H73.073V77.393H41V68.484l3.564.557a5.022,5.022,0,1,0,0-10.023Z" transform="translate(23.145 29.516)" fill="#f36c6c"/><path d="M44.909,49.818v8.909H55.6V55.386a5.357,5.357,0,0,1,10.691,0v3.341H76.982V32H44.909v8.909l-3.564-.557a5.022,5.022,0,1,0,0,10.023Z" transform="translate(19.236 21.455)" fill="#fff"/><g transform="translate(17.794)"><path d="M26.564,18.485a5.1,5.1,0,1,1,0,10.182L23,28.1v8.626H33.691v3.818a5.352,5.352,0,0,0,10.691,0V36.727H55.073V28.1l-3.564.566a5.1,5.1,0,1,1,0-10.182l3.564.566V10H23v9.051Z" transform="translate(-8.745 4.255)" fill="#f36c6c"/><path d="M31,2h3.564v8.909H31Z" transform="translate(-2.491 -2)" fill="#f36c6c"/><path d="M0,0H3.564V8.139H0Z" transform="translate(2.616 5.724) rotate(-41.056)" fill="#f36c6c"/><path d="M0,0H8.139V3.563H0Z" transform="matrix(0.754, -0.657, 0.657, 0.754, 49.447, 9.348)" fill="#f36c6c"/><path d="M15,17h8.909v3.564H15Z" transform="translate(-15 9.727)" fill="#f36c6c"/><path d="M44,17h8.909v3.564H44Z" transform="translate(7.673 9.727)" fill="#f36c6c"/></g></g><text transform="translate(42.109 34.691)" fill="#fff" font-size="17" font-family="SegoeUI, Segoe UI"><tspan x="0" y="0">$</tspan></text></g></g></svg>