<svg xmlns="http://www.w3.org/2000/svg" xmlns:xlink="http://www.w3.org/1999/xlink" width="717.553" height="434.446" viewBox="0 0 717.553 434.446">
  <defs>
    <clipPath id="clip-path">
      <rect width="717.553" height="434.446" fill="none"/>
    </clipPath>
  </defs>
  <g id="Repeat_Grid_1" data-name="Repeat Grid 1" clip-path="url(#clip-path)">
    <g id="Group_6456" data-name="Group 6456" transform="translate(-882.554 -7429.869)">
      <ellipse id="Ellipse_2457" data-name="Ellipse 2457" cx="328.901" cy="7.365" rx="328.901" ry="7.365" transform="translate(888.15 7849.585)" fill="rgba(82,150,164,0.3)"/>
      <g id="Group_6454" data-name="Group 6454" transform="translate(1393.946 7541.192)">
        <path id="Path_4539" data-name="Path 4539" d="M1438.615,697.473H1282.327a22.359,22.359,0,0,1-22.357-22.358V518.828a22.359,22.359,0,0,1,22.357-22.358h156.288a22.359,22.359,0,0,1,22.358,22.358V675.115A22.361,22.361,0,0,1,1438.615,697.473Z" transform="translate(-1259.97 -454.959)" fill="#81d3e4" opacity="0.95"/>
        <path id="Path_4419" data-name="Path 4419" d="M1438.615,697.473H1282.327a22.359,22.359,0,0,1-22.357-22.358V518.828a22.359,22.359,0,0,1,22.357-22.358h156.288a22.359,22.359,0,0,1,22.358,22.358V675.115A22.361,22.361,0,0,1,1438.615,697.473Z" transform="translate(-1254.811 -460.118)" fill="#fff"/>
        <rect id="Rectangle_759" data-name="Rectangle 759" width="93.059" height="4.596" transform="translate(59.127 191.591)" fill="#60cbfa"/>
        <rect id="Rectangle_760" data-name="Rectangle 760" width="66.7" height="4.596" transform="translate(72.308 206.076)" fill="#60cbfa"/>
        <g id="Group_6337" data-name="Group 6337" transform="translate(97.837 169.135)">
          <rect id="Rectangle_766" data-name="Rectangle 766" width="15.643" height="2.896" fill="#60cbfa"/>
        </g>
        <g id="Group_6338" data-name="Group 6338" transform="translate(39.261 57.228)">
          <path id="Path_4427" data-name="Path 4427" d="M1462.743,551.254v2.831h16.683V569.74h2.831V551.25h-19.515Zm-113.283,18.49h2.832V554.089h16.683v-2.831H1349.46Zm129.963,80.784V666.19h-16.684v2.831h19.515V650.528Zm-127.131,0h-2.832v18.494h19.515V666.19h-16.683Z" transform="translate(-1349.46 -551.25)" fill="#60cbfa"/>
        </g>
        <g id="Group_6357" data-name="Group 6357" transform="translate(47.21)">
          <g id="Group_6342" data-name="Group 6342" transform="translate(37.151 0.119)">
            <path id="Path_4446" data-name="Path 4446" d="M1492.5,403.162s-9.855-6.322-18.741,4.916-5.689,22.042-3.834,32.132c1.841,10.007,10.8,32.9,6.993,42.989s1.059,15.338,1.059,15.338,30.559,7.823,27-38.138S1492.5,403.162,1492.5,403.162Z" transform="translate(-1467.809 -401.39)" fill="#f8bb66"/>
          </g>
          <g id="Group_6343" data-name="Group 6343" transform="translate(79.038 88.297)">
            <path id="Path_4447" data-name="Path 4447" d="M1579.139,648.248s8.948,23.711,17.4,45.809h22.929c-3.506-10.819-7.058-22.35-7.45-24.469-.747-4.116-1.09-16.314-5.785-24.869s-15.895-11.939-15.895-11.939C1571.868,633.611,1579.139,648.248,1579.139,648.248Z" transform="translate(-1577.728 -632.78)" fill="#dbdff0"/>
          </g>
          <g id="Group_6344" data-name="Group 6344" transform="translate(18.518 81.414)">
            <path id="Path_4448" data-name="Path 4448" d="M1423.359,660.22s3.571,11.627,7.023,22.659H1505.2c.316-.968.7-1.989,1.174-3.071,5.476-12.682,8.14-23.482,5.476-30.684s-17.842-26.927-21.763-27.708-15.182-6.1-15.182-6.1c-7.366-1.1-17.834-.553-21.44.7s-23.653,3.285-31.008,9C1413.989,631.594,1423.359,660.22,1423.359,660.22Z" transform="translate(-1418.913 -614.719)" fill="#42d298"/>
          </g>
          <g id="Group_6345" data-name="Group 6345" transform="translate(77.782 77.992)">
            <path id="Path_4449" data-name="Path 4449" d="M1574.758,634.877l6.852-8.022-5.948-21.115S1573.664,617.5,1574.758,634.877Z" transform="translate(-1574.431 -605.74)" fill="#d6c5be"/>
          </g>
          <g id="Group_6346" data-name="Group 6346" transform="translate(53.073 53.561)">
            <path id="Path_4450" data-name="Path 4450" d="M1536.406,557.059s-2.248,20.681-1.78,27.411c0,0-11.714,11.737-25.037-13.7,0,0,5.606-10.487,1.387-24.774S1536.406,557.059,1536.406,557.059Z" transform="translate(-1509.59 -541.628)" fill="#eea886"/>
          </g>
          <g id="Group_6347" data-name="Group 6347" transform="translate(64.631 96.402)">
            <path id="Path_4451" data-name="Path 4451" d="M1553.4,654.05v10.727L1539.92,654.7Z" transform="translate(-1539.92 -654.05)" fill="#eea886"/>
          </g>
          <g id="Group_6348" data-name="Group 6348" transform="translate(47.562 81.411)">
            <path id="Path_4452" data-name="Path 4452" d="M1525.677,640.429l-5.594-6.928-18.855-18.791-6.1,5.872Z" transform="translate(-1495.13 -614.71)" fill="#d6c5be"/>
          </g>
          <g id="Group_6349" data-name="Group 6349" transform="translate(15.106 83.209)">
            <path id="Path_4453" data-name="Path 4453" d="M1409.96,644.162s3.231,11.985,11.974,41.633h38.934c1.208-15.6,1.879-28.024,1.608-31.782-.758-10.571-16.584-34.583-16.584-34.583s-9.859,1.193-20.445,3.487C1413.371,625.535,1409.96,644.162,1409.96,644.162Z" transform="translate(-1409.96 -619.43)" fill="#dbdff0"/>
          </g>
          <g id="Group_6350" data-name="Group 6350" transform="translate(82.873 85.709)">
            <path id="Path_4454" data-name="Path 4454" d="M1587.79,625.99c9.646,11.543,13.072,36.9,13.616,63.865h8.658c10.045-21.016,7.355-30.551,7.355-30.551-5.247-17.964-20.852-30.73-20.852-30.73Z" transform="translate(-1587.79 -625.99)" fill="#42d298"/>
          </g>
          <g id="Group_6351" data-name="Group 6351" transform="translate(79.013 77.989)">
            <path id="Path_4455" data-name="Path 4455" d="M1583.608,626.849l8.632,2.385-14.58-23.5Z" transform="translate(-1577.66 -605.73)" fill="#fff"/>
          </g>
          <g id="Group_6352" data-name="Group 6352" transform="translate(48.523 81.411)">
            <path id="Path_4456" data-name="Path 4456" d="M1521.643,633.5l-7.884,10.331L1497.65,616.84l5.137-2.13Z" transform="translate(-1497.65 -614.71)" fill="#fff"/>
          </g>
          <g id="Group_6353" data-name="Group 6353" transform="translate(57.547 64.571)">
            <path id="Path_4457" data-name="Path 4457" d="M1543.211,579.49l-.415,4.074s-9.283,1.818-21.466-13.044C1521.33,570.524,1529.965,581.057,1543.211,579.49Z" transform="translate(-1521.33 -570.52)" fill="#a77860"/>
          </g>
          <g id="Group_6354" data-name="Group 6354" transform="translate(47.125 1.583)">
            <path id="Path_4458" data-name="Path 4458" d="M1523.92,477.491c3.666-.133,13.905-1.334,18.955-24.919,6.169-28.813-7.466-43.759-19.138-46.53s-22.442,1.288-28.421,16.348c0,0-4.371,11.741,2.721,32.662S1519.995,477.636,1523.92,477.491Z" transform="translate(-1493.984 -405.232)" fill="#eea987"/>
          </g>
          <g id="Group_6355" data-name="Group 6355" transform="translate(43.857)">
            <path id="Path_4459" data-name="Path 4459" d="M1509.245,422.163s15.678.976,30.254,22.868c0,0,6.822-26.344-11.009-38.367s-30.318-1.684-34.667,3.555c0,0-6.242,1.433-6.436,13.273s-8.155,29.7,9.31,38.172c0,0-1.665-13.513-.126-16.6S1503.449,444.06,1509.245,422.163Z" transform="translate(-1485.408 -401.077)" fill="#f8bb66"/>
          </g>
          <g id="Group_6356" data-name="Group 6356" transform="translate(51.334 36.758)">
            <path id="Path_4460" data-name="Path 4460" d="M1509.574,499.515c-.789-2.05-2.946-2.873-4.131-.678s.225,10.716,3.391,11.65S1511.175,503.668,1509.574,499.515Z" transform="translate(-1505.027 -497.535)" fill="#eea987"/>
          </g>
          <path id="Path_4461" data-name="Path 4461" d="M1370.32,687.481h25.49c2.679-6.566,5.171-12.385,6.837-16.569,5.518-13.89,27.487-40.005,13.49-48.717,0,0-18.345-1.124-27.541,9.576s-8.7,23.413-11.04,28.935C1375.823,664.8,1372.438,678.892,1370.32,687.481Z" transform="translate(-1370.32 -537.911)" fill="#dbdff0"/>
        </g>
      </g>
      <g id="Group_6452" data-name="Group 6452" transform="translate(882.554 7530.815)">
        <g id="Group_6455" data-name="Group 6455" transform="translate(0 0)">
          <path id="Path_4537" data-name="Path 4537" d="M2012.662,859.141h-123.8a14.659,14.659,0,0,1-14.66-14.659V694.07a14.659,14.659,0,0,1,14.66-14.66h123.8a14.659,14.659,0,0,1,14.66,14.66V844.482A14.658,14.658,0,0,1,2012.662,859.141Z" transform="translate(-1874.2 -661.116)" fill="#81d3e4" opacity="0.95"/>
          <path id="Path_4420" data-name="Path 4420" d="M2012.662,859.141h-123.8a14.659,14.659,0,0,1-14.66-14.659V694.07a14.659,14.659,0,0,1,14.66-14.66h123.8a14.659,14.659,0,0,1,14.66,14.66V844.482A14.658,14.658,0,0,1,2012.662,859.141Z" transform="translate(-1868.191 -667.125)" fill="#fff"/>
          <g id="Group_6329" data-name="Group 6329" transform="translate(75.435 118.314)">
            <rect id="Rectangle_761" data-name="Rectangle 761" width="12.144" height="2.248" fill="#60cbfa"/>
          </g>
          <g id="Group_6330" data-name="Group 6330" transform="translate(29.329 138.926)">
            <rect id="Rectangle_762" data-name="Rectangle 762" width="70.669" height="4.355" fill="#60cbfa"/>
            <rect id="Rectangle_763" data-name="Rectangle 763" width="57.147" height="4.355" transform="translate(0 20.906)" fill="#60cbfa"/>
            <rect id="Rectangle_764" data-name="Rectangle 764" width="33.502" height="4.355" transform="translate(0 10.453)" fill="#60cbfa"/>
          </g>
          <g id="Group_6331" data-name="Group 6331" transform="translate(30.544 30.208)">
            <path id="Path_4421" data-name="Path 4421" d="M2077.81,763.9v2.2h12.95v12.154h2.2V763.9Zm-87.94,14.354h2.2V766.1h12.949v-2.2H1989.87Zm100.89,62.713v12.159h-12.95v2.2h15.149V840.966Zm-98.69,0h-2.2v14.358h15.149v-2.2H1992.07Z" transform="translate(-1989.87 -763.9)" fill="#60cbfa"/>
          </g>
          <g id="Group_6334" data-name="Group 6334" transform="translate(113.826 138.604)">
            <g id="Group_6332" data-name="Group 6332">
              <path id="Path_4422" data-name="Path 4422" d="M2395.442,1300.824a12.952,12.952,0,1,1,12.953-12.952A12.966,12.966,0,0,1,2395.442,1300.824Zm0-23.395a10.445,10.445,0,1,0,10.445,10.445A10.457,10.457,0,0,0,2395.442,1277.429Z" transform="translate(-2382.49 -1274.92)" fill="#60cbfa"/>
            </g>
            <g id="Group_6333" data-name="Group 6333" transform="translate(6.243 8.741)">
              <path id="Path_4423" data-name="Path 4423" d="M2417.8,1325.44l-5.884-5.884,1.771-1.773,4.113,4.113,5.761-5.766,1.773,1.773Z" transform="translate(-2411.92 -1316.13)" fill="#60cbfa"/>
            </g>
          </g>
          <g id="Group_6442" data-name="Group 6442" transform="translate(34.154)">
            <g id="Group_6430" data-name="Group 6430" transform="translate(20.902)">
              <g id="Group_6429" data-name="Group 6429">
                <path id="Path_4516" data-name="Path 4516" d="M2130.667,621.532s11.991-1.256,16.31,10.322,8.387,15.37,8.9,21.453c2.06,24.6,13.55,19.037,10.318,33.22s-5.469,16.327-5.469,16.327l-27.469-5.386-27.825.089s10.886-5.437,8.463-17.016-8.463-30.558-5.053-43.484S2123.5,622.518,2130.667,621.532Z" transform="translate(-2105.43 -621.492)" fill="#0e2d3d"/>
              </g>
            </g>
            <g id="Group_6432" data-name="Group 6432" transform="translate(0 60.107)">
              <g id="Group_6431" data-name="Group 6431">
                <path id="Path_4517" data-name="Path 4517" d="M2101,945.474h-94.11c4.544-11.654,9-22.52,10.277-23.853,2.7-2.819,16-11.643,27.168-15.169s17.5-.117,17.5-.117,20.715,5.81,29.527,15.328C2093.825,924.322,2097.6,934.732,2101,945.474Z" transform="translate(-2006.89 -904.857)" fill="#e14b4b"/>
              </g>
            </g>
            <g id="Group_6434" data-name="Group 6434" transform="translate(36.674 47.095)">
              <g id="Group_6433" data-name="Group 6433">
                <path id="Path_4518" data-name="Path 4518" d="M2197.533,844.561s-.965,11.97,1.341,15.554-1.973,8.453-10.784,6.788-8.3-6.661-8.3-6.661,2.468-7.386,1.746-13.3S2197.533,844.561,2197.533,844.561Z" transform="translate(-2179.784 -843.517)" fill="#eea886"/>
              </g>
            </g>
            <g id="Group_6436" data-name="Group 6436" transform="translate(33.23 60.267)">
              <g id="Group_6435" data-name="Group 6435">
                <path id="Path_4519" data-name="Path 4519" d="M2190.472,908.619s-7.948,17.979-18.244,21.859c0,0-10.973-8.718-8.241-22.071C2163.987,908.406,2177.91,901.984,2190.472,908.619Z" transform="translate(-2163.55 -905.614)" fill="#eea886"/>
              </g>
            </g>
            <g id="Group_6438" data-name="Group 6438" transform="translate(28.801 6.683)">
              <g id="Group_6437" data-name="Group 6437">
                <path id="Path_4520" data-name="Path 4520" d="M2161.586,653.127s15.879,2.291,13.554,25.734-16.339,21.581-17.276,21.562-14.06.488-15.2-28.116C2142.671,672.3,2142.141,651.152,2161.586,653.127Z" transform="translate(-2142.666 -652.996)" fill="#eea886"/>
              </g>
            </g>
            <g id="Group_6440" data-name="Group 6440" transform="translate(27.226 2.976)">
              <g id="Group_6439" data-name="Group 6439">
                <path id="Path_4521" data-name="Path 4521" d="M2153.922,647.855s7.42,7.8,10.867,11.749,3.843,11.58,3.843,11.58,5.806-7.091,3.377-15.349-8.173-24.326-22.714-19.388-15.079,26.659-13.374,37.43C2135.92,673.878,2142.448,650.1,2153.922,647.855Z" transform="translate(-2135.244 -635.523)" fill="#0e2d3d"/>
              </g>
            </g>
            <g id="Group_6441" data-name="Group 6441" transform="translate(39.8 51.15)">
              <path id="Path_4522" data-name="Path 4522" d="M2194.521,864.6a13.313,13.313,0,0,0,13.672-1.969s-2.641,4.393-7.252,4.633S2194.521,864.6,2194.521,864.6Z" transform="translate(-2194.521 -862.63)" fill="#a77860"/>
            </g>
          </g>
        </g>
      </g>
      <g id="Group_6453" data-name="Group 6453" transform="translate(1123.401 7429.869)">
        <path id="Path_4538" data-name="Path 4538" d="M1986.431,452.568H1860.155a20.923,20.923,0,0,1-20.925-20.925V322.074a20.923,20.923,0,0,1,20.925-20.924h126.276a20.923,20.923,0,0,1,20.925,20.924V431.643A20.923,20.923,0,0,1,1986.431,452.568Z" transform="translate(-1839.23 -271.566)" fill="#81d3e4" opacity="0.95"/>
        <path id="Path_4425" data-name="Path 4425" d="M1986.431,452.568H1860.155a20.923,20.923,0,0,1-20.925-20.925V322.074a20.923,20.923,0,0,1,20.925-20.924h126.276a20.923,20.923,0,0,1,20.925,20.924V431.643A20.923,20.923,0,0,1,1986.431,452.568Z" transform="translate(-1836.17 -276.156)" fill="#fff"/>
        <g id="Group_6335" data-name="Group 6335" transform="translate(79.821 147.773)">
          <rect id="Rectangle_765" data-name="Rectangle 765" width="13.337" height="2.469" fill="#60cbfa"/>
        </g>
        <g id="Group_6336" data-name="Group 6336" transform="translate(30.527 52.391)">
          <path id="Path_4426" data-name="Path 4426" d="M1999.1,364.3v2.417h14.217v13.345h2.417V364.3Zm-96.553,15.762h2.416V366.716h14.217V364.3h-16.633Zm110.774,68.856v13.35H1999.1v2.417h16.634V448.918Zm-108.362,0h-2.417v15.766h16.634v-2.417h-14.217Z" transform="translate(-1902.54 -364.3)" fill="#60cbfa"/>
        </g>
        <g id="Group_6451" data-name="Group 6451" transform="translate(33.764)">
          <g id="Group_6443" data-name="Group 6443" transform="translate(84.097 75.455)">
            <path id="Path_4523" data-name="Path 4523" d="M2126.46,469.249H2107.1c-.269-1.662-.507-3.341-.715-5v-.013c-1.28-10.1-1.6-19.311-1.6-19.311s-5.654-25.875,10.677-27.467c0,0,4.373,1.371,4.634,3.167.984,6.916,3.236,21.866,3.335,25.406C2123.476,447.851,2125.2,460.2,2126.46,469.249Z" transform="translate(-2103.84 -417.46)" fill="#1d3867"/>
          </g>
          <g id="Group_6444" data-name="Group 6444" transform="translate(1.944 59.615)">
            <path id="Path_4524" data-name="Path 4524" d="M2008.738,397.337q-.358,10.634-1.258,22.816s-.815,13.258-1.093,28.43h-68.821c-1.6-7.471-3.389-14.087-3.614-14.916,0-.009-.009-.022-.009-.026s0-.022-.009-.022v-.035s-1.545,7.453-2.781,15H1914.48c2.065-16.573,7.111-53.32,9.779-55.233,2.274-1.627,16.53-7.341,23.931-10.152a53.115,53.115,0,0,1,6.556-2.247c1.692-.1,22.556,1.9,22.556,1.9s2.989,1.024,6.043,2.43c5.223,2.395,13.349,6.135,19.185,8.916C2004.421,395.09,2006.782,396.3,2008.738,397.337Z" transform="translate(-1914.48 -380.951)" fill="#81d3e4"/>
          </g>
          <g id="Group_6445" data-name="Group 6445" transform="translate(42.322 38.837)">
            <path id="Path_4525" data-name="Path 4525" d="M2007.55,353.792c1.532,14.057,17.141,14.057,17.141,14.057s6.46-5.653,6.257-9.835c0-.091-.009-.187-.022-.273-.1-.772-.968-1.727-1.059-3.271-.013-.208-.017-.425-.022-.638s0-.416,0-.625c0-1.067.064-2.122.13-2.855.021-.256.043-.477.061-.651.026-.26.043-.408.043-.408s-2.516-2.651-5.714-5.809c-5.588-5.523-13.272-12.6-13.284-9.788a2.647,2.647,0,0,0,.065.534C2012.491,340.569,2007.55,353.792,2007.55,353.792Z" transform="translate(-2007.55 -333.058)" fill="#eea886"/>
          </g>
          <path id="Path_4526" data-name="Path 4526" d="M2028.953,399.93l6.5,5.783s-7.5-.5-8.9-1.748Z" transform="translate(-1975.985 -332.08)" fill="#b4b1ba"/>
          <g id="Group_6446" data-name="Group 6446" transform="translate(68.132 62.795)">
            <path id="Path_4527" data-name="Path 4527" d="M2088.906,398.341c-3.943-1.874-8.95-4.2-13.388-6.247-2.113-.985-4.109-1.9-5.8-2.668l-2.677-1.145c.147.36,5.011,12.061,8.686,37.723.941,6.568,2.407,16.1,3.848,26.725h13.7c.75-15.094,1.123-28.161,1.123-28.161.612-8.269.963-16,1.193-23.207C2093.6,400.51,2091.006,399.339,2088.906,398.341Z" transform="translate(-2067.04 -388.28)" fill="#1d3867"/>
          </g>
          <g id="Group_6447" data-name="Group 6447" transform="translate(0 61.862)">
            <path id="Path_4528" data-name="Path 4528" d="M1963.763,451.511h-29.836a97.339,97.339,0,0,0-1.918-11.974s-1.3,5.315-2.486,11.974H1910c2.069-18.334,6.3-52.969,8.829-54.782,1.922-1.375,16.174-6.43,23.159-9.18,1.28-.508,2.521-.98,3.666-1.419,1.48,1.649,17.207,30.738,18.434,54.383A97.185,97.185,0,0,1,1963.763,451.511Z" transform="translate(-1910 -386.13)" fill="#1d3867"/>
          </g>
          <path id="Path_4529" data-name="Path 4529" d="M2039.538,400.944s.556,7.983-6.195,8.169-12.113-6.3-12.113-6.3l11.206,2.889,6.82-5.783Z" transform="translate(-1972.973 -332.075)" fill="#fff"/>
          <path id="Path_4530" data-name="Path 4530" d="M2002.876,374.79s6.4,8.213,9.744,10.9l-5.475,9.189-9.445-16.07Z" transform="translate(-1959.652 -317.848)" fill="#fff"/>
          <path id="Path_4531" data-name="Path 4531" d="M2052.839,391.522l-5.778,4.273s5.076-9.254,5.176-13.376Z" transform="translate(-1987.597 -322.167)" fill="#b4b1ba"/>
          <path id="Path_4532" data-name="Path 4532" d="M2058.99,382.42l3.709,2.62,4.135,12.33-7.241-5.848Z" transform="translate(-1994.351 -322.167)" fill="#fff"/>
          <g id="Group_6448" data-name="Group 6448" transform="translate(45.708 5.372)">
            <path id="Path_4533" data-name="Path 4533" d="M2052.667,269.657s4.074,9.918,1.415,11.111c-2.2.989,1.332,10.668,1.766,12.239s-4.026,2.2-5.054,3.076-5.011,12.5-8.625,12.482-19.146-7.319-23.055-12.343-5.344-26.018-1.5-34.4S2045.457,252.325,2052.667,269.657Z" transform="translate(-2015.354 -255.922)" fill="#eea886"/>
          </g>
          <g id="Group_6449" data-name="Group 6449" transform="translate(41.536)">
            <path id="Path_4534" data-name="Path 4534" d="M2048.019,264.786s6.233-9.592-2.361-18.1-27.289,2.872-29.289,3.167-13.745,2.807-9.84,20.673c3.475,15.909,3.81,16.326,3.81,16.326s4.663-8.412,6.846-9.67c3.41-1.97,10.3-.685,10.3-.685s-2.385-9.137,2.92-9.84S2042.99,262.291,2048.019,264.786Z" transform="translate(-2005.74 -243.54)" fill="#0e2d3d"/>
          </g>
          <g id="Group_6450" data-name="Group 6450" transform="translate(50.482 22.638)">
            <path id="Path_4535" data-name="Path 4535" d="M2034.173,300.427c-.33-1.254-1.258-6.59-6.026-4.013s1.423,13.1,2.186,13.306S2036.95,310.974,2034.173,300.427Z" transform="translate(-2026.359 -295.72)" fill="#eea886"/>
          </g>
          <path id="Path_4536" data-name="Path 4536" d="M2025.431,350.45c.108.269,3.653,8.885,14.538,13.232,0-.208,0-.417,0-.625,0-1.067.064-2.122.13-2.855.022-.256.043-.477.061-.651C2040.151,359.548,2028.459,354.055,2025.431,350.45Z" transform="translate(-1975.351 -304.067)" fill="#a77860"/>
        </g>
      </g>
      <g id="Group_6391" data-name="Group 6391" transform="translate(1070.787 7642.841)">
        <rect id="Rectangle_767" data-name="Rectangle 767" width="51.108" height="4.681" transform="matrix(1, -0.008, 0.008, 1, 122.48, 74.12)" fill="#323657"/>
        <rect id="Rectangle_768" data-name="Rectangle 768" width="48.528" height="4.444" transform="translate(168.888 76.98) rotate(-72.993)" fill="#323657"/>
        <g id="Group_6358" data-name="Group 6358" transform="translate(266.572 84.509)">
          <rect id="Rectangle_769" data-name="Rectangle 769" width="3.988" height="115.944" fill="#706865"/>
        </g>
        <g id="Group_6359" data-name="Group 6359" transform="translate(117.714 77.522)">
          <rect id="Rectangle_770" data-name="Rectangle 770" width="175.271" height="6.986" transform="translate(175.271 6.986) rotate(180)" fill="#b59074"/>
        </g>
        <g id="Group_6360" data-name="Group 6360" transform="translate(137.978 84.508)">
          <rect id="Rectangle_771" data-name="Rectangle 771" width="3.988" height="115.944" transform="translate(3.988 115.944) rotate(180)" fill="#706865"/>
        </g>
        <path id="Path_4462" data-name="Path 4462" d="M1602.616,1283.356a34.02,34.02,0,0,0,3.908.573c1.263.04,7.111-2.612,8.982-2.359s14.074,5.437,14.627,5.815-.26,1.211-.26,1.211l-28.013.333Z" transform="translate(-1481.632 -1214.365)" fill="#eea886"/>
        <g id="Group_6361" data-name="Group 6361" transform="translate(63.65 182.518)">
          <path id="Path_4463" data-name="Path 4463" d="M1385.141,1746.919l-1.8,3.888s-7.569-2.822-7.606-2.917,2.084-5.4,2.084-5.4Z" transform="translate(-1375.738 -1742.49)" fill="#515269"/>
        </g>
        <g id="Group_6362" data-name="Group 6362" transform="translate(128.89 186.861)">
          <path id="Path_4464" data-name="Path 4464" d="M1645.47,1759.85l2.094,6.12s-8.307,1.829-9.513,1.734c-.107-.007-1.571-6.931-1.571-6.931Z" transform="translate(-1636.48 -1759.85)" fill="#6a6b8a"/>
        </g>
        <path id="Path_4465" data-name="Path 4465" d="M1638.905,1774.067s5.8-1.576,5.978-1.829,2.3-1.689,3.4-1.506,1.2,1.5,2.294,1.764,9.581,2.98,10.754,3.673,6.788-1.349,7.866.105,2.129,5.275-6.688,6.6-18.258,5.257-20.367,4.721S1638.583,1776.417,1638.905,1774.067Z" transform="translate(-1509.375 -1581.136)" fill="#1d3867"/>
        <path id="Path_4466" data-name="Path 4466" d="M1355.711,1759.92s5.379,2.3,5.662,2.209,2.775.1,3.5.9.01,1.864.686,2.73,4.511,5.943,5.632,7.113c.918.958,5.953,1.854,7.569,3.541,1.218,1.271-.213,6.358-8.78,3.928-8.342-2.367-18.67-6.47-19.957-8.152S1354.047,1761.521,1355.711,1759.92Z" transform="translate(-1292.659 -1573.041)" fill="#1d3867"/>
        <g id="Group_6363" data-name="Group 6363" transform="translate(32.768 98.1)">
          <path id="Path_4467" data-name="Path 4467" d="M1288.114,1417.594s23.662,10.521,28.676,14.119,15.993,10.223,16.359,11.845,2.54.04-1.354,8.142-22.3,27.6-24.027,29.715c-1.8,2.209-14.57,15.45-14.57,15.45l-9.6-7.233s18.465-27.153,21.138-31.146,3.875-4.584,2.294-6.348-7.894-1.736-40.391-15.2c-3.248-1.346-12.308-4.461-13.5-8.822-2.16-7.879-.308-17.867,8.427-22.259S1288.114,1417.594,1288.114,1417.594Z" transform="translate(-1252.312 -1405.102)" fill="#2682b7"/>
        </g>
        <g id="Group_6364" data-name="Group 6364" transform="translate(64.243 31.237)">
          <path id="Path_4468" data-name="Path 4468" d="M1393.687,1141.053a3.457,3.457,0,0,0-.668,1.136,27.628,27.628,0,0,0-1.048,3.11c-1.073,3.753-2.047,8.57-2.047,8.57s-13.544-11.285-11.63-11.993,3.33-4.006,3.33-4.006S1395.116,1139.787,1393.687,1141.053Z" transform="translate(-1378.109 -1137.87)" fill="#eea886"/>
        </g>
        <g id="Group_6365" data-name="Group 6365" transform="translate(44.565 73.4)">
          <path id="Path_4469" data-name="Path 4469" d="M1333.874,1306.38s-10.992,21.018-11.467,28.9-22.947-2.48-22.947-2.48Z" transform="translate(-1299.46 -1306.38)" fill="#eddcc5"/>
        </g>
        <g id="Group_6366" data-name="Group 6366" transform="translate(44.355 100.259)">
          <path id="Path_4470" data-name="Path 4470" d="M1321.822,1415.261l.253,1.959.393,2.584h-.005c-.338-.022-21.943-1.379-23.507-.981s2.975-5.094,2.975-5.094Z" transform="translate(-1298.624 -1413.73)" fill="#323657"/>
        </g>
        <g id="Group_6367" data-name="Group 6367" transform="translate(31.956 105.166)">
          <path id="Path_4471" data-name="Path 4471" d="M1285.309,1434.508s24.448,5.752,30.49,7.684,16.446,5.332,19.241,6.926c1.484.848,3.75,2.114,6.465,10.949,3.078,10.016,10.1,38.179,11.7,42.565,1,2.755,3.881,13.594,3.881,13.594l-12.493,2.167s-14.877-29.953-16.083-37.937c-2.032-13.439-7.241-13.511-9.345-14.735s-12.24,1.073-48.3-1.8c-3.6-.287-13.454-.465-16-4.353-4.606-7.026-9.255-15.005-2.1-22.068S1285.309,1434.508,1285.309,1434.508Z" transform="translate(-1249.069 -1433.34)" fill="#2682b7"/>
        </g>
        <g id="Group_6368" data-name="Group 6368" transform="translate(62.126 4.189)">
          <path id="Path_4472" data-name="Path 4472" d="M1392.117,1031.711s4.231,7.306,3.268,9.3,4.419,6.808,3.535,7.829-2.7,2.257-2.675,2.555-1.564,9.821-3.641,10.033-16.271-.523-17.447-4.964-4.639-14.164-5.454-15.971S1377.069,1024.731,1392.117,1031.711Z" transform="translate(-1369.648 -1029.77)" fill="#eea886"/>
        </g>
        <g id="Group_6369" data-name="Group 6369" transform="translate(58.761)">
          <path id="Path_4473" data-name="Path 4473" d="M1364.534,1017.744a15.7,15.7,0,0,0-2.9,2.755c-.931.438-6.42,3.165-5.279,6.11,1.536,3.966,7.741,14.587,8.264,15.7.07.148.07-.133.02-.728.383-3.75,5-7.954,5-7.954l2.462-1.113a7.214,7.214,0,0,1-.778-4.624c2.787-2.988,12.052-6.208,12.052-6.208C1382.059,1008.466,1370.744,1013.137,1364.534,1017.744Z" transform="translate(-1356.199 -1013.026)" fill="#403429"/>
        </g>
        <g id="Group_6370" data-name="Group 6370" transform="translate(67.631 16.937)">
          <path id="Path_4474" data-name="Path 4474" d="M1395.309,1081.273c-.656-1-4.111-.836-3.608,2.112s4.744,5.314,5.667,4S1396.007,1082.338,1395.309,1081.273Z" transform="translate(-1391.651 -1080.719)" fill="#eea886"/>
        </g>
        <path id="Path_4475" data-name="Path 4475" d="M1282.9,1153.89s-17.154,10-21.025,27.45-10.872,48.107-10.994,51.735c0,0,23.214-11.172,35.787-8.1,0,0,7.917-28.444,12.083-35.162s-2.024-22.511-2.024-22.511S1290.806,1157.831,1282.9,1153.89Z" transform="translate(-1218.471 -1118.645)" fill="#5c9aff"/>
        <path id="Path_4476" data-name="Path 4476" d="M1416.541,1150.911a27.67,27.67,0,0,0-1.048,3.11c-2.027-.843-5.895-4.411-6.013-4.521A56.427,56.427,0,0,0,1416.541,1150.911Z" transform="translate(-1337.387 -1115.353)" fill="#a77860"/>
        <g id="Group_6371" data-name="Group 6371" transform="translate(56.27 38.668)">
          <path id="Path_4477" data-name="Path 4477" d="M1361.079,1173.238a44.523,44.523,0,0,1,4.336,6.46c2.862,4.969,5.184,9.881,5.8,10.984,1.264,2.244,5.72,4.554,7.709,5.409,1.829.786,33.388,1.454,33.773,1.419s-.458,9.585-.458,9.585-43.564,1.246-45.465-.493a114.182,114.182,0,0,1-9.711-11.557c-2.2-3.1-5.572-8.194-7.361-10.389-2-2.452-6.2-10.846-.861-15.032C1355.67,1164.275,1359.438,1170.783,1361.079,1173.238Z" transform="translate(-1346.242 -1167.57)" fill="#5c9aff"/>
        </g>
        <path id="Path_4478" data-name="Path 4478" d="M1368.72,1247.42s3.36,10.229,6.3,14.752a67.077,67.077,0,0,0,7.4,9.015l1.631-4.771S1371.647,1251.5,1368.72,1247.42Z" transform="translate(-1306.826 -1188.773)" fill="#406cb3"/>
        <g id="Group_6373" data-name="Group 6373" transform="translate(7.026 187.612)">
          <g id="Group_6372" data-name="Group 6372">
            <path id="Path_4479" data-name="Path 4479" d="M1149.43,1779.5l1.041,2.93,44.024-13.641-2.109-5.935Z" transform="translate(-1149.43 -1762.85)" fill="#7c8aab"/>
          </g>
        </g>
        <g id="Group_6375" data-name="Group 6375" transform="translate(48.598 143.595)">
          <g id="Group_6374" data-name="Group 6374">
            <rect id="Rectangle_772" data-name="Rectangle 772" width="5.004" height="47.865" fill="#7c8aab"/>
          </g>
        </g>
        <g id="Group_6377" data-name="Group 6377" transform="translate(36.343 141.051)">
          <g id="Group_6376" data-name="Group 6376">
            <rect id="Rectangle_773" data-name="Rectangle 773" width="29.515" height="2.82" fill="#7c8aab"/>
          </g>
        </g>
        <g id="Group_6379" data-name="Group 6379" transform="translate(50.495 187.239)">
          <g id="Group_6378" data-name="Group 6378">
            <path id="Path_4480" data-name="Path 4480" d="M1368.228,1778.379l-1.041,2.93-44.027-13.641,1.934-6.308Z" transform="translate(-1323.16 -1761.36)" fill="#7c8aab"/>
          </g>
        </g>
        <g id="Group_6381" data-name="Group 6381" transform="translate(50.495 187.239)">
          <g id="Group_6380" data-name="Group 6380">
            <path id="Path_4481" data-name="Path 4481" d="M1337.209,1781v3.408l-14.049-16.736,1.934-6.308Z" transform="translate(-1323.16 -1761.36)" fill="#7c8aab"/>
          </g>
        </g>
        <g id="Group_6383" data-name="Group 6383" transform="translate(91.449 204.221)">
          <g id="Group_6382" data-name="Group 6382">
            <path id="Path_4482" data-name="Path 4482" d="M1495.067,1833.344a4.113,4.113,0,1,1-4.113-4.114A4.113,4.113,0,0,1,1495.067,1833.344Z" transform="translate(-1486.84 -1829.23)" fill="#7c8aab"/>
          </g>
        </g>
        <g id="Group_6385" data-name="Group 6385" transform="translate(56.667 204.221)">
          <g id="Group_6384" data-name="Group 6384">
            <path id="Path_4483" data-name="Path 4483" d="M1356.057,1833.344a4.113,4.113,0,1,1-4.113-4.114A4.113,4.113,0,0,1,1356.057,1833.344Z" transform="translate(-1347.83 -1829.23)" fill="#7c8aab"/>
          </g>
        </g>
        <g id="Group_6387" data-name="Group 6387" transform="translate(2.912 204.221)">
          <g id="Group_6386" data-name="Group 6386">
            <path id="Path_4484" data-name="Path 4484" d="M1141.217,1833.344a4.113,4.113,0,1,1-4.113-4.114A4.113,4.113,0,0,1,1141.217,1833.344Z" transform="translate(-1132.99 -1829.23)" fill="#7c8aab"/>
          </g>
        </g>
        <g id="Group_6388" data-name="Group 6388" transform="translate(16.334 130.367)">
          <path id="Path_4485" data-name="Path 4485" d="M1251.276,1544.744H1191.9a5.275,5.275,0,0,1-5.274-5.274v-.135a5.275,5.275,0,0,1,5.274-5.274h59.372a5.275,5.275,0,0,1,5.274,5.274v.135A5.273,5.273,0,0,1,1251.276,1544.744Z" transform="translate(-1186.63 -1534.06)" fill="#dbdff0"/>
        </g>
        <g id="Group_6389" data-name="Group 6389" transform="translate(0 56.105)">
          <path id="Path_4486" data-name="Path 4486" d="M1151.443,1304.041h-20.96a9.132,9.132,0,0,1-9.133-9.133v-48.515a9.132,9.132,0,0,1,9.133-9.133h20.96a9.132,9.132,0,0,1,9.133,9.133v48.515A9.131,9.131,0,0,1,1151.443,1304.041Z" transform="translate(-1121.35 -1237.26)" fill="#dbdff0"/>
        </g>
        <g id="Group_6390" data-name="Group 6390" transform="translate(14.536 98.737)">
          <path id="Path_4487" data-name="Path 4487" d="M1204.584,1447.3c-7.108,0-12.873-2.387-17.139-7.1-9.638-10.641-7.906-29.35-7.829-30.14a2.683,2.683,0,0,1,5.339.528c-.02.213-1.556,17.169,6.475,26.022,3.25,3.581,7.551,5.322,13.151,5.322a2.682,2.682,0,0,1,0,5.364Z" transform="translate(-1179.447 -1407.646)" fill="#dbdff0"/>
        </g>
      </g>
      <g id="Group_6428" data-name="Group 6428" transform="translate(1275.996 7611.232)">
        <g id="Group_6394" data-name="Group 6394" transform="translate(15.271)">
          <g id="Group_6393" data-name="Group 6393">
            <g id="Group_6392" data-name="Group 6392">
              <path id="Path_4488" data-name="Path 4488" d="M1771.239,885.656s8.259,4.041,6.217,15.032-2.945,12.473-.66,16.766,4.979,22.616,2.925,26.089-25.449-15.26-28.692-30.976,2.057-22.706,3.928-25.311S1763.946,881.956,1771.239,885.656Z" transform="translate(-1750.002 -883.843)" fill="#0e2d3d"/>
            </g>
          </g>
        </g>
        <g id="Group_6395" data-name="Group 6395" transform="translate(38.796 41.491)">
          <path id="Path_4489" data-name="Path 4489" d="M1844.02,1049.67a11.508,11.508,0,0,1,6.565,4.331c1.642,2.417,1.777,7.789,2.012,8.8s3.373,12.458,3.373,12.458l-8.757,5.87Z" transform="translate(-1844.02 -1049.67)" fill="#dbdff0"/>
        </g>
        <g id="Group_6396" data-name="Group 6396" transform="translate(60.058 225.027)">
          <path id="Path_4490" data-name="Path 4490" d="M1940.095,1795.4s5.715,7.694,4.932,8.915-6.793,1.394-10.454,0-3.746-10.411-5.4-14.284c-.693-1.621.791-6.411,2.875-6.756a8.773,8.773,0,0,1,4.351.673S1934.237,1789.4,1940.095,1795.4Z" transform="translate(-1929 -1783.201)" fill="#1d3867"/>
        </g>
        <g id="Group_6398" data-name="Group 6398" transform="translate(61.785 224.914)">
          <g id="Group_6397" data-name="Group 6397">
            <path id="Path_4491" data-name="Path 4491" d="M1941.612,1783.543a36.141,36.141,0,0,1,1.641,6.405c.365,2.595,4.071,8.1,3.9,8.8s-4.879,1.329-6.793-.468-3.15-7.021-3.571-10.146a25.173,25.173,0,0,0-.888-4.349S1939.783,1781.627,1941.612,1783.543Z" transform="translate(-1935.9 -1782.75)" fill="#eea886"/>
          </g>
        </g>
        <g id="Group_6399" data-name="Group 6399" transform="translate(10.104 225.028)">
          <path id="Path_4492" data-name="Path 4492" d="M1740.653,1795.531s5.509,7.567,4.724,8.785-6.793,1.394-10.454,0-3.746-10.411-5.4-14.284c-.693-1.621.791-6.41,2.875-6.756a9.359,9.359,0,0,1,4.529.746S1734.795,1789.533,1740.653,1795.531Z" transform="translate(-1729.351 -1783.207)" fill="#1d3867"/>
        </g>
        <g id="Group_6401" data-name="Group 6401" transform="translate(12.69 224.742)">
          <g id="Group_6400" data-name="Group 6400">
            <path id="Path_4493" data-name="Path 4493" d="M1744.677,1783.165a51.449,51.449,0,0,0,1.134,6.1c.7,2.527,4.441,8.274,4.268,8.972s-4.879,1.328-6.793-.468-3.4-7-3.571-10.146a16.728,16.728,0,0,1,.435-5.2S1742.848,1781.248,1744.677,1783.165Z" transform="translate(-1739.684 -1782.065)" fill="#eea886"/>
          </g>
        </g>
        <g id="Group_6403" data-name="Group 6403" transform="translate(4.349 83.95)">
          <g id="Group_6402" data-name="Group 6402">
            <path id="Path_4494" data-name="Path 4494" d="M1747.213,1235.995s4.9,22.814,6.03,28.559,4.281,33.565,4.619,38.294,5.117,22.554,4.892,24.245,7.086,35.627,7.086,35.627a4.4,4.4,0,0,1-5.129.183c-1.354-.941-16.041-31.774-16.041-40.221,0-11.677-8.635-26.92-9.748-29.532-10.351-24.268-8.312-31.689-9.663-33.265s-1.469.973-2.257,4.466-2.477,33.678-3.49,37.506-.227,16.782-.791,23.315-3.035,36.082-3.035,36.082-1.914,3-4.6.078c-.578-.628-4.639-32.917-4.751-40.689s-.233-18.49-.45-21.85c-2.087-32.2-7.216-36.806.863-59.6C1725.865,1196.52,1747.213,1235.995,1747.213,1235.995Z" transform="translate(-1706.349 -1219.361)" fill="#eea886"/>
          </g>
        </g>
        <g id="Group_6404" data-name="Group 6404" transform="translate(2.818 94.203)">
          <path id="Path_4495" data-name="Path 4495" d="M1709.69,1260.344s-13.972,19.554-7.957,61.151c0,0,33.14,4.506,50.895-5.214,0,0-7.341-42.888-10-49.561S1709.69,1260.344,1709.69,1260.344Z" transform="translate(-1700.23 -1260.342)" fill="#1d3867"/>
        </g>
        <g id="Group_6405" data-name="Group 6405" transform="translate(60.078 231.177)">
          <path id="Path_4496" data-name="Path 4496" d="M1929.08,1807.78v8.054h1.046v-6.225Z" transform="translate(-1929.08 -1807.78)" fill="#1d3b54"/>
        </g>
        <g id="Group_6406" data-name="Group 6406" transform="translate(10.127 231.177)">
          <path id="Path_4497" data-name="Path 4497" d="M1729.44,1807.78v8.054h1.046v-6.225Z" transform="translate(-1729.44 -1807.78)" fill="#1d3b54"/>
        </g>
        <g id="Group_6407" data-name="Group 6407" transform="translate(5.468 38.37)">
          <path id="Path_4498" data-name="Path 4498" d="M1736.383,1037.463a53.843,53.843,0,0,0,6.936,2.787c1.786.358,8.722,9.365,9.938,12.653s0,8.222-2.5,14.012-.142,7.721-1.286,13.511-2.144,18.053-1.929,21.268-28.917,3.826-35.565-2.039c0,0,6.683-10.008,7.541-11.437s.143-9.223-.643-11.224-6.02-19.026-6.02-19.026-4.281-13.073-.413-16.078c3.36-2.609,12.518-3.54,14.162-4.111S1733.023,1036.963,1736.383,1037.463Z" transform="translate(-1710.822 -1037.194)" fill="#e14b4b"/>
        </g>
        <g id="Group_6408" data-name="Group 6408" transform="translate(32.523 36.807)">
          <path id="Path_4499" data-name="Path 4499" d="M1819.1,1044.256l3.128-3.663-2.717-9.643A63.984,63.984,0,0,0,1819.1,1044.256Z" transform="translate(-1818.951 -1030.95)" fill="#d6c5be"/>
        </g>
        <g id="Group_6409" data-name="Group 6409" transform="translate(21.241 25.653)">
          <path id="Path_4500" data-name="Path 4500" d="M1786.105,993.415s-.14,1.291-.307,3.075c-.073.791-.15,1.679-.225,2.595a58.672,58.672,0,0,0-.28,6.846s-5.349,5.362-11.432-6.255a15.955,15.955,0,0,0,.633-11.315C1772.567,981.84,1786.105,993.415,1786.105,993.415Z" transform="translate(-1773.86 -986.369)" fill="#eea886"/>
        </g>
        <g id="Group_6410" data-name="Group 6410" transform="translate(26.518 45.217)">
          <path id="Path_4501" data-name="Path 4501" d="M1801.1,1064.56v4.9l-6.155-4.6Z" transform="translate(-1794.95 -1064.56)" fill="#eea886"/>
        </g>
        <g id="Group_6411" data-name="Group 6411" transform="translate(18.724 38.371)">
          <path id="Path_4502" data-name="Path 4502" d="M1777.749,1048.942l-2.555-3.163-8.61-8.58-2.785,2.682Z" transform="translate(-1763.8 -1037.2)" fill="#d6c5be"/>
        </g>
        <g id="Group_6412" data-name="Group 6412" transform="translate(2.811 39.192)">
          <path id="Path_4503" data-name="Path 4503" d="M1717.7,1040.48s7.224,10.964,7.569,15.791-2.685,40.924-5.112,52.526-19.959-1.309-19.959-1.309,11.782-19.071,7.259-34.341-6.165-21.375-6.165-21.375,1.556-8.5,7.071-9.7C1713.2,1041.023,1717.7,1040.48,1717.7,1040.48Z" transform="translate(-1700.2 -1040.48)" fill="#dbdff0"/>
        </g>
        <g id="Group_6413" data-name="Group 6413" transform="translate(34.85 40.333)">
          <path id="Path_4504" data-name="Path 4504" d="M1841.776,1060.255s1.3,4.612-3.773,14.8c0,0,.08,13.043.223,17.119s3.025,18.728,3.025,18.728l-6.936,3.693a1.416,1.416,0,0,1-2.122-1.394c1.421-11.727,6.048-56.209-3.943-68.164l4.008,1.181S1839.382,1052.051,1841.776,1060.255Z" transform="translate(-1828.25 -1045.04)" fill="#dbdff0"/>
        </g>
        <g id="Group_6414" data-name="Group 6414" transform="translate(33.086 36.81)">
          <path id="Path_4505" data-name="Path 4505" d="M1823.915,1040.6l3.941,1.089-6.656-10.731Z" transform="translate(-1821.2 -1030.96)" fill="#fff"/>
        </g>
        <g id="Group_6415" data-name="Group 6415" transform="translate(19.127 37.901)">
          <path id="Path_4506" data-name="Path 4506" d="M1776.4,1044.37l-3.6,4.719-7.391-12.32,2.562-1.449Z" transform="translate(-1765.41 -1035.32)" fill="#fff"/>
        </g>
        <rect id="Rectangle_774" data-name="Rectangle 774" width="1.304" height="15.413" transform="matrix(0.784, -0.621, 0.621, 0.784, 35.32, 66.057)" fill="#eb4747"/>
        <path id="Path_4507" data-name="Path 4507" d="M1823.278,1181.571a2.792,2.792,0,0,0,1.514-.436c1.038-.783,1.411-2.707,3.243-2.567s2.68,5.882,2.222,6.968-3,1.631-6.758.881S1823.278,1181.571,1823.278,1181.571Z" transform="translate(-1788.54 -1104.82)" fill="#eea886"/>
        <path id="Path_4508" data-name="Path 4508" d="M1842.205,1172.409a57.792,57.792,0,0,1,5.67-1.554c2.665-.575,5.85-.766,6.16-.3.345.515-2.6.958-5.207,1.7-2.4.683-1.831.933-1.831.933s-.158-.08,2.587-.338c2.952-.275,5.99-.27,6.29.32.145.288.045.48-1.018.751.638-.03.728.135.753.393.125,1.329-4.179,2.387-5.887,2.807,1.313-.315,2.307-.41,1.834.48-.541,1.018-6.683,2.252-8.85,2.9C1840.339,1181.2,1842.205,1172.409,1842.205,1172.409Z" transform="translate(-1803.34 -1098.621)" fill="#eea886"/>
        <path id="Path_4509" data-name="Path 4509" d="M1700.963,1047.323c-1.812-.585-7.124,1.3-8.022,6.746s-1.259,11.5-2.1,14.43-2.975,15.933-1.179,17.012,5.2,2.062,9.968,2.062c4.927,0,24.032.858,24.032.858l1.2-6.788s-7.256-.375-11.017-.943c-3.345-.508-7.984-1.932-13.446-2.53,0,0,1.158-8.052,2-10.329S1709.1,1049.958,1700.963,1047.323Z" transform="translate(-1688.967 -1006.342)" fill="#dbdff0"/>
        <g id="Group_6416" data-name="Group 6416" transform="translate(36.414 52.851)">
          <path id="Path_4510" data-name="Path 4510" d="M1834.5,1129.426l19.244-3.816,14.274-30.54-20.542,2.159Z" transform="translate(-1834.5 -1095.07)" fill="#fff"/>
        </g>
        <g id="Group_6418" data-name="Group 6418" transform="translate(56.276 68.671)">
          <g id="Group_6417" data-name="Group 6417">
            <path id="Path_4511" data-name="Path 4511" d="M1915.665,1167.837a15.462,15.462,0,0,0,1.994-2.349c.941-1.371,4.014-6.608,3.733-6.936s-4.846-.44-5.675.305.816,1.036.816,1.036-2.5.258-2.317.961,1.682.51,1.682.51-2.009.385-1.7,1,1.271.613,1.271.613-1.782.222-1.561.9,3.037,1.313,2.66,1.874A13.343,13.343,0,0,0,1915.665,1167.837Z" transform="translate(-1913.885 -1158.298)" fill="#eea886"/>
          </g>
        </g>
        <g id="Group_6421" data-name="Group 6421" transform="translate(19.49 2.682)">
          <g id="Group_6420" data-name="Group 6420">
            <g id="Group_6419" data-name="Group 6419">
              <path id="Path_4512" data-name="Path 4512" d="M1782.682,894.91s11.993,3.768,5.482,24.465-22.889-2.4-21.178-15.008S1782.682,894.91,1782.682,894.91Z" transform="translate(-1766.862 -894.56)" fill="#eea987"/>
            </g>
          </g>
        </g>
        <g id="Group_6424" data-name="Group 6424" transform="translate(18.544 1.019)">
          <g id="Group_6423" data-name="Group 6423">
            <g id="Group_6422" data-name="Group 6422">
              <path id="Path_4513" data-name="Path 4513" d="M1786.554,902.005a27.059,27.059,0,0,1-15.933,6.578s-3.833,4.494-4.128,6.258c0,0-8.9-15.168,2.039-24.26S1790.575,898.257,1786.554,902.005Z" transform="translate(-1763.079 -887.915)" fill="#0e2d3d"/>
            </g>
          </g>
        </g>
        <g id="Group_6427" data-name="Group 6427" transform="translate(22.047 17.958)">
          <g id="Group_6426" data-name="Group 6426">
            <g id="Group_6425" data-name="Group 6425">
              <path id="Path_4514" data-name="Path 4514" d="M1781.241,959.757c-.078-1.506-1.006-4.934-3.243-3.976s.138,7.939,1.622,7.511C1779.618,963.293,1781.424,963.32,1781.241,959.757Z" transform="translate(-1777.081 -955.615)" fill="#eea987"/>
            </g>
          </g>
        </g>
        <path id="Path_4515" data-name="Path 4515" d="M1796.834,1009.08c-.073.791-.15,1.679-.225,2.595h0c-6.933-3.423-8-8.36-8.027-8.515C1793.522,1009.545,1796.834,1009.08,1796.834,1009.08Z" transform="translate(-1763.656 -973.306)" fill="#a77860"/>
      </g>
    </g>
  </g>
</svg>
