<svg id="Group_6307" data-name="Group 6307" xmlns="http://www.w3.org/2000/svg" width="18.5" height="13.875" viewBox="0 0 18.5 13.875">
  <path id="Path_4405" data-name="Path 4405" d="M7.05,65.126c2.539,2.15,6.994,5.933,8.3,7.113a.774.774,0,0,0,1.119,0c1.311-1.181,5.766-4.964,8.3-7.114a.385.385,0,0,0,.054-.532A1.531,1.531,0,0,0,23.622,64H8.206A1.53,1.53,0,0,0,7,64.594.385.385,0,0,0,7.05,65.126Z" transform="translate(-6.664 -64)" fill="#1d3867"/>
  <path id="Path_4406" data-name="Path 4406" d="M18.276,126.447a.384.384,0,0,0-.411.056c-2.816,2.387-6.409,5.447-7.54,6.465a1.561,1.561,0,0,1-2.151,0c-1.205-1.086-5.241-4.517-7.539-6.465A.385.385,0,0,0,0,126.8v9.693a1.543,1.543,0,0,0,1.542,1.542H16.958A1.543,1.543,0,0,0,18.5,136.49V126.8A.385.385,0,0,0,18.276,126.447Z" transform="translate(0 -124.156)" fill="#1d3867"/>
</svg>
