<svg xmlns="http://www.w3.org/2000/svg" width="11.5" height="20.308" viewBox="0 0 11.5 20.308">
  <path id="Path_4400" data-name="Path 4400" d="M15.973,0H7.429A1.478,1.478,0,0,0,5.951,1.479V18.83a1.477,1.477,0,0,0,1.478,1.478h8.544a1.478,1.478,0,0,0,1.478-1.478V1.479A1.479,1.479,0,0,0,15.973,0ZM9.593.9h4.218c.107,0,.193.159.193.356s-.087.357-.193.357H9.593c-.107,0-.192-.16-.192-.357S9.485.9,9.593.9ZM11.7,18.848a.944.944,0,1,1,.942-.944A.945.945,0,0,1,11.7,18.848Zm4.642-3.233H7.059V2.5h9.285V15.615Z" transform="translate(-5.951)" fill="#1d3867"/>
</svg>
