<svg xmlns="http://www.w3.org/2000/svg" xmlns:xlink="http://www.w3.org/1999/xlink" width="505.927" height="504.994" viewBox="0 0 505.927 504.994"><defs><linearGradient id="a" x1="0.29" y1="0.126" x2="1.2" y2="0.944" gradientUnits="objectBoundingBox"><stop offset="0" stop-color="#8ee0e4"/><stop offset="1" stop-color="#879cfb"/></linearGradient></defs><g transform="translate(-339.418 -5591.872)"><path d="M1729.352,994.355h99.506l-5.712-143.375H1723.64Z" transform="translate(-1336.977 5026.877)" fill="#bbb7b5"/><path d="M2556.249,995.815l-1-1.175,16.59-14.133h10.078l22.86-19.478,14.3,12.182h10.544l5.33,4.538,16.559-14.106h8.4l34.847-29.682,1,1.171-35.276,30.057h-8.406l-17.125,14.588-5.9-5.023h-10.544l-13.731-11.7-22.294,18.992H2572.41Z" transform="translate(-1850.415 4975.646)" fill="#48a771"/><path d="M2554.875,949.569h-5.735v-1.542h5.093l8.612-8.612,6.259,6.259,14.956-14.952,4.6,4.6,15.166-15.162,9.087,9.087h10.357l15.989-15.993h13.793l10.192-10.192h12.48L2688.1,890.68l1.09,1.09L2676.362,904.6h-12.481l-10.192,10.2H2639.9l-15.993,15.989h-11.635l-8.448-8.448L2588.659,937.5l-4.6-4.6L2569.1,947.859l-6.259-6.263Z" transform="translate(-1846.642 5002.366)" fill="#67e69a"/><path d="M1810.695,1114.824l-1.132-.046,5.689-142.786h-98.373l-5.689,142.832-1.129-.046L1715.8,970.86H1816.43Z" transform="translate(-1328.592 4952.864)" fill="#385988"/><path d="M1827.347,1114.824l-5.689-142.832h-98.373l5.689,142.786-1.129.046L1722.11,970.86h100.635l5.735,143.918Z" transform="translate(-1336.032 4952.864)" fill="#385988"/><path d="M196.608,362.594a2.751,2.751,0,1,1-1.393-1.582A2.755,2.755,0,0,1,196.608,362.594Z" transform="translate(241.143 5374.043)" fill="#67e69a"/><path d="M216.638,375.514a2.751,2.751,0,1,1-1.393-1.582,2.755,2.755,0,0,1,1.393,1.582Z" transform="translate(228.777 5366.066)" fill="#67e69a"/><path d="M188.69,385.069a2.755,2.755,0,1,1-3.5-1.71A2.755,2.755,0,0,1,188.69,385.069Z" transform="translate(246.032 5360.164)" fill="#67e69a"/><path d="M777.735,403.9A31.668,31.668,0,1,1,746.07,372.24,31.669,31.669,0,0,1,777.735,403.9Z" transform="translate(-81.853 5366.937)" fill="#48a771"/><path d="M773.632,431.966a15.262,15.262,0,0,1,.149-2.177,7.658,7.658,0,0,1,.57-2,6.244,6.244,0,0,1,1.213-1.806,7.954,7.954,0,0,1,2.078-1.53c.425-.233.995-.539,1.7-.918a17.116,17.116,0,0,0,2.078-1.308,8.646,8.646,0,0,0,1.756-1.706,3.442,3.442,0,0,0,.765-2.154,3.03,3.03,0,0,0-1.19-2.544,4.319,4.319,0,0,0-2.72-.918,4.029,4.029,0,0,0-1.756.383,6.861,6.861,0,0,0-1.385.891,5.869,5.869,0,0,0-1.064,1.148c-.3.429-.559.807-.792,1.148l-5.1-3.562a9.893,9.893,0,0,1,4.082-4.7,12,12,0,0,1,6.309-1.68,13.422,13.422,0,0,1,3.757.543,9.565,9.565,0,0,1,3.363,1.729,9.014,9.014,0,0,1,2.426,3.061,10.12,10.12,0,0,1,.937,4.549,8.938,8.938,0,0,1-1.148,4.725,10.475,10.475,0,0,1-3.443,3.34,21.936,21.936,0,0,1-2.1,1.236,19.8,19.8,0,0,0-1.955,1.148,5.621,5.621,0,0,0-1.435,1.335,2.92,2.92,0,0,0-.543,1.783Zm.149,12.117v-7.419h6.481v7.419Z" transform="translate(-116.143 5344.534)" fill="#fff"/><g transform="translate(339.418 5775.129)"><path d="M54.3,41.636H15.586L0,0H78.262L74.1,41.636H63.848L62.623,52.493Z" transform="translate(0 0)" fill="#67e69a"/><path d="M500.629,201.41c-.426.139-50.689,0-50.689,0" transform="translate(-433.425 -191.689)" fill="none" stroke="#fff" stroke-linecap="round" stroke-miterlimit="10" stroke-width="3"/><line x1="46.418" transform="translate(20.082 17.041)" fill="none" stroke="#fff" stroke-linecap="round" stroke-miterlimit="10" stroke-width="3"/><line x1="42.571" transform="translate(23.209 24.123)" fill="none" stroke="#fff" stroke-linecap="round" stroke-miterlimit="10" stroke-width="3"/><line x1="23.998" transform="translate(41.07 31.204)" fill="none" stroke="#fff" stroke-linecap="round" stroke-miterlimit="10" stroke-width="3"/></g><path d="M311.542,611.671c-76.106,0-138.022-61.916-138.022-138.022S235.436,335.63,311.542,335.63s138.014,61.916,138.014,138.018S387.645,611.671,311.542,611.671Zm0-273.125c-74.5,0-135.107,60.607-135.107,135.1s60.607,135.107,135.107,135.107,135.1-60.607,135.1-135.107S386.045,338.545,311.542,338.545Z" transform="translate(252.088 5389.54)" fill="#67e69a"/><path d="M293.15,604.672c-82.392,0-149.42-67.027-149.42-149.416S210.757,305.84,293.15,305.84s149.412,67.016,149.412,149.416S375.534,604.672,293.15,604.672Zm0-298.1c-81.987,0-148.689,66.7-148.689,148.685s66.71,148.689,148.689,148.689,148.685-66.7,148.685-148.689S375.133,306.571,293.15,306.571Z" transform="translate(270.48 5407.932)" fill="#67e69a"/><path d="M484.754,518.573a18.866,18.866,0,0,0-4.316-3.26,80.393,80.393,0,0,0-7.48-3.933,78.136,78.136,0,0,0-9.5-3.642,54.478,54.478,0,0,0-10.74-2.208v33.183l4.794,1.148q9.967,2.678,18.128,5.739a48.948,48.948,0,0,1,13.808,7.652,31.754,31.754,0,0,1,8.727,11.026q3.061,6.431,3.061,15.824,0,10.556-3.738,18.032a34.089,34.089,0,0,1-10.166,12.274,45.216,45.216,0,0,1-14.963,7.193,78.235,78.235,0,0,1-17.932,2.782v21.142h-11.5v-21.3a99.592,99.592,0,0,1-26.181-5.467,94.644,94.644,0,0,1-23.109-11.8l11.7-22.826a37.254,37.254,0,0,0,5.272,4.029,63.867,63.867,0,0,0,9.014,4.89,113.3,113.3,0,0,0,11.7,4.507,65.454,65.454,0,0,0,13.334,2.877V563.475q-1.722-.384-3.443-.865t-3.443-1.052a124.264,124.264,0,0,1-16.976-5.85,44.8,44.8,0,0,1-11.987-7.48,27.975,27.975,0,0,1-7.212-10,34.53,34.53,0,0,1-2.4-13.521,41.932,41.932,0,0,1,3.359-17.167,38.458,38.458,0,0,1,9.2-12.928,42.958,42.958,0,0,1,13.9-8.44,63.087,63.087,0,0,1,17.263-3.826V462.76h11.509v19.375a79.2,79.2,0,0,1,23.3,5.177,93.554,93.554,0,0,1,18.7,9.783Zm-58.308,1.913q0,6.5,4.507,9.875t13.716,6.053V505.339q-18.223,1.152-18.223,15.155Zm46.608,62.341a11.645,11.645,0,0,0-5.356-10.166q-5.356-3.661-14.96-6.715V596.83Q473.05,596.252,473.054,582.827Z" transform="translate(116.179 5311.05)" fill="#67e69a"/><path d="M1041.619,352.556A53.659,53.659,0,1,1,987.962,298.9a53.66,53.66,0,0,1,53.657,53.656Z" transform="translate(-217.619 5412.217)" fill="#48a771"/><path d="M976.665,401.92a60.655,60.655,0,1,1-.008-121.31v.731a59.924,59.924,0,1,0,0,119.849Z" transform="translate(-206.321 5423.51)" fill="url(#a)"/><path d="M762.861,279.365a5.808,5.808,0,0,1-2.162-.383,5.5,5.5,0,0,1-1.729-1.083,5.137,5.137,0,0,1-1.148-1.6,4.569,4.569,0,0,1-.432-1.974,4.618,4.618,0,0,1,.432-1.963,4.974,4.974,0,0,1,1.148-1.6,5.6,5.6,0,0,1,1.729-1.064,6.019,6.019,0,0,1,4.3,0,5.626,5.626,0,0,1,1.745,1.064,5.022,5.022,0,0,1,1.148,1.6,4.619,4.619,0,0,1,.432,1.963,4.57,4.57,0,0,1-.432,1.974,5.2,5.2,0,0,1-1.148,1.6A5.532,5.532,0,0,1,765,278.982a5.854,5.854,0,0,1-2.143.383Zm-3.627,12.3,9.374-10.935,8.643-11.367,2.028,1.794L770.2,281.89l-8.941,11.566Zm3.627-14.539a1.814,1.814,0,0,0,.911-.233,2.774,2.774,0,0,0,1.263-1.53,3.193,3.193,0,0,0,.184-1.079,2.946,2.946,0,0,0-.7-1.978,2.127,2.127,0,0,0-1.66-.815,1.833,1.833,0,0,0-.918.233,2.821,2.821,0,0,0-.746.612,2.853,2.853,0,0,0-.516.88,3.06,3.06,0,0,0-.18,1.067,3,3,0,0,0,.7,1.993,2.1,2.1,0,0,0,1.664.865Zm12.825,16.417a5.8,5.8,0,0,1-2.158-.383,5.67,5.67,0,0,1-1.729-1.064,4.971,4.971,0,0,1-1.148-1.58,4.733,4.733,0,0,1,0-3.952,5.134,5.134,0,0,1,1.148-1.6,5.5,5.5,0,0,1,1.729-1.083,6.06,6.06,0,0,1,4.32,0,5.713,5.713,0,0,1,1.745,1.083,4.793,4.793,0,0,1,1.148,1.6,4.89,4.89,0,0,1,0,3.952,4.66,4.66,0,0,1-1.148,1.58,5.891,5.891,0,0,1-1.745,1.064,5.809,5.809,0,0,1-2.162.4Zm0-2.227a1.816,1.816,0,0,0,.914-.233,2.779,2.779,0,0,0,.765-.612,2.82,2.82,0,0,0,.513-.884,3.2,3.2,0,0,0,0-2.177,3.242,3.242,0,0,0-.513-.9,2.357,2.357,0,0,0-.765-.6,2,2,0,0,0-.9-.214,1.813,1.813,0,0,0-.911.233,2.794,2.794,0,0,0-.765.616,2.719,2.719,0,0,0-.516.9,3.2,3.2,0,0,0-.184,1.079,2.95,2.95,0,0,0,.7,1.978,2.116,2.116,0,0,0,1.661.83Z" transform="translate(-108.395 5430.486)" fill="#48a771"/><path d="M2062.659,370.619,2015.42,288.8l-47.24,81.819h29.414v74.928h35.646V370.619Z" transform="translate(-1487.956 5328.378)" fill="#67e69a"/><path d="M2188.115,250.854l-16.279-28.194-16.276,28.194H2165.7v25.814h12.281V250.854Z" transform="translate(-1603.645 5369.212)" fill="#67e69a"/><path d="M1012.255,146.067a25.587,25.587,0,1,1-25.587-25.587A25.587,25.587,0,0,1,1012.255,146.067Z" transform="translate(-270.438 5522.374)" fill="#67e69a"/><path d="M80.893,0A80.893,80.893,0,1,1,0,80.893,80.893,80.893,0,0,1,80.893,0Z" transform="translate(563.692 6059.482) rotate(-76.64)" fill="#48a771"/><path d="M1976.244,316.187l-9.282-16.077-9.282,16.077h5.781v14.722h7.005V316.187Z" transform="translate(-1481.474 5321.395)" fill="#67e69a"/><path d="M1803.706,994.355H1704.2l5.712-143.375h99.5Z" transform="translate(-1324.974 5026.877)" fill="#efefef"/><g transform="translate(727.826 5849.766)"><path d="M14.793,42.727H4.272L0,0H80.314L64.32,42.727H24.591l-8.54,11.142Z" transform="translate(0)" fill="#67e69a"/><path d="M449.94,201.41c.437.143,52.018,0,52.018,0" transform="translate(-438.591 -191.435)" fill="none" stroke="#fff" stroke-linecap="round" stroke-miterlimit="10" stroke-width="3"/><line x2="47.635" transform="translate(12.071 17.488)" fill="none" stroke="#fff" stroke-linecap="round" stroke-miterlimit="10" stroke-width="3"/><line x2="43.688" transform="translate(12.81 24.755)" fill="none" stroke="#fff" stroke-linecap="round" stroke-miterlimit="10" stroke-width="3"/><line x2="24.627" transform="translate(13.541 32.021)" fill="none" stroke="#fff" stroke-linecap="round" stroke-miterlimit="10" stroke-width="3"/></g></g></svg>