<svg xmlns="http://www.w3.org/2000/svg" xmlns:xlink="http://www.w3.org/1999/xlink" width="505" height="505" viewBox="0 0 505 505">
  <defs>
    <linearGradient id="linear-gradient" x1="0.29" y1="0.126" x2="1.2" y2="0.944" gradientUnits="objectBoundingBox">
      <stop offset="0" stop-color="#8ee0e4"/>
      <stop offset="1" stop-color="#879cfb"/>
    </linearGradient>
    <clipPath id="clip-timeline_illustration_svg">
      <rect width="505" height="505"/>
    </clipPath>
  </defs>
  <g id="timeline_illustration_svg" clip-path="url(#clip-timeline_illustration_svg)">
    <rect width="505" height="505" fill="none"/>
    <g id="Group_6253" data-name="Group 6253" transform="translate(-339 -5592)">
      <g id="Group_6090" data-name="Group 6090" transform="translate(339.418 5775.129)">
        <path id="Union_9" data-name="Union 9" d="M54.3,41.636H15.586L0,0H78.262L74.1,41.636H63.848L62.623,52.493Z" transform="translate(0 0)" fill="#67e69a"/>
        <path id="Path_3845" data-name="Path 3845" d="M500.629,201.41c-.426.139-50.689,0-50.689,0" transform="translate(-433.425 -191.689)" fill="none" stroke="#fff" stroke-linecap="round" stroke-miterlimit="10" stroke-width="3"/>
        <line id="Line_69" data-name="Line 69" x1="46.418" transform="translate(20.082 17.041)" fill="none" stroke="#fff" stroke-linecap="round" stroke-miterlimit="10" stroke-width="3"/>
        <line id="Line_70" data-name="Line 70" x1="42.571" transform="translate(23.209 24.123)" fill="none" stroke="#fff" stroke-linecap="round" stroke-miterlimit="10" stroke-width="3"/>
        <line id="Line_71" data-name="Line 71" x1="23.998" transform="translate(41.07 31.204)" fill="none" stroke="#fff" stroke-linecap="round" stroke-miterlimit="10" stroke-width="3"/>
      </g>
      <path id="Path_3880" data-name="Path 3880" d="M311.542,611.671c-76.106,0-138.022-61.916-138.022-138.022S235.436,335.63,311.542,335.63s138.014,61.916,138.014,138.018S387.645,611.671,311.542,611.671Zm0-273.125c-74.5,0-135.107,60.607-135.107,135.1s60.607,135.107,135.107,135.107,135.1-60.607,135.1-135.107S386.045,338.545,311.542,338.545Z" transform="translate(252.088 5389.54)" fill="#67e69a"/>
      <path id="Path_3881" data-name="Path 3881" d="M293.15,604.672c-82.392,0-149.42-67.027-149.42-149.416S210.757,305.84,293.15,305.84s149.412,67.016,149.412,149.416S375.534,604.672,293.15,604.672Zm0-298.1c-81.987,0-148.689,66.7-148.689,148.685s66.71,148.689,148.689,148.689,148.685-66.7,148.685-148.689S375.133,306.571,293.15,306.571Z" transform="translate(270.48 5407.932)" fill="#67e69a"/>
      <path id="Path_3882" data-name="Path 3882" d="M484.754,518.573a18.866,18.866,0,0,0-4.316-3.26,80.393,80.393,0,0,0-7.48-3.933,78.136,78.136,0,0,0-9.5-3.642,54.478,54.478,0,0,0-10.74-2.208v33.183l4.794,1.148q9.967,2.678,18.128,5.739a48.948,48.948,0,0,1,13.808,7.652,31.754,31.754,0,0,1,8.727,11.026q3.061,6.431,3.061,15.824,0,10.556-3.738,18.032a34.089,34.089,0,0,1-10.166,12.274,45.216,45.216,0,0,1-14.963,7.193,78.235,78.235,0,0,1-17.932,2.782v21.142h-11.5v-21.3a99.592,99.592,0,0,1-26.181-5.467,94.644,94.644,0,0,1-23.109-11.8l11.7-22.826a37.254,37.254,0,0,0,5.272,4.029,63.867,63.867,0,0,0,9.014,4.89,113.3,113.3,0,0,0,11.7,4.507,65.454,65.454,0,0,0,13.334,2.877V563.475q-1.722-.384-3.443-.865t-3.443-1.052a124.264,124.264,0,0,1-16.976-5.85,44.8,44.8,0,0,1-11.987-7.48,27.975,27.975,0,0,1-7.212-10,34.53,34.53,0,0,1-2.4-13.521,41.932,41.932,0,0,1,3.359-17.167,38.458,38.458,0,0,1,9.2-12.928,42.958,42.958,0,0,1,13.9-8.44,63.087,63.087,0,0,1,17.263-3.826V462.76h11.509v19.375a79.2,79.2,0,0,1,23.3,5.177,93.554,93.554,0,0,1,18.7,9.783Zm-58.308,1.913q0,6.5,4.507,9.875t13.716,6.053V505.339q-18.223,1.152-18.223,15.155Zm46.608,62.341a11.645,11.645,0,0,0-5.356-10.166q-5.356-3.661-14.96-6.715V596.83Q473.05,596.252,473.054,582.827Z" transform="translate(116.179 5311.05)" fill="#67e69a"/>
      <path id="Path_3883" data-name="Path 3883" d="M777.735,403.9A31.668,31.668,0,1,1,746.07,372.24,31.669,31.669,0,0,1,777.735,403.9Z" transform="translate(-81.853 5366.937)" fill="#48a771"/>
      <path id="Path_3884" data-name="Path 3884" d="M773.632,431.966a15.262,15.262,0,0,1,.149-2.177,7.658,7.658,0,0,1,.57-2,6.244,6.244,0,0,1,1.213-1.806,7.954,7.954,0,0,1,2.078-1.53c.425-.233.995-.539,1.7-.918a17.116,17.116,0,0,0,2.078-1.308,8.646,8.646,0,0,0,1.756-1.706,3.442,3.442,0,0,0,.765-2.154,3.03,3.03,0,0,0-1.19-2.544,4.319,4.319,0,0,0-2.72-.918,4.029,4.029,0,0,0-1.756.383,6.861,6.861,0,0,0-1.385.891,5.869,5.869,0,0,0-1.064,1.148c-.3.429-.559.807-.792,1.148l-5.1-3.562a9.893,9.893,0,0,1,4.082-4.7,12,12,0,0,1,6.309-1.68,13.422,13.422,0,0,1,3.757.543,9.565,9.565,0,0,1,3.363,1.729,9.014,9.014,0,0,1,2.426,3.061,10.12,10.12,0,0,1,.937,4.549,8.938,8.938,0,0,1-1.148,4.725,10.475,10.475,0,0,1-3.443,3.34,21.936,21.936,0,0,1-2.1,1.236,19.8,19.8,0,0,0-1.955,1.148,5.621,5.621,0,0,0-1.435,1.335,2.92,2.92,0,0,0-.543,1.783Zm.149,12.117v-7.419h6.481v7.419Z" transform="translate(-116.143 5344.534)" fill="#fff"/>
      <path id="Path_3885" data-name="Path 3885" d="M1041.619,352.556A53.659,53.659,0,1,1,987.962,298.9a53.66,53.66,0,0,1,53.657,53.656Z" transform="translate(-217.619 5412.217)" fill="#48a771"/>
      <path id="Path_3886" data-name="Path 3886" d="M976.665,401.92a60.655,60.655,0,1,1-.008-121.31v.731a59.924,59.924,0,1,0,0,119.849Z" transform="translate(-206.321 5423.51)" fill="url(#linear-gradient)"/>
      <path id="Path_3887" data-name="Path 3887" d="M1055.143,369.291a7.385,7.385,0,0,0-1.7-1.282,30.815,30.815,0,0,0-2.938-1.53,29.785,29.785,0,0,0-3.73-1.431,21.342,21.342,0,0,0-4.209-.868v13.039l1.886.452q3.914,1.056,7.12,2.261a19.28,19.28,0,0,1,5.425,3.015,12.531,12.531,0,0,1,3.443,4.331,14.491,14.491,0,0,1,1.2,6.217,15.686,15.686,0,0,1-1.469,7.086,13.39,13.39,0,0,1-3.99,4.821,17.75,17.75,0,0,1-5.881,2.827,30.746,30.746,0,0,1-7.047,1.094v8.287h-4.518V409.23a39.242,39.242,0,0,1-10.288-2.146,37.3,37.3,0,0,1-9.079-4.637l4.591-8.968a14.392,14.392,0,0,0,2.074,1.584,24.9,24.9,0,0,0,3.543,1.913,43.659,43.659,0,0,0,4.591,1.771,25.9,25.9,0,0,0,5.238,1.148v-12.97c-.452-.1-.9-.214-1.358-.341s-.9-.264-1.354-.413a48.449,48.449,0,0,1-6.669-2.3,17.55,17.55,0,0,1-4.71-2.938,10.984,10.984,0,0,1-2.827-3.922,13.559,13.559,0,0,1-.964-5.307,16.474,16.474,0,0,1,1.316-6.745,15.119,15.119,0,0,1,3.619-5.085,16.779,16.779,0,0,1,5.463-3.317,24.834,24.834,0,0,1,6.783-1.507V347.36h4.518v7.61a31.134,31.134,0,0,1,9.159,2.035,36.58,36.58,0,0,1,7.346,3.845Zm-22.91.765a4.535,4.535,0,0,0,1.771,3.88,17.338,17.338,0,0,0,5.387,2.372V364.1q-7.155.436-7.155,5.942Zm18.311,24.486a4.568,4.568,0,0,0-2.108-3.994,23.327,23.327,0,0,0-5.88-2.636v12.109q7.989-.21,7.989-5.486Z" transform="translate(-270.142 5382.298)" fill="#fff"/>
      <path id="Path_3901" data-name="Path 3901" d="M2556.249,995.815l-1-1.175,16.59-14.133h10.078l22.86-19.478,14.3,12.182h10.544l5.33,4.538,16.559-14.106h8.4l34.847-29.682,1,1.171-35.276,30.057h-8.406l-17.125,14.588-5.9-5.023h-10.544l-13.731-11.7-22.294,18.992H2572.41Z" transform="translate(-1850.415 4975.646)" fill="#48a771"/>
      <path id="Path_3902" data-name="Path 3902" d="M2554.875,949.569h-5.735v-1.542h5.093l8.612-8.612,6.259,6.259,14.956-14.952,4.6,4.6,15.166-15.162,9.087,9.087h10.357l15.989-15.993h13.793l10.192-10.192h12.48L2688.1,890.68l1.09,1.09L2676.362,904.6h-12.481l-10.192,10.2H2639.9l-15.993,15.989h-11.635l-8.448-8.448L2588.659,937.5l-4.6-4.6L2569.1,947.859l-6.259-6.263Z" transform="translate(-1846.642 5002.366)" fill="#67e69a"/>
      <path id="Path_3903" data-name="Path 3903" d="M762.861,279.365a5.808,5.808,0,0,1-2.162-.383,5.5,5.5,0,0,1-1.729-1.083,5.137,5.137,0,0,1-1.148-1.6,4.569,4.569,0,0,1-.432-1.974,4.618,4.618,0,0,1,.432-1.963,4.974,4.974,0,0,1,1.148-1.6,5.6,5.6,0,0,1,1.729-1.064,6.019,6.019,0,0,1,4.3,0,5.626,5.626,0,0,1,1.745,1.064,5.022,5.022,0,0,1,1.148,1.6,4.619,4.619,0,0,1,.432,1.963,4.57,4.57,0,0,1-.432,1.974,5.2,5.2,0,0,1-1.148,1.6A5.532,5.532,0,0,1,765,278.982a5.854,5.854,0,0,1-2.143.383Zm-3.627,12.3,9.374-10.935,8.643-11.367,2.028,1.794L770.2,281.89l-8.941,11.566Zm3.627-14.539a1.814,1.814,0,0,0,.911-.233,2.774,2.774,0,0,0,1.263-1.53,3.193,3.193,0,0,0,.184-1.079,2.946,2.946,0,0,0-.7-1.978,2.127,2.127,0,0,0-1.66-.815,1.833,1.833,0,0,0-.918.233,2.821,2.821,0,0,0-.746.612,2.853,2.853,0,0,0-.516.88,3.06,3.06,0,0,0-.18,1.067,3,3,0,0,0,.7,1.993,2.1,2.1,0,0,0,1.664.865Zm12.825,16.417a5.8,5.8,0,0,1-2.158-.383,5.67,5.67,0,0,1-1.729-1.064,4.971,4.971,0,0,1-1.148-1.58,4.733,4.733,0,0,1,0-3.952,5.134,5.134,0,0,1,1.148-1.6,5.5,5.5,0,0,1,1.729-1.083,6.06,6.06,0,0,1,4.32,0,5.713,5.713,0,0,1,1.745,1.083,4.793,4.793,0,0,1,1.148,1.6,4.89,4.89,0,0,1,0,3.952,4.66,4.66,0,0,1-1.148,1.58,5.891,5.891,0,0,1-1.745,1.064,5.809,5.809,0,0,1-2.162.4Zm0-2.227a1.816,1.816,0,0,0,.914-.233,2.779,2.779,0,0,0,.765-.612,2.82,2.82,0,0,0,.513-.884,3.2,3.2,0,0,0,0-2.177,3.242,3.242,0,0,0-.513-.9,2.357,2.357,0,0,0-.765-.6,2,2,0,0,0-.9-.214,1.813,1.813,0,0,0-.911.233,2.794,2.794,0,0,0-.765.616,2.719,2.719,0,0,0-.516.9,3.2,3.2,0,0,0-.184,1.079,2.95,2.95,0,0,0,.7,1.978,2.116,2.116,0,0,0,1.661.83Z" transform="translate(-108.395 5430.486)" fill="#48a771"/>
      <path id="Path_3908" data-name="Path 3908" d="M2062.659,370.619,2015.42,288.8l-47.24,81.819h29.414v74.928h35.646V370.619Z" transform="translate(-1487.956 5328.378)" fill="#67e69a"/>
      <path id="Path_3910" data-name="Path 3910" d="M2188.115,250.854l-16.279-28.194-16.276,28.194H2165.7v25.814h12.281V250.854Z" transform="translate(-1603.645 5369.212)" fill="#67e69a"/>
      <path id="Path_3913" data-name="Path 3913" d="M1012.255,146.067a25.587,25.587,0,1,1-25.587-25.587A25.587,25.587,0,0,1,1012.255,146.067Z" transform="translate(-270.438 5522.374)" fill="#67e69a"/>
      <path id="Path_3914" data-name="Path 3914" d="M977.114,147.948a12.537,12.537,0,0,1,.118-1.762,6.161,6.161,0,0,1,.46-1.617,4.767,4.767,0,0,1,.986-1.46,6.271,6.271,0,0,1,1.67-1.236l1.315-.736a16.419,16.419,0,0,0,1.683-1.065,7.444,7.444,0,0,0,1.42-1.381,2.827,2.827,0,0,0,.592-1.736,2.459,2.459,0,0,0-.96-2.064,3.511,3.511,0,0,0-2.2-.736,3.262,3.262,0,0,0-1.42.3,5.4,5.4,0,0,0-1.118.71,5.269,5.269,0,0,0-.855.947c-.25.342-.46.657-.644.92l-4.115-2.88a8.007,8.007,0,0,1,3.3-3.8,9.625,9.625,0,0,1,5.088-1.315,11.011,11.011,0,0,1,3.038.434,7.89,7.89,0,0,1,2.722,1.407,7.4,7.4,0,0,1,1.959,2.472,8.237,8.237,0,0,1,.762,3.682,7.168,7.168,0,0,1-.947,3.813,8.4,8.4,0,0,1-2.774,2.63,16.33,16.33,0,0,1-1.7,1,17.3,17.3,0,0,0-1.578.921,4.368,4.368,0,0,0-1.157,1.078,2.34,2.34,0,0,0-.447,1.446Zm.118,9.783v-6h5.259v6Z" transform="translate(-266.354 5525.07)" fill="#fff"/>
      <path id="Path_3915" data-name="Path 3915" d="M2642.548,319.118l-13.082-22.668-13.1,22.668h8.153V339.88h9.874V319.118Z" transform="translate(-1921.283 5424.902)" fill="#fff"/>
      <path id="Path_3954" data-name="Path 3954" d="M80.893,0A80.893,80.893,0,1,1,0,80.893,80.893,80.893,0,0,1,80.893,0Z" transform="translate(563.692 6059.482) rotate(-76.64)" fill="#48a771"/>
      <path id="Path_3918" data-name="Path 3918" d="M628.276,952.768a61.483,61.483,0,1,1,60.94,62.023A61.483,61.483,0,0,1,628.276,952.768Z" transform="translate(-28.678 5046.144)" fill="#67e69a"/>
      <path id="Path_3919" data-name="Path 3919" d="M766.616,977.4a12.315,12.315,0,0,0-2.33-1.993,27.242,27.242,0,0,0-3.585-2.066,29.6,29.6,0,0,0-4.492-1.733,26.166,26.166,0,0,0-5.047-.979l-.474,18.579,1.7.383a79.762,79.762,0,0,1,8.685,2.827,25.033,25.033,0,0,1,6.5,3.669,14.229,14.229,0,0,1,4.017,5.192,16.357,16.357,0,0,1,1.293,7.354,17.77,17.77,0,0,1-1.913,8.08,15.845,15.845,0,0,1-4.855,5.49,21.206,21.206,0,0,1-7.086,3.187,34.177,34.177,0,0,1-8.6.991l-.241,9.427-4.668-.119.245-9.607a45.151,45.151,0,0,1-12.243-2.873A38.646,38.646,0,0,1,723,1017.061l4.8-8.5a15.984,15.984,0,0,0,2.812,2.406,33.025,33.025,0,0,0,4.335,2.537,40.79,40.79,0,0,0,5.467,2.2,35.41,35.41,0,0,0,6.21,1.416l.471-18.583c-.356-.126-.727-.241-1.113-.34a11.2,11.2,0,0,1-1.113-.344A76.317,76.317,0,0,1,736.632,995a20.847,20.847,0,0,1-5.793-3.516,13.26,13.26,0,0,1-3.443-4.714,15.293,15.293,0,0,1-1.048-6.451,18.994,18.994,0,0,1,1.726-7.771,17.141,17.141,0,0,1,4.492-5.77,20.449,20.449,0,0,1,6.607-3.692,30.307,30.307,0,0,1,8.256-1.53l.233-9.068,4.668.119-.233,9.068a34.624,34.624,0,0,1,10.713,2.609,38.863,38.863,0,0,1,8.586,4.974Zm-29.682,1.576a6.528,6.528,0,0,0,2.506,5.739,25.137,25.137,0,0,0,7.946,3.524l.452-17.684q-5.479.134-8.142,2.353a7.8,7.8,0,0,0-2.778,6.068Zm25.183,30.466a6.642,6.642,0,0,0-2.988-6.052,33.714,33.714,0,0,0-8.708-3.86l-.452,17.776q5.739.057,8.9-1.913a6.719,6.719,0,0,0,3.237-5.95Z" transform="translate(-87.162 5008.69)" fill="#48a771"/>
      <path id="Path_3897" data-name="Path 3897" d="M1810.695,1114.824l-1.132-.046,5.689-142.786h-98.373l-5.689,142.832-1.129-.046L1715.8,970.86H1816.43Z" transform="translate(-1328.592 4952.864)" fill="#385988"/>
      <path id="Path_3898" data-name="Path 3898" d="M1827.347,1114.824l-5.689-142.832h-98.373l5.689,142.786-1.129.046L1722.11,970.86h100.635l5.735,143.918Z" transform="translate(-1336.032 4952.864)" fill="#385988"/>
      <path id="Path_3899" data-name="Path 3899" d="M1729.352,994.355h99.506l-5.712-143.375H1723.64Z" transform="translate(-1336.977 5026.877)" fill="#bbb7b5"/>
      <path id="Path_3909" data-name="Path 3909" d="M1976.244,316.187l-9.282-16.077-9.282,16.077h5.781v14.722h7.005V316.187Z" transform="translate(-1481.474 5321.395)" fill="#67e69a"/>
      <path id="Path_3890" data-name="Path 3890" d="M196.608,362.594a2.751,2.751,0,1,1-1.393-1.582A2.755,2.755,0,0,1,196.608,362.594Z" transform="translate(241.143 5374.043)" fill="#67e69a"/>
      <path id="Path_3891" data-name="Path 3891" d="M216.638,375.514a2.751,2.751,0,1,1-1.393-1.582,2.755,2.755,0,0,1,1.393,1.582Z" transform="translate(228.777 5366.066)" fill="#67e69a"/>
      <path id="Path_3892" data-name="Path 3892" d="M188.69,385.069a2.755,2.755,0,1,1-3.5-1.71A2.755,2.755,0,0,1,188.69,385.069Z" transform="translate(246.032 5360.164)" fill="#67e69a"/>
      <path id="Path_3900" data-name="Path 3900" d="M1803.706,994.355H1704.2l5.712-143.375h99.5Z" transform="translate(-1324.974 5026.877)" fill="#efefef"/>
      <rect id="Rectangle_717" data-name="Rectangle 717" width="5.039" height="27.999" transform="translate(398.493 5902.11)" fill="#fff"/>
      <rect id="Rectangle_718" data-name="Rectangle 718" width="5.039" height="35.463" transform="translate(407.339 5894.649)" fill="#fff"/>
      <rect id="Rectangle_719" data-name="Rectangle 719" width="5.035" height="31.557" transform="translate(416.617 5898.552)" fill="#fff"/>
      <rect id="Rectangle_720" data-name="Rectangle 720" width="5.035" height="22.489" transform="translate(426.15 5907.619)" fill="#fff"/>
      <rect id="Rectangle_721" data-name="Rectangle 721" width="5.035" height="18.782" transform="translate(435.857 5911.327)" fill="#fff"/>
      <rect id="Rectangle_722" data-name="Rectangle 722" width="5.035" height="32.601" transform="translate(444.7 5897.507)" fill="#fff"/>
      <rect id="Rectangle_723" data-name="Rectangle 723" width="5.035" height="26.621" transform="translate(453.981 5903.487)" fill="#fff"/>
      <rect id="Rectangle_724" data-name="Rectangle 724" width="5.035" height="41.125" transform="translate(463.516 5888.983)" fill="#fff"/>
      <rect id="Rectangle_725" data-name="Rectangle 725" width="5.039" height="17.756" transform="translate(398.493 5912.353)" fill="#48a771"/>
      <rect id="Rectangle_726" data-name="Rectangle 726" width="5.039" height="22.489" transform="translate(407.339 5907.619)" fill="#48a771"/>
      <rect id="Rectangle_727" data-name="Rectangle 727" width="5.035" height="20.014" transform="translate(416.617 5910.095)" fill="#48a771"/>
      <rect id="Rectangle_728" data-name="Rectangle 728" width="5.035" height="13.999" transform="translate(426.15 5916.109)" fill="#48a771"/>
      <rect id="Rectangle_729" data-name="Rectangle 729" width="5.035" height="10.009" transform="translate(435.857 5920.1)" fill="#48a771"/>
      <rect id="Rectangle_730" data-name="Rectangle 730" width="5.035" height="14.914" transform="translate(444.7 5915.195)" fill="#48a771"/>
      <rect id="Rectangle_731" data-name="Rectangle 731" width="5.035" height="13.311" transform="translate(453.981 5916.798)" fill="#48a771"/>
      <rect id="Rectangle_732" data-name="Rectangle 732" width="5.035" height="30.562" transform="translate(463.516 5899.547)" fill="#48a771"/>
      <rect id="Rectangle_733" data-name="Rectangle 733" width="0.459" height="37.77" transform="translate(394.315 5941.625)" fill="#fff"/>
      <rect id="Rectangle_734" data-name="Rectangle 734" width="0.459" height="37.77" transform="translate(409.233 5941.625)" fill="#fff"/>
      <rect id="Rectangle_735" data-name="Rectangle 735" width="0.459" height="37.77" transform="translate(424.146 5941.625)" fill="#fff"/>
      <rect id="Rectangle_736" data-name="Rectangle 736" width="0.459" height="37.77" transform="translate(439.064 5941.625)" fill="#fff"/>
      <rect id="Rectangle_737" data-name="Rectangle 737" width="0.459" height="37.77" transform="translate(453.977 5941.625)" fill="#fff"/>
      <rect id="Rectangle_738" data-name="Rectangle 738" width="0.459" height="37.77" transform="translate(468.891 5941.625)" fill="#fff"/>
      <path id="Path_3904" data-name="Path 3904" d="M105.89,949.362s6.634-24.249,15.335-21.678,5.915,13.751,13.081,13.751c6.026,0,6.03-18.889,13.731-18.675s7.025,14.191,15.633,5.207,7.189-10.047,11.608-10.047v31.442Z" transform="translate(293.843 5030.034)" fill="#67e69a"/>
      <path id="Path_3905" data-name="Path 3905" d="M92.33,953.416s3.551-14.96,9.821-12.84,2.491,10.556,9.446,10.556,5.529-17.737,13.391-16.5,3.378,11.363,8.964,11.65,6-22.715,18.981-21.77,13.984,28.9,13.984,28.9Z" transform="translate(302.214 5025.979)" fill="#48a771"/>
      <path id="Path_3906" data-name="Path 3906" d="M124.651,1046.428H84.681a1.247,1.247,0,0,1-1.251-1.251h0a1.247,1.247,0,0,1,1.251-1.247h39.97a1.247,1.247,0,0,1,1.251,1.247h0a1.247,1.247,0,0,1-1.251,1.251Z" transform="translate(307.71 4952.235)" fill="#fff"/>
      <path id="Path_3907" data-name="Path 3907" d="M96.465,1032.688H84.681a1.247,1.247,0,0,1-1.251-1.247h0a1.251,1.251,0,0,1,1.251-1.251H96.465a1.255,1.255,0,0,1,1.251,1.251h0A1.251,1.251,0,0,1,96.465,1032.688Z" transform="translate(307.71 4960.717)" fill="#fff"/>
      <path id="Path_3922" data-name="Path 3922" d="M315.88,912.06Z" transform="translate(164.218 5033.651)" fill="#363957"/>
      <g id="Group_6089" data-name="Group 6089" transform="translate(727.826 5849.766)">
        <path id="Union_3" data-name="Union 3" d="M14.793,42.727H4.272L0,0H80.314L64.32,42.727H24.591l-8.54,11.142Z" transform="translate(0)" fill="#67e69a"/>
        <path id="Path_3845-2" data-name="Path 3845" d="M449.94,201.41c.437.143,52.018,0,52.018,0" transform="translate(-438.591 -191.435)" fill="none" stroke="#fff" stroke-linecap="round" stroke-miterlimit="10" stroke-width="3"/>
        <line id="Line_69-2" data-name="Line 69" x2="47.635" transform="translate(12.071 17.488)" fill="none" stroke="#fff" stroke-linecap="round" stroke-miterlimit="10" stroke-width="3"/>
        <line id="Line_70-2" data-name="Line 70" x2="43.688" transform="translate(12.81 24.755)" fill="none" stroke="#fff" stroke-linecap="round" stroke-miterlimit="10" stroke-width="3"/>
        <line id="Line_71-2" data-name="Line 71" x2="24.627" transform="translate(13.541 32.021)" fill="none" stroke="#fff" stroke-linecap="round" stroke-miterlimit="10" stroke-width="3"/>
      </g>
    </g>
  </g>
</svg>
