<svg xmlns="http://www.w3.org/2000/svg" width="542.706" height="367.385" viewBox="0 0 542.706 367.385"><g transform="translate(-1055.294 -5098.189)"><path d="M537.24,288.319a6.149,6.149,0,1,0,6.149-6.149A6.146,6.146,0,0,0,537.24,288.319Z" transform="translate(839.989 5169.605)" fill="none" stroke="#81d3e4" stroke-linecap="round" stroke-miterlimit="10" stroke-width="3" opacity="0.45"/><path d="M537.24,293.946c0,6.509,5.637,11.776,12.6,11.776s12.6-5.267,12.6-11.776-5.638-11.776-12.6-11.776S537.24,287.437,537.24,293.946Z" transform="translate(828.948 5002.573)" fill="none" stroke="rgba(96,118,250,0.56)" stroke-linecap="round" stroke-miterlimit="10" stroke-width="4"/><path d="M959.605,671.319A142.617,142.617,0,1,1,904.525,558.7,142.633,142.633,0,0,1,959.605,671.319Z" transform="translate(489.336 4623.05)" fill="#e14b4b"/><g transform="translate(1185.252 5148.998)"><g transform="translate(0 0)"><path d="M1552.94,1473.161Z" transform="translate(-1552.94 -1473.161)" fill="#bfc9ff"/></g></g><path d="M55.652,14.757h0a143.977,143.977,0,0,0-55.65,0V1.043H4.06V0h4.2V1.043H14.89V0h4.205V1.043h6.632V0h4.2V1.043h6.629V0h4.2V1.043h6.632V0h4.2V1.043h4.055V14.756Z" transform="translate(1278.499 5141.678)" fill="#ef9797"/><path d="M126.476,0A126.444,126.444,0,1,1,0,126.444,126.46,126.46,0,0,1,126.476,0Z" transform="translate(1179.722 5420.687) rotate(-89.927)" fill="#fff"/><g transform="translate(1192.819 5182.832)"><rect width="3.507" height="12.739" transform="translate(111.756)" fill="#e14b4b"/><rect width="3.507" height="12.739" transform="translate(111.756 214.34)" fill="#e14b4b"/><rect width="3.507" height="12.736" transform="translate(227.02 111.784) rotate(90)" fill="#e14b4b"/><rect width="3.507" height="12.736" transform="translate(12.736 111.784) rotate(90)" fill="#e14b4b"/><rect width="3.507" height="12.736" transform="matrix(-0.707, 0.707, -0.707, -0.707, 195.02, 192.596)" fill="#e14b4b"/><rect width="3.507" height="12.736" transform="matrix(-0.707, 0.707, -0.707, -0.707, 43.498, 41.038)" fill="#e14b4b"/><rect width="3.507" height="12.736" transform="matrix(-0.707, -0.707, 0.707, -0.707, 34.497, 195.069)" fill="#e14b4b"/><rect width="3.507" height="12.736" transform="matrix(-0.707, -0.707, 0.707, -0.707, 186.027, 43.5)" fill="#e14b4b"/></g><g transform="translate(1199.022 5189.041)"><path d="M901.775,863.473a107.317,107.317,0,1,1,75.877-31.437A106.6,106.6,0,0,1,901.775,863.473Zm0-214.34a107.005,107.005,0,1,0,106.979,107.005A107.115,107.115,0,0,0,901.775,649.133Z" transform="translate(-794.47 -648.81)" fill="#8b84ab"/></g><g transform="translate(1302.592 5203.536)"><path d="M7.438,113.214H0L1.88,0H5.557L7.438,113.213ZM3.717,33.637a.888.888,0,0,0-.884.877l-.875,75.7a.889.889,0,0,0,.258.635.875.875,0,0,0,.627.261H4.594a.879.879,0,0,0,.881-.9L4.6,34.513A.893.893,0,0,0,3.717,33.637Z" fill="#e14b4b"/></g><g transform="translate(1291.276 5279.525)"><path d="M1.337,24.487h0L0,18.917,85.095,0l.663,2.756L1.338,24.487ZM59.577,6.9a.687.687,0,0,0-.15.017L2.6,19.846a.675.675,0,0,0-.51.822L2.4,21.98a.681.681,0,0,0,.665.522.748.748,0,0,0,.162-.02L59.744,8.239a.688.688,0,0,0,.5-.822A.68.68,0,0,0,59.577,6.9Z" transform="translate(0)" fill="#e14b4b"/></g><path d="M1148.752,995.531a7.641,7.641,0,1,1-7.641-7.641A7.639,7.639,0,0,1,1148.752,995.531Z" transform="translate(165.216 4300.838)" fill="#e14b4b" opacity="0.71"/><path d="M1153.012,1002.831a4.6,4.6,0,1,1-4.6-4.6A4.6,4.6,0,0,1,1153.012,1002.831Z" transform="translate(157.916 4293.539)" fill="#e14b4b"/><g transform="translate(1413.365 5316.897)"><g transform="translate(0 0)"><ellipse cx="60.201" cy="60.187" rx="60.201" ry="60.187" transform="translate(0 120.391) rotate(-89.312)" fill="#ef9797"/><ellipse cx="45.743" cy="45.754" rx="45.743" ry="45.754" transform="translate(15.089 15.248) rotate(-0.117)" fill="#e14b4b"/><g transform="translate(39.763 32.597)"><path d="M1799.05,744.814a9.128,9.128,0,0,0-1.526-1.693,20.191,20.191,0,0,0-2.446-1.873,22.318,22.318,0,0,0-3.146-1.711,19.574,19.574,0,0,0-3.631-1.214l-2.149,13.665,1.211.462a59.286,59.286,0,0,1,6.133,2.925,18.568,18.568,0,0,1,4.445,3.337,10.6,10.6,0,0,1,2.481,4.213,12.241,12.241,0,0,1,.244,5.551,13.286,13.286,0,0,1-2.193,5.777,11.779,11.779,0,0,1-4.113,3.581,15.731,15.731,0,0,1-5.536,1.667,25.421,25.421,0,0,1-6.444-.1l-1.091,6.932-3.431-.541,1.111-7.065a33.657,33.657,0,0,1-8.746-3.3,28.786,28.786,0,0,1-7.173-5.559l4.363-5.809a11.781,11.781,0,0,0,1.843,2.049,24.2,24.2,0,0,0,2.955,2.29,30.067,30.067,0,0,0,3.822,2.158,26.324,26.324,0,0,0,4.442,1.646l2.149-13.665c-.25-.129-.515-.25-.788-.362a8.445,8.445,0,0,1-.788-.362,56.1,56.1,0,0,1-5.8-2.908,15.467,15.467,0,0,1-3.934-3.155,9.806,9.806,0,0,1-2.073-3.81,11.4,11.4,0,0,1-.15-4.86,14.1,14.1,0,0,1,2.026-5.568,12.733,12.733,0,0,1,3.849-3.825,15.276,15.276,0,0,1,5.23-2.087,22.552,22.552,0,0,1,6.241-.338l1.047-6.668,3.431.541-1.047,6.668a25.691,25.691,0,0,1,7.65,2.963,29.067,29.067,0,0,1,5.854,4.507ZM1777,743.106a4.829,4.829,0,0,0,1.294,4.466,19.019,19.019,0,0,0,5.524,3.372l2.043-13.006q-4.057-.437-6.236.947A5.806,5.806,0,0,0,1777,743.106Zm15.629,24.916a4.942,4.942,0,0,0-1.62-4.754,25.077,25.077,0,0,0-6.047-3.69l-2.055,13.071a12.183,12.183,0,0,0,6.75-.562A5.038,5.038,0,0,0,1792.629,768.022Z" transform="translate(-1763.05 -724.59)" fill="#ef9797"/></g></g></g><g transform="translate(1151.498 5255.331)"><g transform="translate(54.16 61.461)"><path d="M817.365,1091.3s-.708,3.143-.026,4.016,1-.247,1-.247-.335,1.1.526,1.47,1.164-.961,1.164-.961a.933.933,0,0,0,.944.956c.97.05.967-1.114.967-1.114s.676,1.305,1.464.4a4.828,4.828,0,0,0,.8-3.842s-.182-.547-1.117-.529a1.291,1.291,0,0,0-1.858-.814s-1.211-1.1-1.952.009A1.123,1.123,0,0,0,817.365,1091.3Z" transform="translate(-817.042 -1090.147)" fill="#efaa88"/></g><g transform="translate(0 0)"><path d="M40.145,0A40.133,40.133,0,1,1,0,40.133,40.139,40.139,0,0,1,40.145,0Z" transform="translate(0 80.29) rotate(-89.48)" fill="#ef9797"/><ellipse cx="30.511" cy="30.502" rx="30.511" ry="30.502" transform="translate(9.917 70.962) rotate(-89.873)" fill="#e14b4b"/><g transform="translate(24.507 23.669)"><path d="M731.662,966.057a6.175,6.175,0,0,0-1.508.2,13.17,13.17,0,0,0-1.949.644,14.871,14.871,0,0,0-2.126,1.088,12.962,12.962,0,0,0-2.034,1.543l6.715,6.321.711-.494a39.373,39.373,0,0,1,3.919-2.278,12.343,12.343,0,0,1,3.51-1.194,7.066,7.066,0,0,1,3.252.217,8.15,8.15,0,0,1,3.149,1.955,8.811,8.811,0,0,1,2.355,3.381,7.841,7.841,0,0,1,.423,3.613,10.465,10.465,0,0,1-1.164,3.675,16.849,16.849,0,0,1-2.478,3.51l3.407,3.207-1.587,1.688-3.472-3.266a22.372,22.372,0,0,1-5.107,3.575,19.149,19.149,0,0,1-5.759,1.861l-1.558-4.586a7.838,7.838,0,0,0,1.82-.244,16.145,16.145,0,0,0,2.372-.764,19.968,19.968,0,0,0,2.622-1.294,17.189,17.189,0,0,0,2.575-1.829l-6.715-6.321a5.161,5.161,0,0,0-.494.3c-.165.112-.329.209-.494.3a38.5,38.5,0,0,1-3.781,2.1,10.267,10.267,0,0,1-3.216.979,6.56,6.56,0,0,1-2.878-.291,7.627,7.627,0,0,1-2.731-1.746,9.38,9.38,0,0,1-2.3-3.207,8.458,8.458,0,0,1-.659-3.557,10.2,10.2,0,0,1,.817-3.666,15,15,0,0,1,2.161-3.566l-3.278-3.084,1.588-1.687,3.278,3.084a17.153,17.153,0,0,1,4.507-3.1,19.35,19.35,0,0,1,4.68-1.529Zm-9.231,11.5a3.224,3.224,0,0,0,2.946.967,12.627,12.627,0,0,0,3.934-1.776l-6.391-6.015a6.468,6.468,0,0,0-1.823,3.79A3.856,3.856,0,0,0,722.43,977.561Zm19.595.761a3.29,3.29,0,0,0-3.225-.894,16.761,16.761,0,0,0-4.307,1.943l6.424,6.047a8.1,8.1,0,0,0,2.228-3.931A3.362,3.362,0,0,0,742.025,978.323Z" transform="translate(-716.18 -961.6)" fill="#ef9797"/></g></g><g transform="translate(23.36 58.031)"><path d="M712.79,1078.877s.867-.908,1.173.024-1.1,4.872-1.282,5.251c0,0-.162.359-.365.159S712.79,1078.877,712.79,1078.877Z" transform="translate(-712.278 -1078.48)" fill="#eea987"/></g><g transform="translate(6.708 57.061)"><path d="M656.87,1075.606s-.829-.944-1.173-.023.909,5.045,1.064,5.3c0,0,.271.423.482.232S656.87,1075.606,656.87,1075.606Z" transform="translate(-655.638 -1075.179)" fill="#eea987"/></g></g><g transform="translate(1389.75 5098.189)"><circle cx="30.95" cy="30.95" r="30.95" transform="translate(0 43.769) rotate(-45)" fill="#ef9797" opacity="0.39"/><g transform="translate(22.75 22.831)"><path d="M16.9,33.794A16.9,16.9,0,0,1,4.949,4.949a16.9,16.9,0,1,1,23.9,23.9A16.786,16.786,0,0,1,16.9,33.794Zm0-25.26A8.363,8.363,0,1,0,25.261,16.9,8.373,8.373,0,0,0,16.9,8.534Z" transform="translate(4.125 4.046)" fill="#ef9797"/><path d="M120.717,225.186l-1.473-6.006a1,1,0,0,0-.975-.759h-4.862a1.007,1.007,0,0,0-.975.759l-1.473,6.006,4.884-.238Z" transform="translate(-94.822 -218.42)" fill="#ef9797"/><path d="M110.617,225.434l-5.292-3.207a1.011,1.011,0,0,0-1.235.147l-1.519,1.519-.408.408-1.519,1.519a1.011,1.011,0,0,0-.147,1.235l3.207,5.292,3.275-3.626Z" transform="translate(-96.236 -217.932)" fill="#ef9797"/><path d="M103.486,232.69l-6.006,1.473a1,1,0,0,0-.759.975V240a1.007,1.007,0,0,0,.759.975l6.006,1.473-.238-4.884Z" transform="translate(-96.72 -216.518)" fill="#ef9797"/><path d="M103.734,242.86l-3.207,5.292a1.011,1.011,0,0,0,.147,1.235l1.519,1.519.408.408,1.519,1.519a1.011,1.011,0,0,0,1.235.147l5.292-3.207-3.626-3.275Z" transform="translate(-96.232 -215.163)" fill="#ef9797"/><path d="M110.99,249.58l1.473,6.006a1,1,0,0,0,.975.759H118.3a1.007,1.007,0,0,0,.975-.759l1.473-6.006-4.884.238Z" transform="translate(-94.818 -214.267)" fill="#ef9797"/><path d="M121.16,249.733l5.292,3.207a1.011,1.011,0,0,0,1.235-.147l1.519-1.519.408-.408,1.519-1.519a1.011,1.011,0,0,0,.147-1.235l-3.207-5.292-3.275,3.626Z" transform="translate(-93.463 -215.168)" fill="#ef9797"/><path d="M127.88,242.417l6.006-1.473a1,1,0,0,0,.759-.975v-4.862a1.007,1.007,0,0,0-.759-.975l-6.006-1.473.238,4.884Z" transform="translate(-92.567 -216.522)" fill="#ef9797"/><path d="M128.033,232.317l3.207-5.292a1.011,1.011,0,0,0-.147-1.235l-1.519-1.519-.408-.408-1.519-1.519a1.011,1.011,0,0,0-1.235-.147L121.12,225.4l3.626,3.275Z" transform="translate(-93.468 -217.936)" fill="#ef9797"/></g></g><g transform="translate(1087.039 5359.752)"><ellipse cx="33.78" cy="33.78" rx="33.78" ry="33.78" transform="translate(0 56.838) rotate(-57.276)" fill="#e14b4b"/><path d="M502.571,304.5a7.99,7.99,0,1,1-7.991-7.99A7.987,7.987,0,0,1,502.571,304.5Z" transform="translate(-447.897 -263.874)" fill="#fff"/><path d="M510.6,323.037H481.15a15.011,15.011,0,0,1,29.451,0Z" transform="translate(-449.186 -260.455)" fill="#fff"/></g><g transform="translate(1055.294 5130.607)"><line x2="71.153" transform="translate(17.521 34.85)" fill="none" stroke="#fff" stroke-linecap="round" stroke-miterlimit="10" stroke-width="3"/><path d="M72.089,60.152H5.334L0,0H106.708l-6.016,60.152H85.882l-1.77,15.685Z" fill="#ef9797"/><path d="M101.242,288.88c-.615.2-75.212,0-75.212,0" transform="translate(-10.51 -274.837)" fill="none" stroke="#fff" stroke-linecap="round" stroke-miterlimit="10" stroke-width="3"/><line x1="73.277" transform="translate(16.425 24.62)" fill="none" stroke="#fff" stroke-linecap="round" stroke-miterlimit="10" stroke-width="3"/><line x1="72.182" transform="translate(17.521 35.309)" fill="none" stroke="#fff" stroke-linecap="round" stroke-miterlimit="10" stroke-width="3"/><line x1="37.175" transform="translate(18.438 45.081)" fill="none" stroke="#fff" stroke-linecap="round" stroke-miterlimit="10" stroke-width="3"/></g><g transform="translate(1491.293 5211.832)"><line x1="71.153" transform="translate(18.034 34.85)" fill="none" stroke="#fff" stroke-linecap="round" stroke-miterlimit="10" stroke-width="3"/><path d="M0,75.838,5.333,15.687H72.089L84.112,0l1.77,15.687h14.81l6.015,60.151Z" transform="translate(106.707 75.838) rotate(180)" fill="#e14b4b"/><path d="M26.03,288.88c.615.2,75.212,0,75.212,0" transform="translate(-10.054 -274.837)" fill="none" stroke="#fff" stroke-linecap="round" stroke-miterlimit="10" stroke-width="3"/><line x2="73.277" transform="translate(17.005 24.619)" fill="none" stroke="#fff" stroke-linecap="round" stroke-miterlimit="10" stroke-width="3"/><line x2="72.182" transform="translate(17.005 35.308)" fill="none" stroke="#fff" stroke-linecap="round" stroke-miterlimit="10" stroke-width="3"/><line x2="37.175" transform="translate(51.095 45.08)" fill="none" stroke="#fff" stroke-linecap="round" stroke-miterlimit="10" stroke-width="3"/></g></g></svg>