<svg xmlns="http://www.w3.org/2000/svg" xmlns:xlink="http://www.w3.org/1999/xlink" width="566.263" height="402.994" viewBox="0 0 566.263 402.994"><defs><linearGradient id="a" x1="0.5" x2="0.5" y2="2.017" gradientUnits="objectBoundingBox"><stop offset="0" stop-color="#81d3e4"/><stop offset="1" stop-color="#60cbfa"/></linearGradient></defs><g transform="translate(-89.387 -43.83)"><g transform="translate(519.316 217.5)"><path d="M11127.14-1346.726h-15.864l-6.44-64.427h121.109l-24.119,64.427h-59.91l-12.879,16.8Z" transform="translate(-11104.834 1411.154)" fill="#5badc5"/><path d="M449.94,201.41c.659.216,78.44,0,78.44,0" transform="translate(-432.827 -186.369)" fill="none" stroke="#fff" stroke-linecap="round" stroke-miterlimit="10" stroke-width="3"/><line x2="71.83" transform="translate(18.203 26.37)" fill="none" stroke="#fff" stroke-linecap="round" stroke-miterlimit="10" stroke-width="3"/><line x2="65.878" transform="translate(19.317 37.328)" fill="none" stroke="#fff" stroke-linecap="round" stroke-miterlimit="10" stroke-width="3"/><line x2="37.136" transform="translate(20.418 48.286)" fill="none" stroke="#fff" stroke-linecap="round" stroke-miterlimit="10" stroke-width="3"/></g><g transform="translate(442.114 116.408)"><circle cx="32.705" cy="32.705" r="32.705" transform="translate(0 63.703) rotate(-76.874)" fill="#7ad1e8"/><rect width="6.563" height="11.197" transform="translate(24.569 43.059)" fill="#fff"/><rect width="6.563" height="22.394" transform="translate(35.994 31.861)" fill="#fff"/><rect width="6.563" height="28.945" transform="translate(47.419 25.299)" fill="#fff"/></g><g transform="translate(89.387 228.786)"><circle cx="32.705" cy="32.705" r="32.705" transform="translate(0 46.252) rotate(-45)" fill="#77d0ea"/><path d="M11552.619-1386.728a17.738,17.738,0,0,1-12.626-5.23,17.741,17.741,0,0,1-5.229-12.626,17.741,17.741,0,0,1,5.229-12.626,17.738,17.738,0,0,1,12.626-5.23,17.738,17.738,0,0,1,12.626,5.23,17.741,17.741,0,0,1,5.229,12.626,17.741,17.741,0,0,1-5.229,12.626A17.738,17.738,0,0,1,11552.619-1386.728Zm0-26.695a8.849,8.849,0,0,0-8.839,8.839,8.847,8.847,0,0,0,8.839,8.836,8.846,8.846,0,0,0,8.837-8.836A8.848,8.848,0,0,0,11552.619-1413.422Z" transform="translate(-11506.363 1450.841)" fill="#fff"/><path d="M121.271,225.569l-1.557-6.347a1.051,1.051,0,0,0-1.03-.8h-5.138a1.064,1.064,0,0,0-1.03.8l-1.557,6.347,5.161-.251Z" transform="translate(-69.866 -194.294)" fill="#fff"/><path d="M111.2,225.625l-5.593-3.389a1.068,1.068,0,0,0-1.305.156l-1.6,1.6-.431.431-1.6,1.6a1.068,1.068,0,0,0-.156,1.305l3.389,5.593,3.461-3.832Z" transform="translate(-71.962 -193.57)" fill="#fff"/><path d="M103.869,232.69l-6.347,1.557a1.051,1.051,0,0,0-.8,1.03v5.138a1.064,1.064,0,0,0,.8,1.03L103.869,243l-.251-5.161Z" transform="translate(-72.679 -191.475)" fill="#fff"/><path d="M103.924,242.86l-3.389,5.593a1.068,1.068,0,0,0,.156,1.305l1.6,1.6.431.431,1.6,1.6a1.068,1.068,0,0,0,1.305.156l5.593-3.389L107.4,246.7Z" transform="translate(-71.956 -189.465)" fill="#fff"/><path d="M110.99,249.58l1.557,6.347a1.051,1.051,0,0,0,1.03.8h5.138a1.064,1.064,0,0,0,1.03-.8l1.557-6.347-5.161.251Z" transform="translate(-69.86 -188.138)" fill="#fff"/><path d="M121.16,250.125l5.593,3.389a1.068,1.068,0,0,0,1.305-.156l1.6-1.6.431-.431,1.6-1.6a1.068,1.068,0,0,0,.156-1.305l-3.389-5.593L125,246.652Z" transform="translate(-67.851 -189.473)" fill="#fff"/><path d="M127.88,242.971l6.347-1.557a1.051,1.051,0,0,0,.8-1.03v-5.138a1.064,1.064,0,0,0-.8-1.03l-6.347-1.557.252,5.161Z" transform="translate(-66.523 -191.48)" fill="#fff"/><path d="M128.425,232.9l3.389-5.593a1.068,1.068,0,0,0-.156-1.305l-1.6-1.6-.431-.431-1.6-1.6a1.068,1.068,0,0,0-1.305-.156l-5.593,3.389,3.832,3.461Z" transform="translate(-67.859 -193.576)" fill="#fff"/></g><g transform="translate(542.858 314.831)"><circle cx="32.705" cy="32.705" r="32.705" transform="translate(0 55.03) rotate(-57.276)" fill="#7dd2e6"/><path d="M502.063,304.246a7.736,7.736,0,1,1-7.736-7.736A7.733,7.733,0,0,1,502.063,304.246Z" transform="translate(-449.128 -264.912)" fill="#fff"/><path d="M509.664,322.652H481.15a14.533,14.533,0,0,1,28.514,0Z" transform="translate(-450.203 -262.061)" fill="#fff"/></g><g transform="translate(191.128 111.493)"><circle cx="32.705" cy="32.705" r="32.705" transform="translate(0 63.618) rotate(-76.556)" fill="#7dd2e6"/><path d="M197.23,118.64l5.1,10.323,11.4,1.665-8.251,8.036,1.952,11.353-10.2-5.353-10.191,5.353,1.94-11.353-8.239-8.036,11.4-1.665Z" transform="translate(-157.821 -96.713)" fill="#fff"/></g><g transform="translate(192.059 164.795)"><path d="M11602.708-1087.046a36.179,36.179,0,0,1-10.624-25.651v-212.257a33.5,33.5,0,0,1,33.485-33.495,33.5,33.5,0,0,1,33.5,33.495c0,.433-.012.875-.035,1.3-4.887,9.82-15.21,25.03-30.959,21.295a1.781,1.781,0,0,0-2.165,1.328,1.786,1.786,0,0,0,1.328,2.156,24.428,24.428,0,0,0,5.724.7c15.354,0,25.162-15.389,29.76-24.862a57.741,57.741,0,0,1,14.765-1.917,58.528,58.528,0,0,1,58.527,58.524,58.325,58.325,0,0,1-13.125,36.923c-2.5-1.617-5.26-3.3-8.241-4.945-17.675-9.773-34.5-13.451-48.657-10.624-18.765,3.75-25.951,17.148-24.67,28.01,1,8.468,7.354,16.792,19.354,16.792.324,0,.646,0,.97-.012a1.8,1.8,0,0,0,1.737-1.858,1.8,1.8,0,0,0-1.867-1.735c-10.335.395-15.8-6.562-16.623-13.6-1.09-9.281,5.269-20.765,21.807-24.072,22.718-4.527,46.993,9.737,59.52,18.718a50.217,50.217,0,0,1,9.8,29.881,50.49,50.49,0,0,1-27.425,44.92c-8.5-12.047-22.405-19.89-24-20.429a1.83,1.83,0,0,0-2.312,1.125,1.772,1.772,0,0,0,1.113,2.262c.191.074,15.558,8.206,23.521,20.924a.037.037,0,0,0,.012.024,35.693,35.693,0,0,1,.61,6.633,36.271,36.271,0,0,1-36.275,36.275,35.086,35.086,0,0,1-5.042-.359,46,46,0,0,0-2.31-14.9,31.828,31.828,0,0,0-16.814-19.065c-4.684-2.227-20.659-8.586-29.808,3.773-3.6,4.848-4.43,11.1-1.844,13.926a1.8,1.8,0,0,0,2.539.109,1.8,1.8,0,0,0,.106-2.539c-1.063-1.172-.79-5.5,2.085-9.363,2.43-3.284,9.772-10.12,25.365-2.66,15.819,7.57,17.327,23.854,17.112,31.459-.012.012-.012.012-.012.024a35.626,35.626,0,0,1-8.612,13.772,36.192,36.192,0,0,1-25.661,10.625A36.162,36.162,0,0,1,11602.708-1087.046Zm-88.62,0a35.867,35.867,0,0,1-8.609-13.761c0-.012-.015-.024-.015-.035-.227-7.617,1.284-23.878,17.1-31.459,15.59-7.461,22.944-.624,25.375,2.66,2.862,3.867,3.151,8.191,2.073,9.363a1.8,1.8,0,0,0,.105,2.539,1.8,1.8,0,0,0,2.539-.109c2.589-2.825,1.773-9.075-1.832-13.926-9.147-12.347-25.123-6.011-29.807-3.773a31.855,31.855,0,0,0-16.851,19.124,45.918,45.918,0,0,0-2.285,14.85,36.973,36.973,0,0,1-5.031.348,36.275,36.275,0,0,1-36.286-36.275,35.276,35.276,0,0,1,.612-6.609v-.012c7.891-12.635,23.1-20.741,23.53-20.959a1.8,1.8,0,0,0,1.09-2.25,1.8,1.8,0,0,0-2.273-1.137c-1.605.539-15.511,8.382-24.014,20.429a50.511,50.511,0,0,1-27.424-44.92,50.223,50.223,0,0,1,9.8-29.881c12.541-8.98,36.814-23.245,59.52-18.718,16.538,3.308,22.909,14.792,21.819,24.072-.827,7.042-6.3,13.976-16.633,13.6a1.8,1.8,0,0,0-1.858,1.735,1.8,1.8,0,0,0,1.727,1.858c.336.012.659.012.969.012,12,0,18.37-8.335,19.365-16.792,1.27-10.862-5.905-24.261-24.682-28.01-14.155-2.828-30.982.851-48.646,10.624-2.98,1.641-5.749,3.328-8.238,4.945a58.242,58.242,0,0,1-13.139-36.923,58.528,58.528,0,0,1,58.526-58.524,57.845,57.845,0,0,1,14.777,1.917c4.586,9.472,14.405,24.862,29.76,24.862a24.325,24.325,0,0,0,5.711-.7,1.8,1.8,0,0,0,1.343-2.156,1.8,1.8,0,0,0-2.167-1.328c-15.749,3.746-26.084-11.5-30.971-21.318-.023-.43-.035-.848-.035-1.281a33.5,33.5,0,0,1,33.494-33.495,33.5,33.5,0,0,1,33.5,33.495V-1112.7a36.146,36.146,0,0,1-10.636,25.651,36.164,36.164,0,0,1-25.651,10.625A36.164,36.164,0,0,1,11514.088-1087.046Z" transform="translate(-11432.091 1358.449)" fill="url(#a)"/><path d="M215.178,213.029a3.449,3.449,0,1,1-3.449-3.449A3.45,3.45,0,0,1,215.178,213.029Z" transform="translate(-153.312 -132.05)" fill="url(#a)"/><path d="M384.418,199.869a3.449,3.449,0,1,1-3.449-3.449A3.45,3.45,0,0,1,384.418,199.869Z" transform="translate(-119.877 -134.65)" fill="url(#a)"/><path d="M237.588,301.109a3.449,3.449,0,1,1-3.449-3.449A3.45,3.45,0,0,1,237.588,301.109Z" transform="translate(-148.885 -114.649)" fill="url(#a)"/><path d="M329.688,231.7a3.449,3.449,0,1,1-3.449-3.449A3.45,3.45,0,0,1,329.688,231.7Z" transform="translate(-130.689 -128.362)" fill="url(#a)"/><path d="M244.759,234.414a1.724,1.724,0,1,1-1.724-1.724A1.725,1.725,0,0,1,244.759,234.414Z" transform="translate(-146.787 -127.484)" fill="url(#a)"/><path d="M336.409,296.795a1.724,1.724,0,1,1-1.724-1.724A1.725,1.725,0,0,1,336.409,296.795Z" transform="translate(-128.68 -115.161)" fill="url(#a)"/></g><g transform="translate(113.978 174.771)"><path d="M537.24,288.757a6.587,6.587,0,1,0,6.587-6.587A6.583,6.583,0,0,0,537.24,288.757Z" transform="translate(-10.242 -127.685)" fill="none" stroke="rgba(96,118,250,0.36)" stroke-linecap="round" stroke-miterlimit="10" stroke-width="3" opacity="0.16"/><path d="M97.18,171.037a6.587,6.587,0,1,0,6.587-6.587A6.583,6.583,0,0,0,97.18,171.037Z" transform="translate(-97.18 -150.941)" fill="none" stroke="rgba(96,118,250,0.35)" stroke-linecap="round" stroke-miterlimit="10" stroke-width="3" opacity="0.16"/></g><g transform="translate(287.828 43.83)"><g transform="translate(9.307 54.621)"><circle cx="21.556" cy="21.556" r="21.556" transform="translate(26.967 100.763)" fill="#1d3867"/><path d="M347.419,138.107a48.479,48.479,0,0,1-12.97,33.065,49.8,49.8,0,0,0-9.688,15.161,46.576,46.576,0,0,0-3.353,14.562c-.072,1.006-.108,2.012-.108,3.03H276.26c0-1.018-.036-2.024-.1-3.03A46.28,46.28,0,0,0,263.6,171.71a48.509,48.509,0,0,1-13.389-30.945,46.038,46.038,0,0,1-.036-4.814,48.89,48.89,0,0,1,48.5-46.5,48.091,48.091,0,0,1,16.143,2.718A48.663,48.663,0,0,1,347.419,138.107Z" transform="translate(-250.119 -89.438)" fill="#5badc5"/><path d="M0,0H44.513V13.1H0Z" transform="translate(26.512 114.607)" fill="#1d3867"/><path d="M317.694,190.256H272.5a3.882,3.882,0,0,1-3.868-3.868h0a3.882,3.882,0,0,1,3.868-3.868h45.2a3.882,3.882,0,0,1,3.868,3.868h0A3.874,3.874,0,0,1,317.694,190.256Z" transform="translate(-246.465 -71.051)" fill="#7c8aab"/><path d="M317.694,200.576H272.5a3.882,3.882,0,0,1-3.868-3.868h0a3.882,3.882,0,0,1,3.868-3.868h45.2a3.882,3.882,0,0,1,3.868,3.868h0A3.874,3.874,0,0,1,317.694,200.576Z" transform="translate(-246.465 -69.012)" fill="#7c8aab"/><path d="M329.889,124.193A41.566,41.566,0,0,1,250.2,140.755a46.038,46.038,0,0,1-.036-4.814,48.89,48.89,0,0,1,48.5-46.5,48.091,48.091,0,0,1,16.143,2.718A41.5,41.5,0,0,1,329.889,124.193Z" transform="translate(-250.121 -89.44)" fill="#76d0ea"/></g><path d="M291.212,84.475,277.44,54.165,307.75,43.83Z" transform="translate(-235.418 -43.83)" fill="#5badc5"/><path d="M268.529,87.169,248.553,72.02,242.35,91.3Z" transform="translate(-242.35 -38.261)" fill="#5badc5"/><path d="M315.75,83.775l24.095-8.563L332.276,63.5Z" transform="translate(-227.849 -39.944)" fill="#5badc5"/><path d="M274.14,129.975s1.018,16.586,21.317,16.586,25.7-18.909,13.2-19.628c-9.8-.563-13.88,9.82-13.88,14.55s-.144,43.424-.144,43.424" transform="translate(-236.07 -27.416)" fill="none" stroke="#fff" stroke-linecap="round" stroke-miterlimit="10" stroke-width="3"/></g></g></svg>