<svg xmlns="http://www.w3.org/2000/svg" width="592.555" height="812.729" viewBox="0 0 592.555 812.729"><g transform="translate(-675.272 -5754)"><path d="M537.24,292.17a10,10,0,1,0,10-10A9.994,9.994,0,0,0,537.24,292.17Z" transform="translate(412.76 5578.286)" fill="none" stroke="rgba(96,118,250,0.56)" stroke-linecap="round" stroke-miterlimit="10" stroke-width="4" opacity="0.2"/><path d="M537.24,294.784c0,6.972,6.038,12.614,13.5,12.614s13.5-5.642,13.5-12.614-6.038-12.614-13.5-12.614S537.24,287.812,537.24,294.784Z" transform="matrix(0.883, -0.469, 0.469, 0.883, 427.491, 6512.485)" fill="none" stroke="rgba(96,118,250,0.56)" stroke-linecap="round" stroke-miterlimit="10" stroke-width="4" opacity="0.2"/><path d="M537.24,313.342a31.172,31.172,0,1,0,31.171-31.172A31.154,31.154,0,0,0,537.24,313.342Z" transform="matrix(0.883, -0.469, 0.469, 0.883, 179.821, 6512.732)" fill="none" stroke="rgba(96,118,250,0.56)" stroke-linecap="round" stroke-miterlimit="10" stroke-width="3" opacity="0.2"/><path d="M537.24,294.784c0,6.972,6.038,12.614,13.5,12.614s13.5-5.642,13.5-12.614-6.038-12.614-13.5-12.614S537.24,287.812,537.24,294.784Z" transform="translate(1522.763 6098.264) rotate(133)" fill="none" stroke="rgba(96,118,250,0.56)" stroke-linecap="round" stroke-miterlimit="10" stroke-width="4" opacity="0.2"/><path d="M537.24,294.784c0,6.972,6.038,12.614,13.5,12.614s13.5-5.642,13.5-12.614-6.038-12.614-13.5-12.614S537.24,287.812,537.24,294.784Z" transform="translate(1579.627 5931.14) rotate(133)" fill="none" stroke="rgba(96,118,250,0.56)" stroke-linecap="round" stroke-miterlimit="10" stroke-width="4" opacity="0.2"/><path d="M537.24,298.784a16.614,16.614,0,1,0,16.614-16.614A16.6,16.6,0,0,0,537.24,298.784Z" transform="translate(139.532 5915.375)" fill="none" stroke="rgba(96,118,250,0.56)" stroke-linecap="round" stroke-miterlimit="10" stroke-width="3" opacity="0.2"/><path d="M537.24,288.757a6.587,6.587,0,1,0,6.587-6.587A6.583,6.583,0,0,0,537.24,288.757Z" transform="translate(241.586 6004.74)" fill="none" stroke="#81d3e4" stroke-linecap="round" stroke-miterlimit="10" stroke-width="3" opacity="0.2"/><path d="M537.24,288.056a5.886,5.886,0,1,0,5.886-5.886A5.882,5.882,0,0,0,537.24,288.056Z" transform="translate(312.76 5912.375)" fill="none" stroke="rgba(96,118,250,0.56)" stroke-linecap="round" stroke-miterlimit="10" stroke-width="3" opacity="0.2"/><path d="M537.24,298.784a16.614,16.614,0,1,0,16.614-16.614A16.6,16.6,0,0,0,537.24,298.784Z" transform="translate(159.532 6124.375)" fill="none" stroke="rgba(96,118,250,0.56)" stroke-linecap="round" stroke-miterlimit="10" stroke-width="3" opacity="0.2"/><path d="M537.24,288.757a6.587,6.587,0,1,0,6.587-6.587A6.583,6.583,0,0,0,537.24,288.757Z" transform="translate(333.586 6102.74)" fill="none" stroke="#81d3e4" stroke-linecap="round" stroke-miterlimit="10" stroke-width="3" opacity="0.2"/><path d="M537.24,294.784c0,6.972,6.038,12.614,13.5,12.614s13.5-5.642,13.5-12.614-6.038-12.614-13.5-12.614S537.24,287.812,537.24,294.784Z" transform="translate(367.76 5473.83)" fill="none" stroke="rgba(96,118,250,0.56)" stroke-linecap="round" stroke-miterlimit="10" stroke-width="4" opacity="0.2"/><path d="M537.24,294.784c0,6.972,6.038,12.614,13.5,12.614s13.5-5.642,13.5-12.614-6.038-12.614-13.5-12.614S537.24,287.812,537.24,294.784Z" transform="translate(1837.764 5748.264) rotate(133)" fill="none" stroke="rgba(96,118,250,0.56)" stroke-linecap="round" stroke-miterlimit="10" stroke-width="4" opacity="0.2"/><path d="M537.24,288.757a6.587,6.587,0,1,0,6.587-6.587A6.583,6.583,0,0,0,537.24,288.757Z" transform="translate(556.586 5654.74)" fill="none" stroke="#81d3e4" stroke-linecap="round" stroke-miterlimit="10" stroke-width="3" opacity="0.2"/><path d="M537.24,288.757a6.587,6.587,0,1,0,6.587-6.587A6.583,6.583,0,0,0,537.24,288.757Z" transform="translate(648.586 5752.74)" fill="none" stroke="#81d3e4" stroke-linecap="round" stroke-miterlimit="10" stroke-width="3" opacity="0.2"/></g></svg>